IBM Plex Sans Var-Bold Italic.ufo
<glyph name="dollar" format="1">
  <advance width="561"/>
  <unicode hex="0024"/>
  <outline>
    <contour>
      <point x="265" y="-82" type="line"/>
      <point x="294" y="62" type="line"/>
      <point x="286" y="82" type="line"/>
      <point x="390" y="616" type="line"/>
      <point x="408" y="636" type="line"/>
      <point x="437" y="780" type="line"/>
      <point x="327" y="780" type="line"/>
      <point x="298" y="636" type="line"/>
      <point x="304" y="616" type="line"/>
      <point x="200" y="82" type="line"/>
      <point x="184" y="62" type="line"/>
      <point x="155" y="-82" type="line"/>
    </contour>
    <contour>
      <point x="516" y="236" type="curve" smooth="yes"/>
      <point x="516" y="330"/>
      <point x="457" y="382"/>
      <point x="347" y="409" type="curve" smooth="yes"/>
      <point x="274" y="427" type="line" smooth="yes"/>
      <point x="229" y="438"/>
      <point x="210" y="464"/>
      <point x="210" y="496" type="curve" smooth="yes"/>
      <point x="210" y="534"/>
      <point x="237" y="581"/>
      <point x="328" y="581" type="curve" smooth="yes"/>
      <point x="422" y="581"/>
      <point x="456" y="540"/>
      <point x="475" y="514" type="curve"/>
      <point x="568" y="596" type="line"/>
      <point x="540" y="640"/>
      <point x="472" y="691"/>
      <point x="334" y="691" type="curve" smooth="yes"/>
      <point x="167" y="691"/>
      <point x="74" y="597"/>
      <point x="74" y="479" type="curve" smooth="yes"/>
      <point x="74" y="387"/>
      <point x="130" y="329"/>
      <point x="250" y="302" type="curve" smooth="yes"/>
      <point x="316" y="287" type="line" smooth="yes"/>
      <point x="367" y="275"/>
      <point x="380" y="244"/>
      <point x="380" y="213" type="curve" smooth="yes"/>
      <point x="380" y="169"/>
      <point x="353" y="117"/>
      <point x="257" y="117" type="curve" smooth="yes"/>
      <point x="166" y="117"/>
      <point x="112" y="158"/>
      <point x="88" y="196" type="curve"/>
      <point x="-5" y="111" type="line"/>
      <point x="26" y="63"/>
      <point x="107" y="8"/>
      <point x="248" y="8" type="curve" smooth="yes"/>
      <point x="425" y="8"/>
      <point x="516" y="126"/>
    </contour>
  </outline>
</glyph>
<glyph name="percent" format="1">
  <advance width="939"/>
  <unicode hex="0025"/>
  <outline>
    <contour>
      <point x="289" y="626" type="curve" smooth="yes"/>
      <point x="315" y="626"/>
      <point x="331" y="608"/>
      <point x="331" y="576" type="curve" smooth="yes"/>
      <point x="331" y="565"/>
      <point x="329" y="551"/>
      <point x="326" y="536" type="curve" smooth="yes"/>
      <point x="316" y="486" type="line" smooth="yes"/>
      <point x="304" y="426"/>
      <point x="287" y="398"/>
      <point x="253" y="398" type="curve" smooth="yes"/>
      <point x="227" y="398"/>
      <point x="211" y="416"/>
      <point x="211" y="448" type="curve" smooth="yes"/>
      <point x="211" y="459"/>
      <point x="213" y="473"/>
      <point x="216" y="488" type="curve" smooth="yes"/>
      <point x="226" y="538" type="line" smooth="yes"/>
      <point x="238" y="598"/>
      <point x="255" y="626"/>
    </contour>
    <contour>
      <point x="687" y="72" type="curve" smooth="yes"/>
      <point x="661" y="72"/>
      <point x="645" y="90"/>
      <point x="645" y="122" type="curve" smooth="yes"/>
      <point x="645" y="133"/>
      <point x="647" y="147"/>
      <point x="650" y="162" type="curve" smooth="yes"/>
      <point x="660" y="212" type="line" smooth="yes"/>
      <point x="672" y="272"/>
      <point x="689" y="300"/>
      <point x="723" y="300" type="curve" smooth="yes"/>
      <point x="749" y="300"/>
      <point x="765" y="282"/>
      <point x="765" y="250" type="curve" smooth="yes"/>
      <point x="765" y="239"/>
      <point x="763" y="225"/>
      <point x="760" y="210" type="curve" smooth="yes"/>
      <point x="750" y="160" type="line" smooth="yes"/>
      <point x="738" y="100"/>
      <point x="721" y="72"/>
    </contour>
    <contour>
      <point x="295" y="710" type="curve" smooth="yes" name=""/>
      <point x="205" y="710"/>
      <point x="118" y="642"/>
      <point x="97" y="529" type="curve" smooth="yes"/>
      <point x="94" y="512"/>
      <point x="92" y="494"/>
      <point x="92" y="475" type="curve" smooth="yes"/>
      <point x="92" y="367"/>
      <point x="153" y="314"/>
      <point x="247" y="314" type="curve" smooth="yes"/>
      <point x="337" y="314"/>
      <point x="424" y="382"/>
      <point x="445" y="495" type="curve" smooth="yes"/>
      <point x="448" y="512"/>
      <point x="450" y="530"/>
      <point x="450" y="549" type="curve" smooth="yes"/>
      <point x="450" y="657"/>
      <point x="389" y="710"/>
    </contour>
    <contour>
      <point x="729" y="384" type="curve" smooth="yes" name=""/>
      <point x="639" y="384"/>
      <point x="552" y="316"/>
      <point x="531" y="203" type="curve" smooth="yes"/>
      <point x="528" y="186"/>
      <point x="526" y="168"/>
      <point x="526" y="149" type="curve" smooth="yes"/>
      <point x="526" y="41"/>
      <point x="587" y="-12"/>
      <point x="681" y="-12" type="curve" smooth="yes"/>
      <point x="771" y="-12"/>
      <point x="858" y="56"/>
      <point x="879" y="169" type="curve" smooth="yes"/>
      <point x="882" y="186"/>
      <point x="884" y="204"/>
      <point x="884" y="223" type="curve" smooth="yes"/>
      <point x="884" y="331"/>
      <point x="823" y="384"/>
    </contour>
    <contour>
      <point x="268" y="0" type="line"/>
      <point x="832" y="698" type="line"/>
      <point x="708" y="698" type="line"/>
      <point x="144" y="0" type="line"/>
    </contour>
  </outline>
</glyph>
<glyph name="ampersand" format="1">
  <advance width="704"/>
  <unicode hex="0026"/>
  <outline>
    <contour>
      <point x="476" y="0" type="line"/>
      <point x="643" y="0" type="line"/>
      <point x="537" y="150" type="line"/>
      <point x="559" y="184"/>
      <point x="577" y="224"/>
      <point x="588" y="265" type="curve"/>
      <point x="667" y="265" type="line"/>
      <point x="691" y="385" type="line"/>
      <point x="518" y="385" type="line"/>
      <point x="508" y="334"/>
      <point x="492" y="285"/>
      <point x="470" y="244" type="curve"/>
      <point x="387" y="361" type="line"/>
      <point x="481" y="409"/>
      <point x="564" y="464"/>
      <point x="564" y="561" type="curve" smooth="yes"/>
      <point x="564" y="658"/>
      <point x="489" y="710"/>
      <point x="383" y="710" type="curve" smooth="yes"/>
      <point x="251" y="710"/>
      <point x="154" y="633"/>
      <point x="154" y="516" type="curve" smooth="yes"/>
      <point x="154" y="465"/>
      <point x="181" y="417"/>
      <point x="206" y="380" type="curve"/>
      <point x="104" y="327"/>
      <point x="31" y="272"/>
      <point x="31" y="158" type="curve" smooth="yes" name=""/>
      <point x="31" y="60"/>
      <point x="100" y="-12"/>
      <point x="236" y="-12" type="curve" smooth="yes" name=""/>
      <point x="325" y="-12.0"/>
      <point x="387" y="18"/>
      <point x="434" y="56" type="curve"/>
      <point x="436" y="56" type="line"/>
    </contour>
    <contour>
      <point x="363" y="602" type="curve" smooth="yes"/>
      <point x="399" y="602"/>
      <point x="423" y="581"/>
      <point x="423" y="548" type="curve" smooth="yes"/>
      <point x="423" y="500"/>
      <point x="392" y="474"/>
      <point x="330" y="441" type="curve"/>
      <point x="305" y="476"/>
      <point x="294" y="498"/>
      <point x="294" y="522" type="curve" smooth="yes"/>
      <point x="294" y="531"/>
      <point x="295" y="544"/>
      <point x="297" y="551" type="curve" smooth="yes"/>
      <point x="304" y="582"/>
      <point x="330" y="602"/>
    </contour>
    <contour>
      <point x="272" y="107" type="curve" smooth="yes" name=""/>
      <point x="209" y="107"/>
      <point x="176" y="133"/>
      <point x="176" y="182" type="curve" smooth="yes"/>
      <point x="176" y="191"/>
      <point x="177" y="201"/>
      <point x="179" y="209" type="curve" smooth="yes"/>
      <point x="188" y="253"/>
      <point x="219" y="278"/>
      <point x="262" y="301" type="curve"/>
      <point x="378" y="138" type="line"/>
      <point x="348" y="118"/>
      <point x="312" y="107"/>
    </contour>
  </outline>
</glyph>
<glyph name="quotesingle" format="1">
  <advance width="263"/>
  <unicode hex="0027"/>
  <outline>
    <contour>
      <point x="228" y="414" type="line" name="hr00"/>
      <point x="293" y="740" type="line"/>
      <point x="161" y="740" type="line"/>
      <point x="96" y="414" type="line"/>
    </contour>
  </outline>
</glyph>
<glyph name="asterisk" format="1">
  <advance width="595"/>
  <unicode hex="002A"/>
  <outline>
    <contour>
      <point x="325" y="398" type="line" name=""/>
      <point x="327" y="398" type="line"/>
      <point x="402" y="239" type="line"/>
      <point x="510" y="305" type="line"/>
      <point x="423" y="455" type="line"/>
      <point x="424" y="457" type="line"/>
      <point x="607" y="516" type="line"/>
      <point x="575" y="628" type="line"/>
      <point x="413" y="563" type="line"/>
      <point x="411" y="565" type="line"/>
      <point x="453" y="747" type="line"/>
      <point x="323" y="747" type="line"/>
      <point x="295" y="562" type="line"/>
      <point x="293" y="560" type="line"/>
      <point x="136" y="631" type="line"/>
      <point x="85" y="516" type="line"/>
      <point x="240" y="463" type="line"/>
      <point x="241" y="461" type="line"/>
      <point x="95" y="320" type="line"/>
      <point x="187" y="239" type="line"/>
    </contour>
  </outline>
</glyph>
<glyph name="comma" format="1">
  <advance width="307"/>
  <unicode hex="002C"/>
  <outline>
    <contour>
      <point x="129" y="169" type="curve" smooth="yes" name=""/>
      <point x="75" y="169"/>
      <point x="43" y="140"/>
      <point x="34" y="95" type="curve" smooth="yes"/>
      <point x="31" y="80"/>
      <point x="27" y="60"/>
      <point x="27" y="49" type="curve" smooth="yes"/>
      <point x="27" y="25"/>
      <point x="41" y="0"/>
      <point x="78" y="-8" type="curve"/>
      <point x="51" y="-61"/>
      <point x="9" y="-103"/>
      <point x="-47" y="-147" type="curve"/>
      <point x="59" y="-147" type="line"/>
      <point x="134" y="-94"/>
      <point x="186" y="-11"/>
      <point x="200" y="59" type="curve" smooth="yes"/>
      <point x="203" y="74"/>
      <point x="206" y="92"/>
      <point x="206" y="103" type="curve" smooth="yes"/>
      <point x="206" y="137"/>
      <point x="186" y="169"/>
    </contour>
  </outline>
</glyph>
<glyph name="hyphen" format="1">
  <advance width="395"/>
  <unicode hex="002D"/>
  <outline>
    <contour>
      <point x="340" y="238" type="line" name="hr00"/>
      <point x="367" y="372" type="line"/>
      <point x="72" y="372" type="line"/>
      <point x="45" y="238" type="line"/>
    </contour>
  </outline>
</glyph>
<glyph name="zero" format="1">
  <advance width="600"/>
  <unicode hex="0030"/>
  <outline>
    <contour>
      <point x="262" y="-12" type="curve" smooth="yes"/>
      <point x="426" y="-12"/>
      <point x="531" y="135"/>
      <point x="566" y="316" type="curve" smooth="yes"/>
      <point x="575" y="361"/>
      <point x="579" y="407"/>
      <point x="579" y="454" type="curve" smooth="yes"/>
      <point x="579" y="570"/>
      <point x="540" y="710"/>
      <point x="364" y="710" type="curve" smooth="yes" name=""/>
      <point x="200" y="710"/>
      <point x="95" y="563"/>
      <point x="60" y="382" type="curve" smooth="yes"/>
      <point x="51" y="337"/>
      <point x="47" y="291"/>
      <point x="47" y="244" type="curve" smooth="yes"/>
      <point x="47" y="128"/>
      <point x="86" y="-12"/>
    </contour>
    <contour>
      <point x="275" y="106" type="curve" smooth="yes"/>
      <point x="212" y="106"/>
      <point x="188" y="147"/>
      <point x="188" y="215" type="curve" smooth="yes"/>
      <point x="188" y="238"/>
      <point x="191" y="260"/>
      <point x="196" y="287" type="curve" smooth="yes"/>
      <point x="221" y="411" type="line" smooth="yes"/>
      <point x="242" y="518"/>
      <point x="273" y="592"/>
      <point x="351" y="592" type="curve" smooth="yes"/>
      <point x="414" y="592"/>
      <point x="438" y="551"/>
      <point x="438" y="483" type="curve" smooth="yes"/>
      <point x="438" y="460"/>
      <point x="435" y="438"/>
      <point x="430" y="411" type="curve" smooth="yes"/>
      <point x="405" y="287" type="line" smooth="yes"/>
      <point x="384" y="180"/>
      <point x="353" y="106"/>
    </contour>
  </outline>
</glyph>
<glyph name="one" format="1">
  <advance width="600"/>
  <unicode hex="0031"/>
  <outline>
    <contour>
      <point x="522" y="0" type="line" name="hr00"/>
      <point x="545" y="118" type="line"/>
      <point x="401" y="118" type="line"/>
      <point x="517" y="698" type="line"/>
      <point x="291" y="698" type="line"/>
      <point x="84" y="478" type="line"/>
      <point x="169" y="403" type="line"/>
      <point x="344" y="589" type="line"/>
      <point x="353" y="589" type="line"/>
      <point x="260" y="118" type="line"/>
      <point x="80" y="118" type="line"/>
      <point x="57" y="0" type="line"/>
    </contour>
  </outline>
</glyph>
<glyph name="four" format="1">
  <advance width="600"/>
  <unicode hex="0034"/>
  <outline>
    <contour>
      <point x="424" y="0" type="line" name="hr00"/>
      <point x="451" y="134" type="line"/>
      <point x="536" y="134" type="line"/>
      <point x="559" y="246" type="line"/>
      <point x="473" y="246" type="line"/>
      <point x="564" y="698" type="line"/>
      <point x="392" y="698" type="line"/>
      <point x="36" y="261" type="line"/>
      <point x="11" y="134" type="line"/>
      <point x="316" y="134" type="line"/>
      <point x="289" y="0" type="line"/>
    </contour>
    <contour>
      <point x="385" y="534" type="line"/>
      <point x="396" y="534" type="line"/>
      <point x="338" y="246" type="line"/>
      <point x="154" y="246" type="line"/>
    </contour>
  </outline>
</glyph>
<glyph name="six" format="1">
  <advance width="600"/>
  <unicode hex="0036"/>
  <outline>
    <contour>
      <point x="264" y="-12" type="curve" smooth="yes" name=""/>
      <point x="420" y="-12"/>
      <point x="522" y="85"/>
      <point x="545" y="204" type="curve" smooth="yes"/>
      <point x="548" y="221"/>
      <point x="550" y="239"/>
      <point x="550" y="257" type="curve" smooth="yes"/>
      <point x="550" y="372"/>
      <point x="487" y="449"/>
      <point x="384" y="449" type="curve" smooth="yes"/>
      <point x="299" y="449"/>
      <point x="257" y="398"/>
      <point x="223" y="344" type="curve"/>
      <point x="215" y="347" type="line"/>
      <point x="267" y="494"/>
      <point x="393" y="583"/>
      <point x="577" y="698" type="curve"/>
      <point x="370" y="698" type="line"/>
      <point x="227" y="615"/>
      <point x="85" y="471"/>
      <point x="52" y="297" type="curve" smooth="yes"/>
      <point x="47" y="273"/>
      <point x="45" y="248"/>
      <point x="45" y="223" type="curve" smooth="yes"/>
      <point x="45" y="79"/>
      <point x="124" y="-12"/>
    </contour>
    <contour>
      <point x="277" y="102" type="curve" smooth="yes"/>
      <point x="217" y="102"/>
      <point x="188" y="136"/>
      <point x="188" y="190" type="curve" smooth="yes"/>
      <point x="188" y="204"/>
      <point x="190" y="218"/>
      <point x="193" y="233" type="curve" smooth="yes"/>
      <point x="206" y="298"/>
      <point x="245" y="337"/>
      <point x="312" y="337" type="curve" smooth="yes"/>
      <point x="372" y="337"/>
      <point x="401" y="303"/>
      <point x="401" y="249" type="curve" smooth="yes"/>
      <point x="401" y="235"/>
      <point x="399" y="221"/>
      <point x="396" y="206" type="curve" smooth="yes"/>
      <point x="383" y="141"/>
      <point x="343" y="102"/>
    </contour>
  </outline>
</glyph>
<glyph name="eight" format="1">
  <advance width="600"/>
  <unicode hex="0038"/>
  <outline>
    <contour>
      <point x="257" y="-12" type="curve" smooth="yes"/>
      <point x="435" y="-12"/>
      <point x="537" y="99"/>
      <point x="537" y="210" type="curve" smooth="yes"/>
      <point x="537" y="294"/>
      <point x="500" y="340"/>
      <point x="436" y="360" type="curve"/>
      <point x="437" y="368" type="line"/>
      <point x="522" y="400"/>
      <point x="581" y="464"/>
      <point x="581" y="550" type="curve" smooth="yes" name="hr01"/>
      <point x="581" y="644"/>
      <point x="514" y="710"/>
      <point x="375" y="710" type="curve" smooth="yes"/>
      <point x="199" y="710"/>
      <point x="115" y="607"/>
      <point x="115" y="505" type="curve" smooth="yes"/>
      <point x="115" y="437"/>
      <point x="145" y="391"/>
      <point x="199" y="368" type="curve"/>
      <point x="198" y="361" type="line"/>
      <point x="96" y="338"/>
      <point x="31" y="265"/>
      <point x="31" y="165" type="curve" smooth="yes" name="hr02"/>
      <point x="31" y="61"/>
      <point x="104" y="-12"/>
    </contour>
    <contour>
      <point x="267" y="100" type="curve" smooth="yes"/>
      <point x="209" y="100"/>
      <point x="178" y="129"/>
      <point x="178" y="177" type="curve" smooth="yes"/>
      <point x="178" y="190"/>
      <point x="179" y="198"/>
      <point x="182" y="213" type="curve" smooth="yes"/>
      <point x="193" y="268"/>
      <point x="234" y="303"/>
      <point x="299" y="303" type="curve" smooth="yes"/>
      <point x="357" y="303"/>
      <point x="388" y="274"/>
      <point x="388" y="226" type="curve" smooth="yes"/>
      <point x="388" y="213"/>
      <point x="387" y="205"/>
      <point x="384" y="190" type="curve" smooth="yes"/>
      <point x="373" y="135"/>
      <point x="332" y="100"/>
    </contour>
    <contour>
      <point x="328" y="411" type="curve" smooth="yes"/>
      <point x="271" y="411"/>
      <point x="243" y="438"/>
      <point x="243" y="478" type="curve" smooth="yes" name="hr03"/>
      <point x="243" y="487"/>
      <point x="246" y="502"/>
      <point x="249" y="517" type="curve" smooth="yes"/>
      <point x="258" y="562"/>
      <point x="293" y="598"/>
      <point x="357" y="598" type="curve" smooth="yes"/>
      <point x="414" y="598"/>
      <point x="442" y="571"/>
      <point x="442" y="531" type="curve" smooth="yes"/>
      <point x="442" y="522"/>
      <point x="439" y="507"/>
      <point x="436" y="492" type="curve" smooth="yes"/>
      <point x="427" y="447"/>
      <point x="392" y="411"/>
    </contour>
  </outline>
</glyph>
<glyph name="nine" format="1">
  <advance width="600"/>
  <unicode hex="0039"/>
  <outline>
    <contour>
      <point x="245" y="249" type="curve" smooth="yes"/>
      <point x="330" y="249"/>
      <point x="372" y="300"/>
      <point x="406" y="354" type="curve"/>
      <point x="414" y="351" type="line"/>
      <point x="362" y="204"/>
      <point x="236" y="115"/>
      <point x="52" y="0" type="curve"/>
      <point x="259" y="0" type="line"/>
      <point x="402" y="83"/>
      <point x="544" y="227"/>
      <point x="577" y="401" type="curve" smooth="yes"/>
      <point x="582" y="425"/>
      <point x="584" y="450"/>
      <point x="584" y="475" type="curve" smooth="yes"/>
      <point x="584" y="619"/>
      <point x="505" y="710"/>
      <point x="365" y="710" type="curve" smooth="yes" name=""/>
      <point x="209" y="710"/>
      <point x="107" y="613"/>
      <point x="84" y="494" type="curve" smooth="yes"/>
      <point x="81" y="477"/>
      <point x="79" y="459"/>
      <point x="79" y="441" type="curve" smooth="yes"/>
      <point x="79" y="326"/>
      <point x="142" y="249"/>
    </contour>
    <contour>
      <point x="317" y="361" type="curve" smooth="yes"/>
      <point x="257" y="361"/>
      <point x="228" y="395"/>
      <point x="228" y="449" type="curve" smooth="yes"/>
      <point x="228" y="463"/>
      <point x="230" y="477"/>
      <point x="233" y="492" type="curve" smooth="yes"/>
      <point x="246" y="557"/>
      <point x="286" y="596"/>
      <point x="352" y="596" type="curve" smooth="yes"/>
      <point x="412" y="596"/>
      <point x="441" y="562"/>
      <point x="441" y="508" type="curve" smooth="yes"/>
      <point x="441" y="494"/>
      <point x="439" y="480"/>
      <point x="436" y="465" type="curve" smooth="yes"/>
      <point x="423" y="400"/>
      <point x="384" y="361"/>
    </contour>
  </outline>
</glyph>
<glyph name="equal" format="1">
  <advance width="600"/>
  <unicode hex="003D"/>
  <outline>
    <contour>
      <point x="552" y="363" type="line" name="hr00"/>
      <point x="575" y="479" type="line"/>
      <point x="112" y="479" type="line"/>
      <point x="89" y="363" type="line"/>
    </contour>
    <contour>
      <point x="506" y="132" type="line"/>
      <point x="529" y="248" type="line"/>
      <point x="66" y="248" type="line"/>
      <point x="43" y="132" type="line"/>
    </contour>
  </outline>
</glyph>
<glyph name="A" format="1">
  <advance width="658"/>
  <unicode hex="0041"/>
  <outline>
    <contour>
      <point x="588" y="0" type="line" name=""/>
      <point x="509" y="698" type="line"/>
      <point x="324" y="698" type="line"/>
      <point x="-35" y="0" type="line"/>
      <point x="120" y="0" type="line"/>
      <point x="202" y="170" type="line"/>
      <point x="425" y="170" type="line"/>
      <point x="441" y="0" type="line"/>
    </contour>
    <contour>
      <point x="415" y="291" type="line"/>
      <point x="259" y="291" type="line"/>
      <point x="333" y="451" type="line"/>
      <point x="386" y="567" type="line"/>
      <point x="394" y="567" type="line"/>
      <point x="403" y="451" type="line"/>
    </contour>
    <contour>
      <point x="283.0" y="0.0" type="move" name="bottom"/>
    </contour>
    <contour>
      <point x="588.0" y="0.0" type="move" name="bottomright"/>
    </contour>
    <contour>
      <point x="411.0" y="698.0" type="move" name="top"/>
    </contour>
  </outline>
</glyph>
<glyph name="B" format="1">
  <advance width="651"/>
  <unicode hex="0042"/>
  <outline>
    <contour>
      <point x="22" y="0" type="line"/>
      <point x="360" y="0" type="line" smooth="yes"/>
      <point x="520" y="0"/>
      <point x="601" y="90"/>
      <point x="601" y="222" type="curve" smooth="yes"/>
      <point x="601" y="287"/>
      <point x="570" y="337"/>
      <point x="497" y="357" type="curve"/>
      <point x="498" y="362" type="line"/>
      <point x="589" y="387"/>
      <point x="634" y="463"/>
      <point x="634" y="555" type="curve" smooth="yes" name="hr01"/>
      <point x="634" y="652"/>
      <point x="561" y="698"/>
      <point x="460" y="698" type="curve" smooth="yes"/>
      <point x="162" y="698" type="line"/>
    </contour>
    <contour>
      <point x="193" y="124" type="line"/>
      <point x="226" y="291" type="line"/>
      <point x="397" y="291" type="line" smooth="yes"/>
      <point x="435" y="291"/>
      <point x="452" y="273"/>
      <point x="452" y="246" type="curve" smooth="yes" name="hr02"/>
      <point x="452" y="237"/>
      <point x="450" y="224"/>
      <point x="443" y="189" type="curve" smooth="yes"/>
      <point x="434" y="144"/>
      <point x="406" y="124"/>
      <point x="360" y="124" type="curve" smooth="yes"/>
    </contour>
    <contour>
      <point x="250" y="410" type="line"/>
      <point x="283" y="574" type="line"/>
      <point x="429" y="574" type="line" smooth="yes"/>
      <point x="466" y="574"/>
      <point x="483" y="555"/>
      <point x="483" y="527" type="curve" smooth="yes" name="hr03"/>
      <point x="483" y="518"/>
      <point x="481" y="507"/>
      <point x="474" y="472" type="curve" smooth="yes"/>
      <point x="465" y="427"/>
      <point x="437" y="410"/>
      <point x="391" y="410" type="curve" smooth="yes"/>
    </contour>
    <contour>
      <point x="246" y="0" type="move" name="bottom"/>
    </contour>
    <contour>
      <point x="386" y="698" type="move" name="top"/>
    </contour>
  </outline>
</glyph>
<glyph name="C" format="1">
  <advance width="635"/>
  <unicode hex="0043"/>
  <outline>
    <contour>
      <point x="306" y="-12" type="curve" smooth="yes" name=""/>
      <point x="427" y="-12"/>
      <point x="531" y="45"/>
      <point x="593" y="166" type="curve"/>
      <point x="472" y="221" type="line"/>
      <point x="441" y="160"/>
      <point x="397" y="117"/>
      <point x="319" y="117" type="curve" smooth="yes"/>
      <point x="241" y="117"/>
      <point x="204" y="161"/>
      <point x="204" y="246" type="curve" smooth="yes"/>
      <point x="204" y="259"/>
      <point x="205" y="276"/>
      <point x="209" y="296" type="curve" smooth="yes"/>
      <point x="231" y="406" type="line" smooth="yes"/>
      <point x="252" y="511"/>
      <point x="311" y="581"/>
      <point x="404" y="581" type="curve" smooth="yes"/>
      <point x="478" y="581"/>
      <point x="506" y="539"/>
      <point x="522" y="486" type="curve"/>
      <point x="651" y="540" type="line"/>
      <point x="618" y="647"/>
      <point x="539" y="710"/>
      <point x="415" y="710" type="curve" smooth="yes"/>
      <point x="242" y="710"/>
      <point x="104" y="571"/>
      <point x="67" y="378" type="curve" smooth="yes"/>
      <point x="60" y="344"/>
      <point x="57" y="309"/>
      <point x="57" y="272" type="curve" smooth="yes"/>
      <point x="57" y="84"/>
      <point x="158" y="-12"/>
    </contour>
    <contour>
      <point x="290.0" y="0.0" type="move" name="bottom"/>
    </contour>
    <contour>
      <point x="419.0" y="698.0" type="move" name="top"/>
    </contour>
  </outline>
</glyph>
<glyph name="D" format="1">
  <advance width="682"/>
  <unicode hex="0044"/>
  <outline>
    <contour>
      <point x="22" y="0" type="line" name=""/>
      <point x="288" y="0" type="line" smooth="yes"/>
      <point x="482" y="0"/>
      <point x="605" y="128"/>
      <point x="642" y="312" type="curve" smooth="yes"/>
      <point x="650" y="351"/>
      <point x="654" y="393"/>
      <point x="654" y="437" type="curve" smooth="yes"/>
      <point x="654" y="608"/>
      <point x="552" y="698"/>
      <point x="386" y="698" type="curve" smooth="yes"/>
      <point x="162" y="698" type="line"/>
    </contour>
    <contour>
      <point x="193" y="128" type="line"/>
      <point x="282" y="570" type="line"/>
      <point x="395" y="570" type="line" smooth="yes"/>
      <point x="463" y="570"/>
      <point x="507" y="536"/>
      <point x="507" y="452" type="curve" smooth="yes"/>
      <point x="507" y="440"/>
      <point x="505" y="415"/>
      <point x="500" y="390" type="curve" smooth="yes"/>
      <point x="481" y="296" type="line" smooth="yes"/>
      <point x="458" y="182"/>
      <point x="390" y="128"/>
      <point x="300" y="128" type="curve" smooth="yes"/>
    </contour>
    <contour>
      <point x="253.0" y="0.0" type="move" name="bottom"/>
    </contour>
    <contour>
      <point x="393.0" y="698.0" type="move" name="top"/>
    </contour>
  </outline>
</glyph>
<glyph name="E" format="1">
  <advance width="578"/>
  <unicode hex="0045"/>
  <outline>
    <contour>
      <point x="481" y="0" type="line" name="hr00"/>
      <point x="507" y="128" type="line"/>
      <point x="193" y="128" type="line"/>
      <point x="225" y="289" type="line"/>
      <point x="493" y="289" type="line"/>
      <point x="519" y="417" type="line"/>
      <point x="251" y="417" type="line"/>
      <point x="282" y="570" type="line"/>
      <point x="585" y="570" type="line"/>
      <point x="611" y="698" type="line"/>
      <point x="162" y="698" type="line"/>
      <point x="22" y="0" type="line"/>
    </contour>
    <contour>
      <point x="263" y="0" type="move" name="bottom"/>
    </contour>
    <contour>
      <point x="481" y="0" type="move" name="bottomright"/>
    </contour>
    <contour>
      <point x="386" y="698" type="move" name="top"/>
    </contour>
  </outline>
</glyph>
<glyph name="F" format="1">
  <advance width="557"/>
  <unicode hex="0046"/>
  <outline>
    <contour>
      <point x="167" y="0" type="line" name="hr00"/>
      <point x="224" y="289" type="line"/>
      <point x="481" y="289" type="line"/>
      <point x="507" y="417" type="line"/>
      <point x="250" y="417" type="line"/>
      <point x="281" y="570" type="line"/>
      <point x="573" y="570" type="line"/>
      <point x="599" y="698" type="line"/>
      <point x="162" y="698" type="line"/>
      <point x="22" y="0" type="line"/>
    </contour>
    <contour>
      <point x="95" y="0" type="move" name="bottom"/>
    </contour>
    <contour>
      <point x="386" y="698" type="move" name="top"/>
    </contour>
  </outline>
</glyph>
<glyph name="G" format="1">
  <advance width="700"/>
  <unicode hex="0047"/>
  <outline>
    <contour>
      <point x="460" y="0" type="line"/>
      <point x="579" y="0" type="line"/>
      <point x="656" y="386" type="line"/>
      <point x="392" y="386" type="line"/>
      <point x="368" y="264" type="line"/>
      <point x="494" y="264" type="line"/>
      <point x="487" y="230" type="line" smooth="yes"/>
      <point x="474" y="166"/>
      <point x="404" y="117"/>
      <point x="318" y="117" type="curve" smooth="yes" name=""/>
      <point x="256" y="117"/>
      <point x="203" y="154"/>
      <point x="203" y="241" type="curve" smooth="yes"/>
      <point x="203" y="258"/>
      <point x="205" y="277"/>
      <point x="209" y="297" type="curve" smooth="yes"/>
      <point x="231" y="407" type="line" smooth="yes"/>
      <point x="252" y="514"/>
      <point x="310" y="581"/>
      <point x="417" y="581" type="curve" smooth="yes"/>
      <point x="488" y="581"/>
      <point x="540" y="546"/>
      <point x="556" y="481" type="curve"/>
      <point x="677" y="545" type="line"/>
      <point x="646" y="652"/>
      <point x="548" y="710"/>
      <point x="425" y="710" type="curve" smooth="yes"/>
      <point x="243" y="710"/>
      <point x="111" y="580"/>
      <point x="70" y="393" type="curve" smooth="yes"/>
      <point x="61" y="354"/>
      <point x="57" y="312"/>
      <point x="57" y="268" type="curve" smooth="yes"/>
      <point x="57" y="82"/>
      <point x="150" y="-12"/>
      <point x="283" y="-12" type="curve" smooth="yes"/>
      <point x="378" y="-12"/>
      <point x="439" y="43"/>
      <point x="474" y="111" type="curve" name=""/>
      <point x="482" y="111" type="line"/>
    </contour>
    <contour>
      <point x="289.0" y="0.0" type="move" name="bottom"/>
    </contour>
    <contour>
      <point x="430.0" y="698.0" type="move" name="top"/>
    </contour>
  </outline>
</glyph>
<glyph name="H" format="1">
  <advance width="700"/>
  <unicode hex="0048"/>
  <outline>
    <contour>
      <point x="427" y="0" type="line" name="hr00"/>
      <point x="572" y="0" type="line"/>
      <point x="712" y="698" type="line"/>
      <point x="567" y="698" type="line"/>
      <point x="511" y="417" type="line"/>
      <point x="251" y="417" type="line"/>
      <point x="307" y="698" type="line"/>
      <point x="162" y="698" type="line"/>
      <point x="22" y="0" type="line"/>
      <point x="167" y="0" type="line"/>
      <point x="225" y="289" type="line"/>
      <point x="485" y="289" type="line"/>
    </contour>
    <contour>
      <point x="297" y="0" type="move" name="bottom"/>
    </contour>
    <contour>
      <point x="425" y="698" type="move" name="top"/>
    </contour>
  </outline>
</glyph>
<glyph name="J" format="1">
  <advance width="536"/>
  <unicode hex="004A"/>
  <outline>
    <contour>
      <point x="201" y="698" type="line" name="hr00"/>
      <point x="177" y="580" type="line"/>
      <point x="380" y="580" type="line"/>
      <point x="305" y="205" type="line" smooth="yes"/>
      <point x="292" y="141"/>
      <point x="256" y="115"/>
      <point x="215" y="115" type="curve" smooth="yes"/>
      <point x="165" y="115"/>
      <point x="149" y="152"/>
      <point x="144" y="208" type="curve"/>
      <point x="5" y="180" type="line"/>
      <point x="15" y="74"/>
      <point x="80" y="-11"/>
      <point x="215" y="-11" type="curve" smooth="yes"/>
      <point x="346" y="-11"/>
      <point x="423" y="69"/>
      <point x="447" y="190" type="curve" smooth="yes"/>
      <point x="549" y="698" type="line"/>
    </contour>
    <contour>
      <point x="206" y="0" type="move" name="bottom"/>
    </contour>
    <contour>
      <point x="382" y="698" type="move" name="top"/>
    </contour>
  </outline>
</glyph>
<glyph name="K" format="1">
  <advance width="657"/>
  <unicode hex="004B"/>
  <outline>
    <contour>
      <point x="436" y="0" type="line" name=""/>
      <point x="596" y="0" type="line"/>
      <point x="433" y="398" type="line"/>
      <point x="721" y="698" type="line"/>
      <point x="545" y="698" type="line"/>
      <point x="357" y="495" type="line"/>
      <point x="247" y="364" type="line"/>
      <point x="240" y="364" type="line"/>
      <point x="266" y="494" type="line"/>
      <point x="307" y="698" type="line"/>
      <point x="162" y="698" type="line"/>
      <point x="22" y="0" type="line"/>
      <point x="167" y="0" type="line"/>
      <point x="203" y="179" type="line"/>
      <point x="319" y="299" type="line"/>
    </contour>
    <contour>
      <point x="297.0" y="0.0" type="move" name="bottom"/>
    </contour>
    <contour>
      <point x="421.0" y="698.0" type="move" name="top"/>
    </contour>
  </outline>
</glyph>
<glyph name="M" format="1">
  <advance width="801"/>
  <unicode hex="004D"/>
  <outline>
    <contour>
      <point x="535" y="0" type="line" name=""/>
      <point x="673" y="0" type="line"/>
      <point x="813" y="698" type="line"/>
      <point x="652" y="698" type="line"/>
      <point x="504" y="487" type="line"/>
      <point x="419" y="366" type="line"/>
      <point x="415" y="366" type="line"/>
      <point x="378" y="487" type="line"/>
      <point x="314" y="698" type="line"/>
      <point x="162" y="698" type="line"/>
      <point x="22" y="0" type="line"/>
      <point x="160" y="0" type="line"/>
      <point x="229" y="342" type="line"/>
      <point x="253" y="463" type="line"/>
      <point x="258" y="463" type="line"/>
      <point x="297" y="342" type="line"/>
      <point x="371" y="115" type="line"/>
      <point x="526" y="327" type="line"/>
      <point x="622" y="461" type="line"/>
      <point x="628" y="461" type="line"/>
      <point x="601" y="327" type="line"/>
    </contour>
    <contour>
      <point x="344.0" y="0.0" type="move" name="bottom"/>
    </contour>
    <contour>
      <point x="484.0" y="698.0" type="move" name="top"/>
    </contour>
  </outline>
</glyph>
<glyph name="N" format="1">
  <advance width="700"/>
  <unicode hex="004E"/>
  <outline>
    <contour>
      <point x="415" y="0" type="line" name=""/>
      <point x="572" y="0" type="line"/>
      <point x="712" y="698" type="line"/>
      <point x="575" y="698" type="line"/>
      <point x="508" y="362" type="line"/>
      <point x="480" y="223" type="line"/>
      <point x="474" y="223" type="line"/>
      <point x="432" y="362" type="line"/>
      <point x="319" y="698" type="line"/>
      <point x="162" y="698" type="line"/>
      <point x="22" y="0" type="line"/>
      <point x="159" y="0" type="line"/>
      <point x="226" y="336" type="line"/>
      <point x="254" y="475" type="line"/>
      <point x="260" y="475" type="line"/>
      <point x="302" y="336" type="line"/>
    </contour>
    <contour>
      <point x="297.0" y="0.0" type="move" name="bottom"/>
    </contour>
    <contour>
      <point x="436.0" y="698.0" type="move" name="top"/>
    </contour>
  </outline>
</glyph>
<glyph name="O" format="1">
  <advance width="695"/>
  <unicode hex="004F"/>
  <outline>
    <contour>
      <point x="308" y="-12" type="curve" smooth="yes" name=""/>
      <point x="484" y="-12"/>
      <point x="619" y="128"/>
      <point x="657" y="316" type="curve" smooth="yes"/>
      <point x="664" y="352"/>
      <point x="668" y="389"/>
      <point x="668" y="427" type="curve" smooth="yes"/>
      <point x="668" y="625"/>
      <point x="551" y="710"/>
      <point x="417" y="710" type="curve" smooth="yes"/>
      <point x="241" y="710"/>
      <point x="106" y="570"/>
      <point x="68" y="382" type="curve" smooth="yes"/>
      <point x="61" y="346"/>
      <point x="57" y="309"/>
      <point x="57" y="271" type="curve" smooth="yes"/>
      <point x="57" y="73"/>
      <point x="174" y="-12"/>
    </contour>
    <contour>
      <point x="318" y="117" type="curve" smooth="yes"/>
      <point x="242" y="117"/>
      <point x="204" y="161"/>
      <point x="204" y="245" type="curve" smooth="yes"/>
      <point x="204" y="259"/>
      <point x="205" y="277"/>
      <point x="209" y="297" type="curve" smooth="yes"/>
      <point x="230" y="402" type="line" smooth="yes"/>
      <point x="253" y="515"/>
      <point x="314" y="581"/>
      <point x="407" y="581" type="curve" smooth="yes"/>
      <point x="483" y="581"/>
      <point x="521" y="537"/>
      <point x="521" y="453" type="curve" smooth="yes"/>
      <point x="521" y="439"/>
      <point x="520" y="421"/>
      <point x="516" y="401" type="curve" smooth="yes"/>
      <point x="495" y="296" type="line" smooth="yes"/>
      <point x="472" y="183"/>
      <point x="411" y="117"/>
    </contour>
    <contour>
      <point x="300.0" y="0.0" type="move" name="bottom"/>
    </contour>
    <contour>
      <point x="439.0" y="698.0" type="move" name="top"/>
    </contour>
  </outline>
</glyph>
<glyph name="Q" format="1">
  <advance width="695"/>
  <unicode hex="0051"/>
  <outline>
    <contour>
      <point x="460" y="-65" type="line" name=""/>
      <point x="349" y="-65" type="line"/>
      <point x="360" y="-8" type="line"/>
      <point x="510" y="17"/>
      <point x="623" y="147"/>
      <point x="657" y="316" type="curve" smooth="yes"/>
      <point x="664" y="352"/>
      <point x="668" y="389"/>
      <point x="668" y="427" type="curve" smooth="yes"/>
      <point x="668" y="625"/>
      <point x="551" y="710"/>
      <point x="417" y="710" type="curve" smooth="yes"/>
      <point x="241" y="710"/>
      <point x="106" y="570"/>
      <point x="68" y="382" type="curve" smooth="yes"/>
      <point x="61" y="346"/>
      <point x="57" y="309"/>
      <point x="57" y="271" type="curve" smooth="yes"/>
      <point x="57" y="110"/>
      <point x="134" y="24"/>
      <point x="235" y="-3" type="curve"/>
      <point x="227" y="-40" type="line" smooth="yes"/>
      <point x="223" y="-59"/>
      <point x="220" y="-76"/>
      <point x="220" y="-93" type="curve" smooth="yes"/>
      <point x="220" y="-150"/>
      <point x="248" y="-183"/>
      <point x="328" y="-183" type="curve" smooth="yes"/>
      <point x="438" y="-183" type="line"/>
    </contour>
    <contour>
      <point x="407" y="581" type="curve" smooth="yes"/>
      <point x="483" y="581"/>
      <point x="521" y="537"/>
      <point x="521" y="453" type="curve" smooth="yes"/>
      <point x="521" y="439"/>
      <point x="520" y="421"/>
      <point x="516" y="401" type="curve" smooth="yes"/>
      <point x="495" y="296" type="line" smooth="yes"/>
      <point x="472" y="183"/>
      <point x="411" y="117"/>
      <point x="318" y="117" type="curve" smooth="yes"/>
      <point x="242" y="117"/>
      <point x="204" y="161"/>
      <point x="204" y="245" type="curve" smooth="yes"/>
      <point x="204" y="259"/>
      <point x="205" y="277"/>
      <point x="209" y="297" type="curve" smooth="yes"/>
      <point x="230" y="402" type="line" smooth="yes"/>
      <point x="253" y="515"/>
      <point x="314" y="581"/>
    </contour>
    <contour>
      <point x="439.0" y="698.0" type="move" name="top"/>
    </contour>
  </outline>
</glyph>
<glyph name="T" format="1">
  <advance width="569"/>
  <unicode hex="0054"/>
  <outline>
    <contour>
      <point x="602" y="570" type="line" name="hr00"/>
      <point x="628" y="698" type="line"/>
      <point x="115" y="698" type="line"/>
      <point x="89" y="570" type="line"/>
      <point x="273" y="570" type="line"/>
      <point x="159" y="0" type="line"/>
      <point x="304" y="0" type="line"/>
      <point x="418" y="570" type="line"/>
    </contour>
    <contour>
      <point x="231" y="0" type="move" name="bottom"/>
    </contour>
    <contour>
      <point x="371" y="698" type="move" name="top"/>
    </contour>
  </outline>
</glyph>
<glyph name="U" format="1">
  <advance width="678"/>
  <unicode hex="0055"/>
  <outline>
    <contour>
      <point x="160" y="698" type="line" name=""/>
      <point x="81" y="303" type="line" smooth="yes"/>
      <point x="74" y="269"/>
      <point x="72" y="240"/>
      <point x="72" y="214" type="curve" smooth="yes"/>
      <point x="72" y="65"/>
      <point x="156" y="-12"/>
      <point x="308" y="-12" type="curve" smooth="yes"/>
      <point x="481" y="-12"/>
      <point x="566" y="79"/>
      <point x="605" y="275" type="curve" smooth="yes"/>
      <point x="690" y="698" type="line"/>
      <point x="547" y="698" type="line"/>
      <point x="460" y="267" type="line" smooth="yes"/>
      <point x="439" y="164"/>
      <point x="394" y="117"/>
      <point x="314" y="117" type="curve" smooth="yes"/>
      <point x="247" y="117"/>
      <point x="212" y="151"/>
      <point x="212" y="217" type="curve" smooth="yes"/>
      <point x="212" y="236"/>
      <point x="215" y="262"/>
      <point x="219" y="280" type="curve" smooth="yes"/>
      <point x="303" y="698" type="line"/>
    </contour>
    <contour>
      <point x="284.0" y="0.0" type="move" name="bottom"/>
    </contour>
    <contour>
      <point x="402.0" y="0.0" type="move" name="bottomright"/>
    </contour>
    <contour>
      <point x="421.0" y="698.0" type="move" name="top"/>
    </contour>
  </outline>
</glyph>
<glyph name="V" format="1">
  <advance width="631"/>
  <unicode hex="0056"/>
  <outline>
    <contour>
      <point x="344" y="0" type="line" name=""/>
      <point x="705" y="698" type="line"/>
      <point x="551" y="698" type="line"/>
      <point x="414" y="417" type="line"/>
      <point x="295" y="154" type="line"/>
      <point x="288" y="154" type="line"/>
      <point x="271" y="417" type="line"/>
      <point x="245" y="698" type="line"/>
      <point x="99" y="698" type="line"/>
      <point x="181" y="0" type="line"/>
    </contour>
    <contour>
      <point x="264.0" y="0.0" type="move" name="bottom"/>
    </contour>
    <contour>
      <point x="402.0" y="698.0" type="move" name="top"/>
    </contour>
  </outline>
</glyph>
<glyph name="W" format="1">
  <advance width="941"/>
  <unicode hex="0057"/>
  <outline>
    <contour>
      <point x="302" y="0" type="line" name="hr00"/>
      <point x="432" y="312" type="line"/>
      <point x="521" y="536" type="line"/>
      <point x="530" y="536" type="line"/>
      <point x="530" y="291" type="line"/>
      <point x="538" y="0" type="line"/>
      <point x="706" y="0" type="line"/>
      <point x="997" y="698" type="line"/>
      <point x="851" y="698" type="line"/>
      <point x="733" y="384" type="line"/>
      <point x="646" y="134" type="line"/>
      <point x="636" y="134" type="line"/>
      <point x="643" y="416" type="line"/>
      <point x="636" y="698" type="line"/>
      <point x="477" y="698" type="line"/>
      <point x="351" y="401" type="line"/>
      <point x="254" y="144" type="line"/>
      <point x="244" y="144" type="line"/>
      <point x="255" y="419" type="line"/>
      <point x="259" y="698" type="line"/>
      <point x="116" y="698" type="line"/>
      <point x="130" y="0" type="line"/>
    </contour>
    <contour>
      <point x="420" y="0" type="move" name="bottom"/>
    </contour>
    <contour>
      <point x="557" y="698" type="move" name="top"/>
    </contour>
  </outline>
</glyph>
<glyph name="X" format="1">
  <advance width="641"/>
  <unicode hex="0058"/>
  <outline>
    <contour>
      <point x="419" y="347" type="line" name="hr00"/>
      <point x="706" y="698" type="line"/>
      <point x="538" y="698" type="line"/>
      <point x="363" y="468" type="line"/>
      <point x="355" y="468" type="line"/>
      <point x="260" y="698" type="line"/>
      <point x="104" y="698" type="line"/>
      <point x="250" y="369" type="line"/>
      <point x="-40" y="0" type="line"/>
      <point x="128" y="0" type="line"/>
      <point x="307" y="243" type="line"/>
      <point x="315" y="243" type="line"/>
      <point x="414" y="0" type="line"/>
      <point x="571" y="0" type="line"/>
    </contour>
    <contour>
      <point x="273" y="0" type="move" name="bottom"/>
    </contour>
    <contour>
      <point x="398" y="698" type="move" name="top"/>
    </contour>
  </outline>
</glyph>
<glyph name="Y" format="1">
  <advance width="624"/>
  <unicode hex="0059"/>
  <outline>
    <contour>
      <point x="330" y="0" type="line" name="hr00"/>
      <point x="382" y="258" type="line"/>
      <point x="701" y="698" type="line"/>
      <point x="541" y="698" type="line"/>
      <point x="340" y="404" type="line"/>
      <point x="333" y="404" type="line"/>
      <point x="239" y="698" type="line"/>
      <point x="91" y="698" type="line"/>
      <point x="239" y="271" type="line"/>
      <point x="185" y="0" type="line"/>
    </contour>
    <contour>
      <point x="257" y="0" type="move" name="bottom"/>
    </contour>
    <contour>
      <point x="382" y="698" type="move" name="top"/>
    </contour>
  </outline>
</glyph>
<glyph name="Z" format="1">
  <advance width="573"/>
  <unicode hex="005A"/>
  <outline>
    <contour>
      <point x="512" y="128" type="line" name="hr00"/>
      <point x="187" y="128" type="line"/>
      <point x="597" y="570" type="line"/>
      <point x="623" y="698" type="line"/>
      <point x="145" y="698" type="line"/>
      <point x="119" y="570" type="line"/>
      <point x="425" y="570" type="line"/>
      <point x="15" y="128" type="line"/>
      <point x="-11" y="0" type="line"/>
      <point x="486" y="0" type="line"/>
    </contour>
    <contour>
      <point x="245" y="0" type="move" name="bottom"/>
    </contour>
    <contour>
      <point x="381" y="698" type="move" name="top"/>
    </contour>
  </outline>
</glyph>
<glyph name="bracketleft" format="1">
  <advance width="323"/>
  <unicode hex="005B"/>
  <outline>
    <contour>
      <point x="213" y="-138" type="line" name="hr00"/>
      <point x="232" y="-41" type="line"/>
      <point x="141" y="-41" type="line"/>
      <point x="283" y="663" type="line"/>
      <point x="373" y="663" type="line"/>
      <point x="392" y="760" type="line"/>
      <point x="175" y="760" type="line"/>
      <point x="-5" y="-138" type="line"/>
    </contour>
  </outline>
</glyph>
<glyph name="backslash" format="1">
  <advance width="479"/>
  <unicode hex="005C"/>
  <outline>
    <contour>
      <point x="379" y="-151" type="line" name="hr00"/>
      <point x="262" y="740" type="line"/>
      <point x="148" y="740" type="line"/>
      <point x="265" y="-151" type="line"/>
    </contour>
  </outline>
</glyph>
<glyph name="bracketright" format="1">
  <advance width="323"/>
  <unicode hex="005D"/>
  <outline>
    <contour>
      <point x="129" y="760" type="line" name="hr00"/>
      <point x="110" y="663" type="line"/>
      <point x="201" y="663" type="line"/>
      <point x="59" y="-41" type="line"/>
      <point x="-31" y="-41" type="line"/>
      <point x="-50" y="-138" type="line"/>
      <point x="167" y="-138" type="line"/>
      <point x="347" y="760" type="line"/>
    </contour>
  </outline>
</glyph>
<glyph name="asciicircum" format="1">
  <advance width="600"/>
  <unicode hex="005E"/>
  <outline>
    <contour>
      <point x="584" y="325" type="line" name="hr00"/>
      <point x="444" y="698" type="line"/>
      <point x="313" y="698" type="line"/>
      <point x="49" y="343" type="line"/>
      <point x="154" y="280" type="line"/>
      <point x="353" y="551" type="line"/>
      <point x="364" y="551" type="line"/>
      <point x="466" y="280" type="line"/>
    </contour>
  </outline>
</glyph>
<glyph name="underscore" format="1">
  <advance width="548"/>
  <unicode hex="005F"/>
  <outline>
    <contour>
      <point x="431" y="-187" type="line" name="hr00"/>
      <point x="454" y="-68" type="line"/>
      <point x="-39" y="-68" type="line"/>
      <point x="-62" y="-187" type="line"/>
    </contour>
  </outline>
</glyph>
<glyph name="grave" format="1">
  <advance width="585"/>
  <unicode hex="0060"/>
  <outline>
    <contour>
      <point x="279" y="580" type="line" name=""/>
      <point x="368" y="619" type="line"/>
      <point x="300" y="815" type="line"/>
      <point x="174" y="756" type="line"/>
    </contour>
    <contour>
      <point x="293.0" y="540.0" type="move" name="_top"/>
    </contour>
  </outline>
</glyph>
<glyph name="b" format="1">
  <advance width="583"/>
  <unicode hex="0062"/>
  <outline>
    <contour>
      <point x="14" y="0" type="line"/>
      <point x="154" y="0" type="line"/>
      <point x="172" y="91" type="line"/>
      <point x="177" y="91" type="line"/>
      <point x="184" y="34"/>
      <point x="235" y="-12"/>
      <point x="308" y="-12" type="curve" smooth="yes" name=""/>
      <point x="415" y="-12"/>
      <point x="506" y="79"/>
      <point x="539" y="229" type="curve" smooth="yes"/>
      <point x="547" y="267"/>
      <point x="552" y="310"/>
      <point x="552" y="355" type="curve" smooth="yes"/>
      <point x="552" y="460"/>
      <point x="510" y="537"/>
      <point x="412" y="537" type="curve" smooth="yes"/>
      <point x="330" y="537"/>
      <point x="282" y="488"/>
      <point x="241" y="403" type="curve"/>
      <point x="235" y="403" type="line"/>
      <point x="302" y="740" type="line" name=""/>
      <point x="162" y="740" type="line"/>
    </contour>
    <contour>
      <point x="274" y="103" type="curve" smooth="yes" name=""/>
      <point x="216" y="103"/>
      <point x="181" y="137"/>
      <point x="192" y="190" type="curve" smooth="yes"/>
      <point x="208" y="270" type="line" smooth="yes"/>
      <point x="216" y="309"/>
      <point x="234" y="347"/>
      <point x="256" y="374" type="curve" smooth="yes"/>
      <point x="277" y="400"/>
      <point x="307" y="422"/>
      <point x="343" y="422" type="curve" smooth="yes"/>
      <point x="384" y="422"/>
      <point x="409" y="394"/>
      <point x="409" y="347" type="curve" smooth="yes"/>
      <point x="409" y="331"/>
      <point x="406" y="304"/>
      <point x="403" y="290" type="curve" smooth="yes"/>
      <point x="389" y="220" type="line" smooth="yes"/>
      <point x="373" y="141"/>
      <point x="336" y="103"/>
    </contour>
    <contour>
      <point x="283.0" y="0.0" type="move" name="bottom"/>
    </contour>
  </outline>
</glyph>
<glyph name="c" format="1">
  <advance width="494"/>
  <unicode hex="0063"/>
  <outline>
    <contour>
      <point x="237" y="-12" type="curve" smooth="yes" name=""/>
      <point x="337" y="-12"/>
      <point x="414" y="37"/>
      <point x="460" y="134" type="curve"/>
      <point x="353" y="184" type="line"/>
      <point x="324" y="134"/>
      <point x="303" y="101"/>
      <point x="249" y="101" type="curve" smooth="yes"/>
      <point x="194" y="101"/>
      <point x="170" y="134"/>
      <point x="170" y="183" type="curve" smooth="yes"/>
      <point x="170" y="197"/>
      <point x="172" y="211"/>
      <point x="175" y="225" type="curve" smooth="yes"/>
      <point x="193" y="314" type="line" smooth="yes"/>
      <point x="208" y="388"/>
      <point x="243" y="424"/>
      <point x="302" y="424" type="curve" smooth="yes"/>
      <point x="353" y="424"/>
      <point x="368" y="397"/>
      <point x="380" y="356" type="curve"/>
      <point x="498" y="401" type="line"/>
      <point x="485" y="483"/>
      <point x="410" y="537"/>
      <point x="310" y="537" type="curve" smooth="yes"/>
      <point x="175" y="537"/>
      <point x="68" y="440"/>
      <point x="39" y="296" type="curve" smooth="yes"/>
      <point x="34" y="270"/>
      <point x="31" y="243"/>
      <point x="31" y="215" type="curve" smooth="yes"/>
      <point x="31" y="52"/>
      <point x="123" y="-12"/>
    </contour>
    <contour>
      <point x="234.0" y="0.0" type="move" name="bottom"/>
    </contour>
    <contour>
      <point x="313.0" y="540.0" type="move" name="top"/>
    </contour>
  </outline>
</glyph>
<glyph name="d" format="1">
  <advance width="591"/>
  <unicode hex="0064"/>
  <outline>
    <contour>
      <point x="523" y="0" type="line"/>
      <point x="545" y="112" type="line"/>
      <point x="486" y="112" type="line"/>
      <point x="612" y="740" type="line"/>
      <point x="472" y="740" type="line"/>
      <point x="411" y="434" type="line"/>
      <point x="406" y="434" type="line"/>
      <point x="399" y="491"/>
      <point x="348" y="537"/>
      <point x="275" y="537" type="curve" smooth="yes"/>
      <point x="168" y="537"/>
      <point x="77" y="446"/>
      <point x="44" y="296" type="curve" smooth="yes"/>
      <point x="36" y="258"/>
      <point x="31" y="215"/>
      <point x="31" y="170" type="curve" smooth="yes"/>
      <point x="31" y="65"/>
      <point x="73" y="-12"/>
      <point x="171" y="-12" type="curve" smooth="yes" name="hr01"/>
      <point x="253" y="-12"/>
      <point x="301" y="37"/>
      <point x="342" y="122" type="curve"/>
      <point x="348" y="122" type="line"/>
      <point x="345" y="107" type="line" smooth="yes"/>
      <point x="344" y="102"/>
      <point x="342" y="88"/>
      <point x="342" y="77" type="curve" smooth="yes"/>
      <point x="342" y="28"/>
      <point x="380" y="0"/>
      <point x="430" y="0" type="curve" smooth="yes" name="hr02"/>
    </contour>
    <contour>
      <point x="240" y="103" type="curve" smooth="yes" name="hr03"/>
      <point x="199" y="103"/>
      <point x="174" y="131"/>
      <point x="174" y="178" type="curve" smooth="yes"/>
      <point x="174" y="194"/>
      <point x="177" y="221"/>
      <point x="180" y="235" type="curve" smooth="yes"/>
      <point x="194" y="305" type="line" smooth="yes"/>
      <point x="210" y="384"/>
      <point x="247" y="422"/>
      <point x="309" y="422" type="curve" smooth="yes"/>
      <point x="367" y="422"/>
      <point x="402" y="388"/>
      <point x="391" y="335" type="curve" smooth="yes"/>
      <point x="375" y="255" type="line" smooth="yes"/>
      <point x="367" y="216"/>
      <point x="349" y="178"/>
      <point x="327" y="151" type="curve" smooth="yes"/>
      <point x="306" y="125"/>
      <point x="276" y="103"/>
    </contour>
    <contour>
      <point x="233" y="0" type="move" name="bottom"/>
    </contour>
    <contour>
      <point x="668" y="740" type="move" name="topright"/>
    </contour>
  </outline>
</glyph>
<glyph name="e" format="1">
  <advance width="515"/>
  <unicode hex="0065"/>
  <outline>
    <contour>
      <point x="253" y="-12" type="curve" smooth="yes" name=""/>
      <point x="343" y="-12"/>
      <point x="412" y="20"/>
      <point x="477" y="106" type="curve"/>
      <point x="391" y="174" type="line"/>
      <point x="344" y="115"/>
      <point x="309" y="101"/>
      <point x="263" y="101" type="curve" smooth="yes"/>
      <point x="194" y="101"/>
      <point x="170" y="135"/>
      <point x="170" y="185" type="curve" smooth="yes"/>
      <point x="170" y="190"/>
      <point x="170" y="196"/>
      <point x="172" y="208" type="curve"/>
      <point x="407" y="215"/>
      <point x="504" y="283"/>
      <point x="504" y="391" type="curve" smooth="yes"/>
      <point x="504" y="505"/>
      <point x="395" y="537"/>
      <point x="316" y="537" type="curve" smooth="yes"/>
      <point x="168" y="537"/>
      <point x="65" y="424"/>
      <point x="38" y="287" type="curve" smooth="yes"/>
      <point x="33" y="263"/>
      <point x="31" y="239"/>
      <point x="31" y="214" type="curve" smooth="yes"/>
      <point x="31" y="75"/>
      <point x="104" y="-12"/>
    </contour>
    <contour>
      <point x="308" y="430" type="curve" smooth="yes"/>
      <point x="333" y="430"/>
      <point x="368" y="422"/>
      <point x="368" y="377" type="curve" smooth="yes"/>
      <point x="368" y="335"/>
      <point x="337" y="306"/>
      <point x="187" y="297" type="curve"/>
      <point x="191" y="320" type="line" smooth="yes"/>
      <point x="203" y="388"/>
      <point x="249" y="430"/>
    </contour>
    <contour>
      <point x="234.0" y="0.0" type="move" name="bottom"/>
    </contour>
    <contour>
      <point x="337.0" y="0.0" type="move" name="bottomright"/>
    </contour>
    <contour>
      <point x="323.0" y="540.0" type="move" name="top"/>
    </contour>
  </outline>
</glyph>
<glyph name="j" format="1">
  <advance width="276"/>
  <unicode hex="006A"/>
  <outline>
    <contour>
      <point x="0" y="-88" type="line" name="hr01"/>
      <point x="-75" y="-88" type="line"/>
      <point x="-97" y="-200" type="line"/>
      <point x="-18" y="-200" type="line" smooth="yes"/>
      <point x="79" y="-200"/>
      <point x="126" y="-152"/>
      <point x="144" y="-61" type="curve" smooth="yes"/>
      <point x="263" y="525" type="line"/>
      <point x="123" y="525" type="line"/>
    </contour>
    <contour>
      <point x="206" y="583" type="curve" smooth="yes"/>
      <point x="273" y="583"/>
      <point x="293" y="620"/>
      <point x="302" y="655" type="curve" smooth="yes"/>
      <point x="305" y="667"/>
      <point x="308" y="683"/>
      <point x="308" y="695" type="curve" smooth="yes"/>
      <point x="308" y="727"/>
      <point x="285" y="747"/>
      <point x="236" y="747" type="curve" smooth="yes"/>
      <point x="169" y="747"/>
      <point x="149" y="710"/>
      <point x="140" y="675" type="curve" smooth="yes"/>
      <point x="137" y="663"/>
      <point x="134" y="647"/>
      <point x="134" y="635" type="curve" smooth="yes"/>
      <point x="134" y="603"/>
      <point x="157" y="583"/>
    </contour>
  </outline>
</glyph>
<glyph name="k" format="1">
  <advance width="550"/>
  <unicode hex="006B"/>
  <outline>
    <contour>
      <point x="14" y="0" type="line" name=""/>
      <point x="154" y="0" type="line"/>
      <point x="182" y="142" type="line"/>
      <point x="261" y="216" type="line"/>
      <point x="305" y="79" type="line" smooth="yes"/>
      <point x="322" y="26"/>
      <point x="355" y="0"/>
      <point x="404" y="0" type="curve" smooth="yes"/>
      <point x="479" y="0" type="line"/>
      <point x="503" y="112" type="line"/>
      <point x="442" y="112" type="line"/>
      <point x="370" y="312" type="line"/>
      <point x="583" y="525" type="line"/>
      <point x="420" y="525" type="line"/>
      <point x="294" y="395" type="line"/>
      <point x="222" y="305" type="line"/>
      <point x="215" y="305" type="line"/>
      <point x="233" y="395" type="line"/>
      <point x="302" y="740" type="line"/>
      <point x="162" y="740" type="line"/>
    </contour>
    <contour>
      <point x="252.0" y="0.0" type="move" name="bottom"/>
    </contour>
  </outline>
</glyph>
<glyph name="o" format="1">
  <advance width="542"/>
  <unicode hex="006F"/>
  <outline>
    <contour>
      <point x="240" y="-12" type="curve" smooth="yes"/>
      <point x="372" y="-12"/>
      <point x="474" y="88"/>
      <point x="503" y="233" type="curve" smooth="yes"/>
      <point x="508" y="260"/>
      <point x="511" y="288"/>
      <point x="511" y="318" type="curve" smooth="yes"/>
      <point x="511" y="456"/>
      <point x="430" y="537"/>
      <point x="302" y="537" type="curve" smooth="yes" name=""/>
      <point x="170" y="537"/>
      <point x="68" y="437"/>
      <point x="39" y="292" type="curve" smooth="yes"/>
      <point x="34" y="265"/>
      <point x="31" y="237"/>
      <point x="31" y="207" type="curve" smooth="yes"/>
      <point x="31" y="69"/>
      <point x="112" y="-12"/>
    </contour>
    <contour>
      <point x="245" y="101" type="curve" smooth="yes"/>
      <point x="196" y="101"/>
      <point x="170" y="134"/>
      <point x="170" y="184" type="curve" smooth="yes"/>
      <point x="170" y="197"/>
      <point x="172" y="209"/>
      <point x="173" y="215" type="curve" smooth="yes"/>
      <point x="192" y="309" type="line" smooth="yes"/>
      <point x="207" y="384"/>
      <point x="244" y="424"/>
      <point x="297" y="424" type="curve" smooth="yes"/>
      <point x="346" y="424"/>
      <point x="372" y="391"/>
      <point x="372" y="341" type="curve" smooth="yes"/>
      <point x="372" y="328"/>
      <point x="370" y="316"/>
      <point x="369" y="310" type="curve" smooth="yes"/>
      <point x="350" y="216" type="line" smooth="yes"/>
      <point x="335" y="141"/>
      <point x="298" y="101"/>
    </contour>
    <contour>
      <point x="228.0" y="0.0" type="move" name="bottom"/>
    </contour>
    <contour>
      <point x="317.0" y="540.0" type="move" name="top"/>
    </contour>
  </outline>
</glyph>
<glyph name="p" format="1">
  <advance width="583"/>
  <unicode hex="0070"/>
  <outline>
    <contour>
      <point x="-26" y="-200" type="line"/>
      <point x="114" y="-200" type="line"/>
      <point x="172" y="91" type="line"/>
      <point x="177" y="91" type="line"/>
      <point x="184" y="34"/>
      <point x="235" y="-12"/>
      <point x="308" y="-12" type="curve" smooth="yes"/>
      <point x="417" y="-12"/>
      <point x="510" y="83"/>
      <point x="541" y="238" type="curve" smooth="yes"/>
      <point x="548" y="274"/>
      <point x="552" y="313"/>
      <point x="552" y="355" type="curve" smooth="yes"/>
      <point x="552" y="460"/>
      <point x="510" y="537"/>
      <point x="412" y="537" type="curve" smooth="yes"/>
      <point x="330" y="537"/>
      <point x="282" y="488"/>
      <point x="241" y="403" type="curve"/>
      <point x="235" y="403" type="line"/>
      <point x="259" y="525" type="line" name="hr01"/>
      <point x="119" y="525" type="line"/>
    </contour>
    <contour>
      <point x="274" y="103" type="curve" smooth="yes"/>
      <point x="216" y="103"/>
      <point x="181" y="137"/>
      <point x="192" y="190" type="curve" smooth="yes"/>
      <point x="208" y="270" type="line" smooth="yes"/>
      <point x="216" y="309"/>
      <point x="234" y="347"/>
      <point x="256" y="374" type="curve" smooth="yes"/>
      <point x="277" y="400"/>
      <point x="307" y="422"/>
      <point x="343" y="422" type="curve" smooth="yes" name="hr02"/>
      <point x="384" y="422"/>
      <point x="409" y="394"/>
      <point x="409" y="347" type="curve" smooth="yes"/>
      <point x="409" y="331"/>
      <point x="406" y="304"/>
      <point x="403" y="290" type="curve" smooth="yes"/>
      <point x="389" y="220" type="line" smooth="yes"/>
      <point x="373" y="141"/>
      <point x="336" y="103"/>
    </contour>
    <contour>
      <point x="371" y="540" type="move" name="top"/>
    </contour>
  </outline>
</glyph>
<glyph name="q" format="1">
  <advance width="583"/>
  <unicode hex="0071"/>
  <outline>
    <contour>
      <point x="284" y="-200" type="line"/>
      <point x="424" y="-200" type="line"/>
      <point x="569" y="525" type="line"/>
      <point x="429" y="525" type="line"/>
      <point x="411" y="434" type="line"/>
      <point x="406" y="434" type="line"/>
      <point x="399" y="491"/>
      <point x="348" y="537"/>
      <point x="275" y="537" type="curve" smooth="yes" name=""/>
      <point x="166" y="537"/>
      <point x="73" y="442"/>
      <point x="42" y="287" type="curve" smooth="yes"/>
      <point x="35" y="251"/>
      <point x="31" y="212"/>
      <point x="31" y="170" type="curve" smooth="yes"/>
      <point x="31" y="65"/>
      <point x="73" y="-12"/>
      <point x="171" y="-12" type="curve" smooth="yes"/>
      <point x="253" y="-12"/>
      <point x="301" y="37"/>
      <point x="342" y="122" type="curve"/>
      <point x="348" y="122" type="line"/>
    </contour>
    <contour>
      <point x="240" y="103" type="curve" smooth="yes"/>
      <point x="199" y="103"/>
      <point x="174" y="131"/>
      <point x="174" y="178" type="curve" smooth="yes"/>
      <point x="174" y="194"/>
      <point x="177" y="221"/>
      <point x="180" y="235" type="curve" smooth="yes"/>
      <point x="194" y="305" type="line" smooth="yes"/>
      <point x="210" y="384"/>
      <point x="247" y="422"/>
      <point x="309" y="422" type="curve" smooth="yes"/>
      <point x="367" y="422"/>
      <point x="402" y="388"/>
      <point x="391" y="335" type="curve" smooth="yes"/>
      <point x="375" y="255" type="line" smooth="yes"/>
      <point x="367" y="216"/>
      <point x="349" y="178"/>
      <point x="327" y="151" type="curve" smooth="yes"/>
      <point x="306" y="125"/>
      <point x="276" y="103"/>
    </contour>
    <contour>
      <point x="319.0" y="540.0" type="move" name="top"/>
    </contour>
  </outline>
</glyph>
<glyph name="t" format="1">
  <advance width="354"/>
  <unicode hex="0074"/>
  <outline>
    <contour>
      <point x="270" y="0" type="line" name=""/>
      <point x="292" y="112" type="line"/>
      <point x="197" y="112" type="line"/>
      <point x="257" y="413" type="line"/>
      <point x="362" y="413" type="line"/>
      <point x="385" y="525" type="line"/>
      <point x="280" y="525" type="line"/>
      <point x="308" y="667" type="line"/>
      <point x="178" y="667" type="line"/>
      <point x="160" y="578" type="line" smooth="yes"/>
      <point x="153" y="542"/>
      <point x="144" y="525"/>
      <point x="101" y="525" type="curve" smooth="yes"/>
      <point x="65" y="525" type="line"/>
      <point x="43" y="413" type="line"/>
      <point x="117" y="413" type="line"/>
      <point x="63" y="142" type="line" smooth="yes"/>
      <point x="60" y="127"/>
      <point x="59" y="109"/>
      <point x="59" y="99" type="curve" smooth="yes"/>
      <point x="59" y="33"/>
      <point x="101" y="0"/>
      <point x="182" y="0" type="curve" smooth="yes"/>
    </contour>
    <contour>
      <point x="150.0" y="0.0" type="move" name="bottom"/>
    </contour>
    <contour>
      <point x="381.0" y="791.0" type="move" name="topright"/>
    </contour>
  </outline>
</glyph>
<glyph name="u" format="1">
  <advance width="582"/>
  <unicode hex="0075"/>
  <outline>
    <contour>
      <point x="114" y="525" type="line"/>
      <point x="49" y="200" type="line" smooth="yes"/>
      <point x="44" y="173"/>
      <point x="40" y="150"/>
      <point x="40" y="124" type="curve" smooth="yes"/>
      <point x="40" y="38"/>
      <point x="85" y="-12"/>
      <point x="164" y="-12" type="curve" smooth="yes"/>
      <point x="244" y="-12"/>
      <point x="294" y="40"/>
      <point x="333" y="122" type="curve"/>
      <point x="339" y="122" type="line"/>
      <point x="336" y="107" type="line" smooth="yes"/>
      <point x="335" y="102"/>
      <point x="333" y="88"/>
      <point x="333" y="77" type="curve" smooth="yes"/>
      <point x="333" y="28"/>
      <point x="371" y="0"/>
      <point x="421" y="0" type="curve" smooth="yes" name="hr01"/>
      <point x="514" y="0" type="line"/>
      <point x="536" y="112" type="line"/>
      <point x="477" y="112" type="line"/>
      <point x="560" y="525" type="line"/>
      <point x="420" y="525" type="line"/>
      <point x="366" y="255" type="line" smooth="yes"/>
      <point x="358" y="215"/>
      <point x="341" y="181"/>
      <point x="318" y="153" type="curve" smooth="yes"/>
      <point x="295" y="125"/>
      <point x="268" y="105"/>
      <point x="234" y="105" type="curve" smooth="yes" name="hr02"/>
      <point x="200" y="105"/>
      <point x="185" y="126"/>
      <point x="185" y="160" type="curve" smooth="yes"/>
      <point x="185" y="175"/>
      <point x="188" y="194"/>
      <point x="192" y="213" type="curve" smooth="yes"/>
      <point x="254" y="525" type="line"/>
    </contour>
    <contour>
      <point x="250" y="0" type="move" name="bottom"/>
    </contour>
    <contour>
      <point x="514" y="0" type="move" name="bottomright"/>
    </contour>
    <contour>
      <point x="336" y="540" type="move" name="top"/>
    </contour>
  </outline>
</glyph>
<glyph name="v" format="1">
  <advance width="512"/>
  <unicode hex="0076"/>
  <outline>
    <contour>
      <point x="281" y="0" type="line" name="hr00"/>
      <point x="554" y="525" type="line"/>
      <point x="405" y="525" type="line"/>
      <point x="312" y="327" type="line"/>
      <point x="224" y="125" type="line"/>
      <point x="217" y="125" type="line"/>
      <point x="202" y="327" type="line"/>
      <point x="185" y="525" type="line"/>
      <point x="46" y="525" type="line"/>
      <point x="111" y="0" type="line"/>
    </contour>
    <contour>
      <point x="195" y="0" type="move" name="bottom"/>
    </contour>
    <contour>
      <point x="302" y="540" type="move" name="top"/>
    </contour>
  </outline>
</glyph>
<glyph name="w" format="1">
  <advance width="791"/>
  <unicode hex="0077"/>
  <outline>
    <contour>
      <point x="94" y="0" type="line" name="hr00"/>
      <point x="243" y="0" type="line"/>
      <point x="334" y="198" type="line"/>
      <point x="402" y="349" type="line"/>
      <point x="408" y="349" type="line"/>
      <point x="421" y="175" type="line"/>
      <point x="436" y="0" type="line"/>
      <point x="583" y="0" type="line"/>
      <point x="823" y="525" type="line"/>
      <point x="685" y="525" type="line"/>
      <point x="595" y="309" type="line"/>
      <point x="533" y="150" type="line"/>
      <point x="527" y="150" type="line"/>
      <point x="516" y="335" type="line"/>
      <point x="502" y="525" type="line"/>
      <point x="372" y="525" type="line"/>
      <point x="274" y="309" type="line"/>
      <point x="209" y="157" type="line"/>
      <point x="203" y="157" type="line"/>
      <point x="200" y="335" type="line"/>
      <point x="193" y="525" type="line"/>
      <point x="54" y="525" type="line"/>
    </contour>
    <contour>
      <point x="339" y="0" type="move" name="bottom"/>
    </contour>
    <contour>
      <point x="440" y="540" type="move" name="top"/>
    </contour>
  </outline>
</glyph>
<glyph name="z" format="1">
  <advance width="492"/>
  <unicode hex="007A"/>
  <outline>
    <contour>
      <point x="414" y="0" type="line" name="hr00"/>
      <point x="436" y="112" type="line"/>
      <point x="178" y="112" type="line"/>
      <point x="485" y="413" type="line"/>
      <point x="507" y="525" type="line"/>
      <point x="98" y="525" type="line"/>
      <point x="76" y="413" type="line"/>
      <point x="317" y="413" type="line"/>
      <point x="11" y="112" type="line"/>
      <point x="-11" y="0" type="line"/>
    </contour>
    <contour>
      <point x="197" y="0" type="move" name="bottom"/>
    </contour>
    <contour>
      <point x="299" y="540" type="move" name="top"/>
    </contour>
  </outline>
</glyph>
<glyph name="bar" format="1">
  <advance width="395"/>
  <unicode hex="007C"/>
  <outline>
    <contour>
      <point x="180" y="-138" type="line" name="hr00"/>
      <point x="360" y="760" type="line"/>
      <point x="234" y="760" type="line"/>
      <point x="54" y="-138" type="line"/>
    </contour>
  </outline>
</glyph>
<glyph name="braceright" format="1">
  <advance width="361"/>
  <unicode hex="007D"/>
  <outline>
    <contour>
      <point x="-47" y="-138" type="line" name="hr01"/>
      <point x="70" y="-138" type="line" smooth="yes"/>
      <point x="125" y="-138"/>
      <point x="167" y="-104"/>
      <point x="180" y="-39" type="curve" smooth="yes"/>
      <point x="221" y="166" type="line" smooth="yes"/>
      <point x="233" y="226"/>
      <point x="273" y="254"/>
      <point x="333" y="254" type="curve"/>
      <point x="356" y="367" type="line"/>
      <point x="304" y="367"/>
      <point x="279" y="392"/>
      <point x="279" y="441" type="curve" smooth="yes"/>
      <point x="279" y="451"/>
      <point x="280" y="461"/>
      <point x="282" y="471" type="curve" smooth="yes"/>
      <point x="320" y="661" type="line" smooth="yes"/>
      <point x="321" y="666"/>
      <point x="322" y="677"/>
      <point x="322" y="685" type="curve" smooth="yes"/>
      <point x="322" y="733"/>
      <point x="289" y="760"/>
      <point x="241" y="760" type="curve" smooth="yes"/>
      <point x="133" y="760" type="line"/>
      <point x="112" y="656" type="line"/>
      <point x="189" y="656" type="line"/>
      <point x="146" y="441" type="line" smooth="yes"/>
      <point x="144" y="431"/>
      <point x="142" y="420"/>
      <point x="142" y="411" type="curve" smooth="yes"/>
      <point x="142" y="358"/>
      <point x="178" y="322"/>
      <point x="223" y="313" type="curve"/>
      <point x="223" y="309" type="line"/>
      <point x="144" y="305"/>
      <point x="107" y="246"/>
      <point x="95" y="186" type="curve" smooth="yes"/>
      <point x="51" y="-34" type="line"/>
      <point x="-26" y="-34" type="line"/>
    </contour>
  </outline>
</glyph>
<glyph name="exclamdown" format="1">
  <advance width="314"/>
  <unicode hex="00A1"/>
  <outline>
    <contour>
      <point x="147" y="-173" type="line" name="hr01"/>
      <point x="186" y="21" type="line"/>
      <point x="195" y="305" type="line"/>
      <point x="132" y="305" type="line"/>
      <point x="30" y="21" type="line"/>
      <point x="-9" y="-173" type="line"/>
    </contour>
    <contour>
      <point x="175" y="361" type="curve" smooth="yes"/>
      <point x="235" y="361"/>
      <point x="267" y="391"/>
      <point x="276" y="437" type="curve" smooth="yes"/>
      <point x="282" y="466"/>
      <point x="282" y="473"/>
      <point x="282" y="479" type="curve" smooth="yes"/>
      <point x="282" y="512"/>
      <point x="261" y="537"/>
      <point x="205" y="537" type="curve" smooth="yes"/>
      <point x="145" y="537"/>
      <point x="113" y="507"/>
      <point x="104" y="461" type="curve" smooth="yes"/>
      <point x="98" y="432"/>
      <point x="98" y="425"/>
      <point x="98" y="419" type="curve" smooth="yes"/>
      <point x="98" y="386"/>
      <point x="119" y="361"/>
    </contour>
  </outline>
</glyph>
<glyph name="cent" format="1">
  <advance width="532"/>
  <unicode hex="00A2"/>
  <outline>
    <contour>
      <point x="160" y="-114" type="line" name=""/>
      <point x="270" y="-114" type="line"/>
      <point x="291" y="-8" type="line"/>
      <point x="378" y="5"/>
      <point x="439" y="50"/>
      <point x="483" y="114" type="curve"/>
      <point x="391" y="173" type="line"/>
      <point x="369" y="142"/>
      <point x="339" y="115"/>
      <point x="303" y="103" type="curve"/>
      <point x="365" y="412" type="line"/>
      <point x="394" y="400"/>
      <point x="412" y="375"/>
      <point x="419" y="346" type="curve"/>
      <point x="527" y="399" type="line"/>
      <point x="511" y="457"/>
      <point x="464" y="504"/>
      <point x="396" y="521" type="curve"/>
      <point x="418" y="630" type="line"/>
      <point x="308" y="630" type="line"/>
      <point x="287" y="525" type="line"/>
      <point x="152" y="506"/>
      <point x="62" y="408"/>
      <point x="39" y="286" type="curve" smooth="yes"/>
      <point x="35" y="265"/>
      <point x="33" y="244"/>
      <point x="33" y="222" type="curve" smooth="yes"/>
      <point x="33" y="101"/>
      <point x="92" y="20"/>
      <point x="182" y="-4" type="curve"/>
    </contour>
    <contour>
      <point x="168" y="186" type="curve" smooth="yes"/>
      <point x="168" y="195"/>
      <point x="169" y="203"/>
      <point x="171" y="213" type="curve" smooth="yes"/>
      <point x="189" y="303" type="line" smooth="yes"/>
      <point x="199" y="355"/>
      <point x="230" y="393"/>
      <point x="274" y="410" type="curve"/>
      <point x="213" y="106" type="line"/>
      <point x="183" y="120"/>
      <point x="168" y="148"/>
    </contour>
  </outline>
</glyph>
<glyph name="sterling" format="1">
  <advance width="591"/>
  <unicode hex="00A3"/>
  <outline>
    <contour>
      <point x="503" y="0" type="line" name=""/>
      <point x="528" y="125" type="line"/>
      <point x="203" y="125" type="line"/>
      <point x="205" y="134" type="line"/>
      <point x="249" y="156"/>
      <point x="304" y="215"/>
      <point x="304" y="288" type="curve" smooth="yes"/>
      <point x="304" y="289"/>
      <point x="304" y="290"/>
      <point x="304" y="291" type="curve"/>
      <point x="455" y="291" type="line"/>
      <point x="479" y="408" type="line"/>
      <point x="288" y="408" type="line"/>
      <point x="286" y="420"/>
      <point x="285" y="433"/>
      <point x="285" y="447" type="curve" smooth="yes"/>
      <point x="285" y="529"/>
      <point x="327" y="582"/>
      <point x="399" y="582" type="curve" smooth="yes"/>
      <point x="453" y="582"/>
      <point x="486" y="563"/>
      <point x="512" y="514" type="curve"/>
      <point x="627" y="590" type="line"/>
      <point x="580" y="670"/>
      <point x="515" y="710"/>
      <point x="410" y="710" type="curve" smooth="yes"/>
      <point x="248" y="710"/>
      <point x="141" y="597"/>
      <point x="141" y="455" type="curve" smooth="yes"/>
      <point x="141" y="438"/>
      <point x="142" y="423"/>
      <point x="144" y="408" type="curve"/>
      <point x="80" y="408" type="line"/>
      <point x="56" y="291" type="line"/>
      <point x="159" y="291" type="line"/>
      <point x="159" y="290"/>
      <point x="159" y="289"/>
      <point x="159" y="288" type="curve" smooth="yes"/>
      <point x="158" y="220"/>
      <point x="120" y="161"/>
      <point x="57" y="134" type="curve"/>
      <point x="30" y="0" type="line"/>
    </contour>
  </outline>
</glyph>
<glyph name="yen" format="1">
  <advance width="626"/>
  <unicode hex="00A5"/>
  <outline>
    <contour>
      <point x="524" y="134" type="line" name="hr00"/>
      <point x="542" y="222" type="line"/>
      <point x="378" y="222" type="line"/>
      <point x="392" y="293" type="line"/>
      <point x="556" y="293" type="line"/>
      <point x="574" y="381" type="line"/>
      <point x="469" y="381" type="line"/>
      <point x="698" y="698" type="line"/>
      <point x="530" y="698" type="line"/>
      <point x="346" y="426" type="line"/>
      <point x="342" y="426" type="line"/>
      <point x="263" y="698" type="line"/>
      <point x="108" y="698" type="line"/>
      <point x="207" y="381" type="line"/>
      <point x="102" y="381" type="line"/>
      <point x="84" y="293" type="line"/>
      <point x="245" y="293" type="line"/>
      <point x="231" y="222" type="line"/>
      <point x="70" y="222" type="line"/>
      <point x="52" y="134" type="line"/>
      <point x="213" y="134" type="line"/>
      <point x="187" y="0" type="line"/>
      <point x="333" y="0" type="line"/>
      <point x="360" y="134" type="line"/>
    </contour>
  </outline>
</glyph>
<glyph name="copyright" format="1">
  <advance width="771"/>
  <unicode hex="00A9"/>
  <outline>
    <contour>
      <point x="353" y="51" type="curve" smooth="yes"/>
      <point x="223" y="51"/>
      <point x="130" y="145"/>
      <point x="130" y="293" type="curve" smooth="yes"/>
      <point x="130" y="318"/>
      <point x="136" y="358"/>
      <point x="145" y="401" type="curve" smooth="yes"/>
      <point x="171" y="537"/>
      <point x="299" y="647"/>
      <point x="448" y="647" type="curve" smooth="yes"/>
      <point x="578" y="647"/>
      <point x="671" y="553"/>
      <point x="671" y="405" type="curve" smooth="yes"/>
      <point x="671" y="380"/>
      <point x="665" y="340"/>
      <point x="656" y="297" type="curve" smooth="yes"/>
      <point x="630" y="161"/>
      <point x="502" y="51"/>
    </contour>
    <contour>
      <point x="349" y="-12" type="curve" smooth="yes"/>
      <point x="545" y="-12"/>
      <point x="699" y="124"/>
      <point x="735" y="317" type="curve" smooth="yes"/>
      <point x="740" y="345"/>
      <point x="743" y="375"/>
      <point x="743" y="405" type="curve" smooth="yes"/>
      <point x="743" y="585"/>
      <point x="627" y="710"/>
      <point x="452" y="710" type="curve" smooth="yes" name=""/>
      <point x="256" y="710"/>
      <point x="102" y="574"/>
      <point x="66" y="381" type="curve" smooth="yes"/>
      <point x="61" y="353"/>
      <point x="58" y="323"/>
      <point x="58" y="293" type="curve" smooth="yes"/>
      <point x="58" y="113"/>
      <point x="174" y="-12"/>
    </contour>
    <contour>
      <point x="382" y="134" type="curve" smooth="yes"/>
      <point x="478" y="134"/>
      <point x="536" y="186"/>
      <point x="570" y="244" type="curve"/>
      <point x="480" y="290" type="line"/>
      <point x="460" y="259"/>
      <point x="435" y="234"/>
      <point x="398" y="234" type="curve" smooth="yes"/>
      <point x="356" y="234"/>
      <point x="333" y="258"/>
      <point x="333" y="292" type="curve" smooth="yes"/>
      <point x="333" y="300"/>
      <point x="333" y="307"/>
      <point x="335" y="317" type="curve" smooth="yes"/>
      <point x="350" y="394" type="line" smooth="yes"/>
      <point x="358" y="434"/>
      <point x="385" y="463"/>
      <point x="430" y="463" type="curve" smooth="yes"/>
      <point x="469" y="463"/>
      <point x="488" y="440"/>
      <point x="496" y="406" type="curve"/>
      <point x="595" y="450" type="line"/>
      <point x="574" y="516"/>
      <point x="529" y="564"/>
      <point x="429" y="564" type="curve" smooth="yes"/>
      <point x="320" y="564"/>
      <point x="233" y="476"/>
      <point x="210" y="369" type="curve" smooth="yes"/>
      <point x="206" y="351"/>
      <point x="204" y="332"/>
      <point x="204" y="313" type="curve" smooth="yes"/>
      <point x="204" y="205"/>
      <point x="275" y="134"/>
    </contour>
  </outline>
</glyph>
<glyph name="ordfeminine" format="1">
  <advance width="444"/>
  <unicode hex="00AA"/>
  <outline>
    <contour>
      <point x="430" y="404" type="line"/>
      <point x="391" y="404" type="line"/>
      <point x="424" y="569" type="line" smooth="yes"/>
      <point x="426" y="579"/>
      <point x="427" y="588"/>
      <point x="427" y="598" type="curve" smooth="yes"/>
      <point x="427" y="668"/>
      <point x="366" y="704"/>
      <point x="282" y="704" type="curve" smooth="yes"/>
      <point x="204" y="704"/>
      <point x="156" y="673"/>
      <point x="122" y="631" type="curve"/>
      <point x="179" y="583" type="line"/>
      <point x="204" y="609"/>
      <point x="226" y="629"/>
      <point x="267" y="629" type="curve" smooth="yes"/>
      <point x="304" y="629"/>
      <point x="322" y="612"/>
      <point x="322" y="583" type="curve" smooth="yes"/>
      <point x="322" y="577"/>
      <point x="321" y="574"/>
      <point x="319" y="564" type="curve" smooth="yes"/>
      <point x="315" y="544" type="line"/>
      <point x="250" y="544" type="line" smooth="yes"/>
      <point x="136.0" y="544"/>
      <point x="78.0" y="497"/>
      <point x="78" y="420" type="curve" smooth="yes"/>
      <point x="78.0" y="358"/>
      <point x="125" y="324"/>
      <point x="181" y="324" type="curve" smooth="yes" name=""/>
      <point x="231" y="324.0"/>
      <point x="271" y="349"/>
      <point x="292" y="394" type="curve"/>
      <point x="327" y="394" type="line"/>
      <point x="296" y="428" type="line"/>
      <point x="296" y="400" type="line" smooth="yes"/>
      <point x="296" y="395"/>
      <point x="296" y="389"/>
      <point x="296" y="384" type="curve" smooth="yes"/>
      <point x="296" y="349"/>
      <point x="318" y="330"/>
      <point x="356" y="330" type="curve" smooth="yes" name=""/>
      <point x="415" y="330" type="line"/>
    </contour>
    <contour>
      <point x="304" y="489" type="line"/>
      <point x="295" y="446" type="line" smooth="yes"/>
      <point x="288" y="411"/>
      <point x="260.0" y="391.0"/>
      <point x="225" y="391" type="curve" smooth="yes" name=""/>
      <point x="198.0" y="391.0"/>
      <point x="179.0" y="403"/>
      <point x="179" y="424" type="curve" smooth="yes"/>
      <point x="179" y="427"/>
      <point x="179" y="435"/>
      <point x="181" y="445" type="curve" smooth="yes"/>
      <point x="187" y="476"/>
      <point x="210.0" y="489"/>
      <point x="247" y="489" type="curve" smooth="yes"/>
    </contour>
  </outline>
</glyph>
<glyph name="logicalnot" format="1">
  <advance width="600"/>
  <unicode hex="00AC"/>
  <outline>
    <contour>
      <point x="477" y="79" type="line" name="hr00"/>
      <point x="534" y="364" type="line"/>
      <point x="89" y="364" type="line"/>
      <point x="66" y="248" type="line"/>
      <point x="392" y="248" type="line"/>
      <point x="358" y="79" type="line"/>
    </contour>
  </outline>
</glyph>
<glyph name="macron" format="1">
  <advance width="585"/>
  <unicode hex="00AF"/>
  <outline>
    <contour>
      <point x="171" y="625" type="line" name=""/>
      <point x="449" y="625" type="line"/>
      <point x="469" y="727" type="line"/>
      <point x="191" y="727" type="line"/>
    </contour>
    <contour>
      <point x="293.0" y="540.0" type="move" name="_top"/>
    </contour>
  </outline>
</glyph>
<glyph name="acute" format="1">
  <advance width="585"/>
  <unicode hex="00B4"/>
  <outline>
    <contour>
      <point x="468" y="755" type="line" name="hr00"/>
      <point x="356" y="815" type="line"/>
      <point x="237" y="625" type="line"/>
      <point x="321" y="579" type="line"/>
    </contour>
    <contour>
      <point x="293" y="540" type="move" name="_top"/>
    </contour>
  </outline>
</glyph>
<glyph name="mu" format="1">
  <advance width="587"/>
  <unicode hex="00B5"/>
  <outline>
    <contour>
      <point x="114" y="-200" type="line"/>
      <point x="133" y="-103" type="line"/>
      <point x="128" y="44" type="line"/>
      <point x="133" y="44" type="line"/>
      <point x="141" y="8"/>
      <point x="163" y="-12"/>
      <point x="197" y="-12" type="curve" smooth="yes"/>
      <point x="251" y="-12"/>
      <point x="290" y="20"/>
      <point x="338" y="122" type="curve"/>
      <point x="344" y="122" type="line"/>
      <point x="341" y="107" type="line" smooth="yes"/>
      <point x="340" y="102"/>
      <point x="338" y="88"/>
      <point x="338" y="77" type="curve" smooth="yes"/>
      <point x="338" y="28"/>
      <point x="376" y="0"/>
      <point x="426" y="0" type="curve" smooth="yes" name=""/>
      <point x="519" y="0" type="line"/>
      <point x="541" y="112" type="line"/>
      <point x="482" y="112" type="line"/>
      <point x="565" y="525" type="line"/>
      <point x="425" y="525" type="line"/>
      <point x="371" y="255" type="line" smooth="yes"/>
      <point x="363" y="215"/>
      <point x="346" y="181"/>
      <point x="323" y="153" type="curve" smooth="yes"/>
      <point x="300" y="125"/>
      <point x="273" y="105"/>
      <point x="239" y="105" type="curve" smooth="yes" name=""/>
      <point x="205" y="105"/>
      <point x="190" y="126"/>
      <point x="190" y="160" type="curve" smooth="yes"/>
      <point x="190" y="175"/>
      <point x="193" y="196"/>
      <point x="197" y="215" type="curve" smooth="yes"/>
      <point x="259" y="525" type="line"/>
      <point x="119" y="525" type="line"/>
      <point x="-26" y="-200" type="line"/>
    </contour>
  </outline>
</glyph>
<glyph name="onesuperior" format="1">
  <advance width="344"/>
  <unicode hex="00B9"/>
  <outline>
    <contour>
      <point x="317" y="329" type="line" name="hr00"/>
      <point x="332" y="405" type="line"/>
      <point x="259" y="405" type="line"/>
      <point x="318" y="698" type="line"/>
      <point x="162" y="698" type="line"/>
      <point x="70" y="591" type="line"/>
      <point x="129" y="542" type="line"/>
      <point x="201" y="625" type="line"/>
      <point x="207" y="625" type="line"/>
      <point x="163" y="405" type="line"/>
      <point x="82" y="405" type="line"/>
      <point x="67" y="329" type="line"/>
    </contour>
  </outline>
</glyph>
<glyph name="ordmasculine" format="1">
  <advance width="427"/>
  <unicode hex="00BA"/>
  <outline>
    <contour>
      <point x="235" y="324" type="curve" smooth="yes"/>
      <point x="346" y="324"/>
      <point x="420" y="398"/>
      <point x="439" y="492" type="curve" smooth="yes"/>
      <point x="442" y="508"/>
      <point x="444" y="526"/>
      <point x="444" y="543" type="curve" smooth="yes"/>
      <point x="444" y="644"/>
      <point x="383" y="704"/>
      <point x="293" y="704" type="curve" smooth="yes" name="hr00"/>
      <point x="182" y="704"/>
      <point x="108" y="630"/>
      <point x="89" y="536" type="curve" smooth="yes"/>
      <point x="86" y="520"/>
      <point x="84" y="502"/>
      <point x="84" y="485" type="curve" smooth="yes"/>
      <point x="84" y="384"/>
      <point x="145" y="324"/>
    </contour>
    <contour>
      <point x="245" y="401" type="curve" smooth="yes"/>
      <point x="210" y="401"/>
      <point x="185" y="422"/>
      <point x="185" y="459" type="curve" smooth="yes"/>
      <point x="185" y="464"/>
      <point x="185" y="470"/>
      <point x="187" y="480" type="curve" smooth="yes"/>
      <point x="199" y="541" type="line" smooth="yes"/>
      <point x="210" y="596"/>
      <point x="241" y="627"/>
      <point x="283" y="627" type="curve" smooth="yes"/>
      <point x="318" y="627"/>
      <point x="343" y="606"/>
      <point x="343" y="569" type="curve" smooth="yes"/>
      <point x="343" y="564"/>
      <point x="343" y="558"/>
      <point x="341" y="548" type="curve" smooth="yes"/>
      <point x="329" y="487" type="line" smooth="yes"/>
      <point x="318" y="432"/>
      <point x="287" y="401"/>
    </contour>
  </outline>
</glyph>
<glyph name="AE" format="1">
  <advance width="920"/>
  <unicode hex="00C6"/>
  <outline>
    <contour>
      <point x="364" y="0" type="line"/>
      <point x="823" y="0" type="line"/>
      <point x="849" y="128" type="line"/>
      <point x="535" y="128" type="line"/>
      <point x="567" y="289" type="line"/>
      <point x="835" y="289" type="line"/>
      <point x="861" y="417" type="line"/>
      <point x="593" y="417" type="line"/>
      <point x="624" y="570" type="line"/>
      <point x="927" y="570" type="line"/>
      <point x="953" y="698" type="line"/>
      <point x="388" y="698" type="line"/>
      <point x="-56" y="0" type="line"/>
      <point x="100" y="0" type="line"/>
      <point x="201" y="169" type="line" name="hr01"/>
      <point x="398" y="169" type="line"/>
    </contour>
    <contour>
      <point x="478" y="570" type="line"/>
      <point x="422" y="291" type="line"/>
      <point x="278" y="291" type="line"/>
      <point x="449" y="570" type="line"/>
    </contour>
    <contour>
      <point x="558" y="698" type="move" name="top"/>
    </contour>
  </outline>
</glyph>
<glyph name="Ccedilla" format="1">
  <advance width="635"/>
  <unicode hex="00C7"/>
  <outline>
    <contour>
      <point x="411" y="-108" type="curve" smooth="yes"/>
      <point x="411" y="-73"/>
      <point x="384" y="-52"/>
      <point x="349" y="-52" type="curve" smooth="yes"/>
      <point x="336" y="-52"/>
      <point x="322" y="-54"/>
      <point x="306" y="-59" type="curve"/>
      <point x="304" y="-55" type="line"/>
      <point x="321" y="-12" type="line"/>
      <point x="436" y="-7"/>
      <point x="534" y="50"/>
      <point x="593" y="166" type="curve"/>
      <point x="472" y="221" type="line"/>
      <point x="441" y="160"/>
      <point x="397" y="117"/>
      <point x="319" y="117" type="curve" smooth="yes"/>
      <point x="241" y="117"/>
      <point x="204" y="161"/>
      <point x="204" y="246" type="curve" smooth="yes"/>
      <point x="204" y="259"/>
      <point x="205" y="276"/>
      <point x="209" y="296" type="curve" smooth="yes"/>
      <point x="231" y="406" type="line" smooth="yes"/>
      <point x="252" y="511"/>
      <point x="311" y="581"/>
      <point x="404" y="581" type="curve" smooth="yes"/>
      <point x="478" y="581"/>
      <point x="506" y="539"/>
      <point x="522" y="486" type="curve"/>
      <point x="651" y="540" type="line"/>
      <point x="618" y="647"/>
      <point x="539" y="710"/>
      <point x="415" y="710" type="curve" smooth="yes"/>
      <point x="242" y="710"/>
      <point x="104" y="571"/>
      <point x="67" y="378" type="curve" smooth="yes"/>
      <point x="60" y="344"/>
      <point x="57" y="309"/>
      <point x="57" y="272" type="curve" smooth="yes"/>
      <point x="57" y="106"/>
      <point x="135" y="12"/>
      <point x="255" y="-8" type="curve"/>
      <point x="228" y="-73" type="line"/>
      <point x="250" y="-75" type="line" smooth="yes"/>
      <point x="300" y="-80"/>
      <point x="316" y="-95"/>
      <point x="316" y="-111" type="curve" smooth="yes"/>
      <point x="316" y="-133"/>
      <point x="294" y="-142"/>
      <point x="266" y="-142" type="curve" smooth="yes"/>
      <point x="237" y="-142"/>
      <point x="216" y="-126"/>
      <point x="208" y="-114" type="curve"/>
      <point x="156" y="-166" type="line"/>
      <point x="173" y="-191"/>
      <point x="212" y="-212"/>
      <point x="267" y="-212" type="curve" smooth="yes"/>
      <point x="347" y="-212"/>
      <point x="411" y="-177"/>
    </contour>
    <contour>
      <point x="419.0" y="698.0" type="move" name="top"/>
    </contour>
  </outline>
</glyph>
<glyph name="multiply" format="1">
  <advance width="600"/>
  <unicode hex="00D7"/>
  <outline>
    <contour>
      <point x="412" y="76" type="line" name="hr00"/>
      <point x="508" y="156" type="line"/>
      <point x="396" y="299" type="line"/>
      <point x="567" y="447" type="line"/>
      <point x="492" y="534" type="line"/>
      <point x="325" y="390" type="line"/>
      <point x="215" y="534" type="line"/>
      <point x="119" y="454" type="line"/>
      <point x="231" y="311" type="line"/>
      <point x="60" y="163" type="line"/>
      <point x="135" y="76" type="line"/>
      <point x="302" y="220" type="line"/>
    </contour>
  </outline>
</glyph>
<glyph name="Oslash" format="1">
  <advance width="695"/>
  <unicode hex="00D8"/>
  <outline>
    <contour>
      <point x="79" y="-60" type="line"/>
      <point x="158" y="33" type="line"/>
      <point x="201" y="2"/>
      <point x="253" y="-12"/>
      <point x="308" y="-12" type="curve" smooth="yes" name=""/>
      <point x="483" y="-12"/>
      <point x="617" y="126"/>
      <point x="656" y="312" type="curve" smooth="yes"/>
      <point x="664" y="349"/>
      <point x="668" y="387"/>
      <point x="668" y="427" type="curve" smooth="yes"/>
      <point x="668" y="492"/>
      <point x="655" y="545"/>
      <point x="634" y="587" type="curve"/>
      <point x="723" y="691" type="line"/>
      <point x="646" y="758" type="line"/>
      <point x="567" y="665" type="line"/>
      <point x="524" y="696"/>
      <point x="472" y="710"/>
      <point x="417" y="710" type="curve" smooth="yes"/>
      <point x="242" y="710"/>
      <point x="108" y="572"/>
      <point x="69" y="386" type="curve" smooth="yes"/>
      <point x="61" y="349"/>
      <point x="57" y="311"/>
      <point x="57" y="271" type="curve" smooth="yes"/>
      <point x="57" y="206"/>
      <point x="70" y="153"/>
      <point x="91" y="111" type="curve"/>
      <point x="2" y="7" type="line"/>
    </contour>
    <contour>
      <point x="408" y="587" type="curve" smooth="yes"/>
      <point x="440" y="587"/>
      <point x="467" y="577"/>
      <point x="488" y="558" type="curve"/>
      <point x="379" y="431" type="line"/>
      <point x="201" y="223" type="line"/>
      <point x="199" y="223" type="line"/>
      <point x="198" y="228"/>
      <point x="198" y="236"/>
      <point x="198" y="240" type="curve" smooth="yes"/>
      <point x="198" y="256"/>
      <point x="201" y="276"/>
      <point x="205" y="296" type="curve"/>
      <point x="227" y="405" type="line" smooth="yes"/>
      <point x="250" y="521"/>
      <point x="313" y="587"/>
    </contour>
    <contour>
      <point x="317" y="111" type="curve" smooth="yes"/>
      <point x="285" y="111"/>
      <point x="258" y="121"/>
      <point x="237" y="140" type="curve"/>
      <point x="346" y="267" type="line"/>
      <point x="524" y="475" type="line"/>
      <point x="526" y="475" type="line"/>
      <point x="527" y="470"/>
      <point x="527" y="462"/>
      <point x="527" y="458" type="curve" smooth="yes"/>
      <point x="527" y="442"/>
      <point x="524" y="422"/>
      <point x="520" y="402" type="curve"/>
      <point x="498" y="293" type="line" smooth="yes"/>
      <point x="475" y="177"/>
      <point x="412" y="111"/>
    </contour>
    <contour>
      <point x="300.0" y="0.0" type="move" name="bottom"/>
    </contour>
    <contour>
      <point x="437.0" y="698.0" type="move" name="top"/>
    </contour>
  </outline>
</glyph>
<glyph name="ccedilla" format="1">
  <advance width="494"/>
  <unicode hex="00E7"/>
  <outline>
    <contour>
      <point x="310" y="537" type="curve" smooth="yes" name=""/>
      <point x="175" y="537"/>
      <point x="68" y="440"/>
      <point x="39" y="296" type="curve" smooth="yes"/>
      <point x="34" y="270"/>
      <point x="31" y="243"/>
      <point x="31" y="215" type="curve" smooth="yes"/>
      <point x="31" y="71"/>
      <point x="103" y="4"/>
      <point x="198" y="-9" type="curve"/>
      <point x="171" y="-73" type="line"/>
      <point x="193" y="-75" type="line" smooth="yes"/>
      <point x="243" y="-80"/>
      <point x="259" y="-95"/>
      <point x="259" y="-111" type="curve" smooth="yes"/>
      <point x="259" y="-133"/>
      <point x="237" y="-142"/>
      <point x="209" y="-142" type="curve" smooth="yes"/>
      <point x="180" y="-142"/>
      <point x="159" y="-126"/>
      <point x="151" y="-114" type="curve"/>
      <point x="99" y="-166" type="line"/>
      <point x="116" y="-191"/>
      <point x="155" y="-212"/>
      <point x="210" y="-212" type="curve" smooth="yes"/>
      <point x="290" y="-212"/>
      <point x="354" y="-177"/>
      <point x="354" y="-108" type="curve" smooth="yes"/>
      <point x="354" y="-73"/>
      <point x="327" y="-52"/>
      <point x="292" y="-52" type="curve" smooth="yes"/>
      <point x="279" y="-52"/>
      <point x="265" y="-54"/>
      <point x="249" y="-59" type="curve"/>
      <point x="247" y="-55" type="line"/>
      <point x="265" y="-10" type="line"/>
      <point x="351" y="-2"/>
      <point x="418" y="46"/>
      <point x="460" y="134" type="curve"/>
      <point x="353" y="184" type="line"/>
      <point x="324" y="134"/>
      <point x="303" y="101"/>
      <point x="249" y="101" type="curve" smooth="yes"/>
      <point x="194" y="101"/>
      <point x="170" y="134"/>
      <point x="170" y="183" type="curve" smooth="yes"/>
      <point x="170" y="197"/>
      <point x="172" y="211"/>
      <point x="175" y="225" type="curve" smooth="yes"/>
      <point x="193" y="314" type="line" smooth="yes"/>
      <point x="208" y="388"/>
      <point x="243" y="424"/>
      <point x="302" y="424" type="curve" smooth="yes"/>
      <point x="353" y="424"/>
      <point x="368" y="397"/>
      <point x="380" y="356" type="curve"/>
      <point x="498" y="401" type="line"/>
      <point x="485" y="483"/>
      <point x="410" y="537"/>
    </contour>
    <contour>
      <point x="313.0" y="540.0" type="move" name="top"/>
    </contour>
  </outline>
</glyph>
<glyph name="eth" format="1">
  <advance width="573"/>
  <unicode hex="00F0"/>
  <outline>
    <contour>
      <point x="530" y="688" type="line" name=""/>
      <point x="498" y="751" type="line"/>
      <point x="399" y="699" type="line"/>
      <point x="385" y="713"/>
      <point x="370" y="727"/>
      <point x="353" y="740" type="curve"/>
      <point x="158" y="740" type="line"/>
      <point x="191" y="718"/>
      <point x="236" y="684"/>
      <point x="280" y="637" type="curve"/>
      <point x="186" y="588" type="line"/>
      <point x="218" y="526" type="line"/>
      <point x="325" y="581" type="line"/>
      <point x="359" y="532"/>
      <point x="389" y="467"/>
      <point x="400" y="398" type="curve"/>
      <point x="391" y="398" type="line"/>
      <point x="371" y="458"/>
      <point x="327" y="500"/>
      <point x="257" y="500" type="curve" smooth="yes"/>
      <point x="155" y="500"/>
      <point x="66" y="413"/>
      <point x="39" y="288" type="curve" smooth="yes"/>
      <point x="34" y="264"/>
      <point x="31" y="238"/>
      <point x="31" y="211" type="curve" smooth="yes"/>
      <point x="31" y="69"/>
      <point x="109" y="-12"/>
      <point x="242" y="-12" type="curve" smooth="yes"/>
      <point x="369" y="-12"/>
      <point x="491" y="62"/>
      <point x="525" y="237" type="curve" smooth="yes"/>
      <point x="532" y="269"/>
      <point x="535" y="305"/>
      <point x="535" y="344" type="curve" smooth="yes"/>
      <point x="535" y="459"/>
      <point x="505" y="565"/>
      <point x="447" y="645" type="curve"/>
    </contour>
    <contour>
      <point x="250" y="96" type="curve" smooth="yes"/>
      <point x="202" y="96"/>
      <point x="173" y="128"/>
      <point x="173" y="182" type="curve" smooth="yes"/>
      <point x="173" y="192"/>
      <point x="174" y="206"/>
      <point x="177" y="223" type="curve" smooth="yes"/>
      <point x="187" y="271" type="line" smooth="yes"/>
      <point x="203" y="346"/>
      <point x="240" y="390"/>
      <point x="297" y="390" type="curve" smooth="yes"/>
      <point x="345" y="390"/>
      <point x="374" y="358"/>
      <point x="374" y="304" type="curve" smooth="yes"/>
      <point x="374" y="294"/>
      <point x="373" y="280"/>
      <point x="370" y="263" type="curve" smooth="yes"/>
      <point x="360" y="215" type="line" smooth="yes"/>
      <point x="344" y="140"/>
      <point x="307" y="96"/>
    </contour>
    <contour>
      <point x="234.0" y="0.0" type="move" name="bottom"/>
    </contour>
  </outline>
</glyph>
<glyph name="oslash" format="1">
  <advance width="543"/>
  <unicode hex="00F8"/>
  <outline>
    <contour>
      <point x="240" y="-12" type="curve" smooth="yes"/>
      <point x="370" y="-12"/>
      <point x="473" y="86"/>
      <point x="503" y="229" type="curve" smooth="yes"/>
      <point x="509" y="257"/>
      <point x="512" y="287"/>
      <point x="512" y="318" type="curve" smooth="yes"/>
      <point x="512" y="356"/>
      <point x="506" y="389"/>
      <point x="494" y="418" type="curve"/>
      <point x="577" y="504" type="line"/>
      <point x="505" y="568" type="line"/>
      <point x="436" y="497" type="line"/>
      <point x="402" y="523"/>
      <point x="357" y="537"/>
      <point x="303" y="537" type="curve" smooth="yes"/>
      <point x="173" y="537"/>
      <point x="70" y="439"/>
      <point x="40" y="296" type="curve" smooth="yes"/>
      <point x="34" y="268"/>
      <point x="31" y="238"/>
      <point x="31" y="207" type="curve" smooth="yes"/>
      <point x="31" y="169"/>
      <point x="37" y="136"/>
      <point x="49" y="107" type="curve"/>
      <point x="-34" y="21" type="line"/>
      <point x="38" y="-43" type="line" name=""/>
      <point x="107" y="28" type="line"/>
      <point x="141" y="2"/>
      <point x="186" y="-12"/>
    </contour>
    <contour>
      <point x="245" y="95" type="curve" smooth="yes"/>
      <point x="221" y="95"/>
      <point x="198" y="105"/>
      <point x="187" y="118" type="curve"/>
      <point x="257" y="189" type="line"/>
      <point x="369" y="303" type="line"/>
      <point x="371" y="303" type="line"/>
      <point x="370" y="298"/>
      <point x="367" y="283"/>
      <point x="366" y="278" type="curve" smooth="yes"/>
      <point x="364" y="268"/>
      <point x="362" y="259"/>
      <point x="360" y="249" type="curve"/>
      <point x="352" y="210" type="line" smooth="yes"/>
      <point x="338" y="140"/>
      <point x="298" y="95"/>
    </contour>
    <contour>
      <point x="298" y="430" type="curve" smooth="yes"/>
      <point x="322" y="430"/>
      <point x="345" y="420"/>
      <point x="356" y="407" type="curve"/>
      <point x="286" y="336" type="line"/>
      <point x="174" y="222" type="line"/>
      <point x="172" y="222" type="line"/>
      <point x="173" y="227"/>
      <point x="176" y="242"/>
      <point x="177" y="247" type="curve" smooth="yes"/>
      <point x="179" y="257"/>
      <point x="181" y="266"/>
      <point x="183" y="276" type="curve"/>
      <point x="191" y="315" type="line" smooth="yes"/>
      <point x="205" y="385"/>
      <point x="245" y="430"/>
    </contour>
    <contour>
      <point x="228.0" y="0.0" type="move" name="bottom"/>
    </contour>
    <contour>
      <point x="317.0" y="540.0" type="move" name="top"/>
    </contour>
  </outline>
</glyph>
<glyph name="Aogonek" format="1">
  <advance width="658"/>
  <unicode hex="0104"/>
  <outline>
    <contour>
      <point x="-35" y="0" type="line" name=""/>
      <point x="120" y="0" type="line"/>
      <point x="202" y="170" type="line"/>
      <point x="425" y="170" type="line"/>
      <point x="441" y="0" type="line"/>
      <point x="503" y="0" type="line"/>
      <point x="504" y="-4" type="line"/>
      <point x="407" y="-30"/>
      <point x="366" y="-79"/>
      <point x="366" y="-129" type="curve" smooth="yes"/>
      <point x="366" y="-183"/>
      <point x="419" y="-212"/>
      <point x="485" y="-212" type="curve" smooth="yes"/>
      <point x="548" y="-212"/>
      <point x="585" y="-192"/>
      <point x="610" y="-162" type="curve"/>
      <point x="558" y="-113" type="line"/>
      <point x="545" y="-134"/>
      <point x="525" y="-140"/>
      <point x="504" y="-140" type="curve" smooth="yes"/>
      <point x="478" y="-140"/>
      <point x="469" y="-127"/>
      <point x="469" y="-111" type="curve" smooth="yes"/>
      <point x="469" y="-91"/>
      <point x="478" y="-66"/>
      <point x="588" y="0" type="curve"/>
      <point x="509" y="698" type="line"/>
      <point x="324" y="698" type="line"/>
    </contour>
    <contour>
      <point x="415" y="291" type="line"/>
      <point x="259" y="291" type="line"/>
      <point x="333" y="452" type="line"/>
      <point x="386" y="567" type="line"/>
      <point x="394" y="567" type="line"/>
      <point x="403" y="451" type="line"/>
    </contour>
    <contour>
      <point x="411.0" y="698.0" type="move" name="top"/>
    </contour>
  </outline>
</glyph>
<glyph name="aogonek" format="1">
  <advance width="591"/>
  <unicode hex="0105"/>
  <outline>
    <contour>
      <point x="545" y="112" type="line"/>
      <point x="486" y="112" type="line"/>
      <point x="569" y="525" type="line"/>
      <point x="429" y="525" type="line"/>
      <point x="411" y="434" type="line"/>
      <point x="406" y="434" type="line"/>
      <point x="399" y="491"/>
      <point x="348" y="537"/>
      <point x="275" y="537" type="curve" smooth="yes" name=""/>
      <point x="167" y="537"/>
      <point x="75" y="444"/>
      <point x="43" y="292" type="curve" smooth="yes"/>
      <point x="35" y="255"/>
      <point x="31" y="214"/>
      <point x="31" y="170" type="curve" smooth="yes"/>
      <point x="31" y="65"/>
      <point x="73" y="-12"/>
      <point x="171" y="-12" type="curve" smooth="yes"/>
      <point x="253" y="-12"/>
      <point x="301" y="37"/>
      <point x="342" y="122" type="curve"/>
      <point x="348" y="122" type="line"/>
      <point x="345" y="107" type="line" smooth="yes"/>
      <point x="344" y="102"/>
      <point x="342" y="88"/>
      <point x="342" y="77" type="curve" smooth="yes"/>
      <point x="342" y="28"/>
      <point x="380" y="0"/>
      <point x="430" y="0" type="curve" smooth="yes" name=""/>
      <point x="469" y="0" type="line"/>
      <point x="439" y="30" type="line"/>
      <point x="439" y="-4" type="line"/>
      <point x="342" y="-30"/>
      <point x="301" y="-79"/>
      <point x="301" y="-129" type="curve" smooth="yes"/>
      <point x="301" y="-183"/>
      <point x="354" y="-212"/>
      <point x="420" y="-212" type="curve" smooth="yes"/>
      <point x="483" y="-212"/>
      <point x="520" y="-192"/>
      <point x="545" y="-162" type="curve"/>
      <point x="493" y="-113" type="line"/>
      <point x="480" y="-134"/>
      <point x="460" y="-140"/>
      <point x="439" y="-140" type="curve" smooth="yes"/>
      <point x="413" y="-140"/>
      <point x="404" y="-127"/>
      <point x="404" y="-111" type="curve" smooth="yes"/>
      <point x="404" y="-91"/>
      <point x="413" y="-66"/>
      <point x="523" y="0" type="curve"/>
    </contour>
    <contour>
      <point x="240" y="103" type="curve" smooth="yes" name=""/>
      <point x="199" y="103"/>
      <point x="174" y="131"/>
      <point x="174" y="178" type="curve" smooth="yes"/>
      <point x="174" y="194"/>
      <point x="177" y="221"/>
      <point x="180" y="235" type="curve" smooth="yes"/>
      <point x="194" y="305" type="line" smooth="yes"/>
      <point x="210" y="384"/>
      <point x="247" y="422"/>
      <point x="309" y="422" type="curve" smooth="yes"/>
      <point x="367" y="422"/>
      <point x="401" y="384"/>
      <point x="391" y="335" type="curve" smooth="yes"/>
      <point x="375" y="255" type="line" smooth="yes"/>
      <point x="367" y="216"/>
      <point x="349" y="178"/>
      <point x="327" y="151" type="curve" smooth="yes"/>
      <point x="306" y="125"/>
      <point x="276" y="103"/>
    </contour>
    <contour>
      <point x="333.0" y="540.0" type="move" name="top"/>
    </contour>
  </outline>
</glyph>
<glyph name="Dcroat" format="1">
  <advance width="687"/>
  <unicode hex="0110"/>
  <outline>
    <contour>
      <point x="27" y="0" type="line" name=""/>
      <point x="293" y="0" type="line" smooth="yes"/>
      <point x="487" y="0"/>
      <point x="610" y="128"/>
      <point x="647" y="312" type="curve" smooth="yes"/>
      <point x="655" y="351"/>
      <point x="659" y="393"/>
      <point x="659" y="437" type="curve" smooth="yes"/>
      <point x="659" y="608"/>
      <point x="557" y="698"/>
      <point x="391" y="698" type="curve" smooth="yes"/>
      <point x="167" y="698" type="line"/>
      <point x="109" y="410" type="line"/>
      <point x="33" y="410" type="line"/>
      <point x="10" y="298" type="line"/>
      <point x="88" y="298" type="line"/>
    </contour>
    <contour>
      <point x="198" y="128" type="line"/>
      <point x="231" y="298" type="line"/>
      <point x="344" y="298" type="line"/>
      <point x="367" y="410" type="line"/>
      <point x="254" y="410" type="line"/>
      <point x="286" y="570" type="line"/>
      <point x="400" y="570" type="line" smooth="yes"/>
      <point x="468" y="570"/>
      <point x="512" y="536"/>
      <point x="512" y="452" type="curve" smooth="yes"/>
      <point x="512" y="440"/>
      <point x="510" y="415"/>
      <point x="505" y="390" type="curve" smooth="yes"/>
      <point x="486" y="296" type="line" smooth="yes"/>
      <point x="463" y="182"/>
      <point x="395" y="128"/>
      <point x="305" y="128" type="curve" smooth="yes"/>
    </contour>
    <contour>
      <point x="258.0" y="0.0" type="move" name="bottom"/>
    </contour>
    <contour>
      <point x="398.0" y="698.0" type="move" name="top"/>
    </contour>
  </outline>
</glyph>
<glyph name="dcroat" format="1">
  <advance width="594"/>
  <unicode hex="0111"/>
  <outline>
    <contour>
      <point x="523" y="0" type="line"/>
      <point x="545" y="112" type="line"/>
      <point x="486" y="112" type="line"/>
      <point x="583" y="592" type="line"/>
      <point x="640" y="592" type="line"/>
      <point x="660" y="688" type="line"/>
      <point x="602" y="688" type="line"/>
      <point x="612" y="740" type="line"/>
      <point x="472" y="740" type="line"/>
      <point x="462" y="688" type="line"/>
      <point x="311" y="688" type="line"/>
      <point x="292" y="592" type="line"/>
      <point x="443" y="592" type="line"/>
      <point x="411" y="434" type="line"/>
      <point x="406" y="434" type="line"/>
      <point x="399" y="491"/>
      <point x="348" y="537"/>
      <point x="275" y="537" type="curve" smooth="yes"/>
      <point x="167" y="537"/>
      <point x="75" y="444"/>
      <point x="43" y="291" type="curve" smooth="yes"/>
      <point x="35" y="254"/>
      <point x="31" y="214"/>
      <point x="31" y="170" type="curve" smooth="yes"/>
      <point x="31" y="65"/>
      <point x="73" y="-12"/>
      <point x="171" y="-12" type="curve" smooth="yes" name=""/>
      <point x="253" y="-12"/>
      <point x="301" y="37"/>
      <point x="342" y="122" type="curve"/>
      <point x="348" y="122" type="line"/>
      <point x="345" y="107" type="line" smooth="yes"/>
      <point x="344" y="102"/>
      <point x="342" y="88"/>
      <point x="342" y="77" type="curve" smooth="yes"/>
      <point x="342" y="28"/>
      <point x="380" y="0"/>
      <point x="430" y="0" type="curve" smooth="yes" name=""/>
    </contour>
    <contour>
      <point x="240" y="103" type="curve" smooth="yes" name=""/>
      <point x="199" y="103"/>
      <point x="174" y="131"/>
      <point x="174" y="178" type="curve" smooth="yes"/>
      <point x="174" y="194"/>
      <point x="177" y="221"/>
      <point x="180" y="235" type="curve" smooth="yes"/>
      <point x="194" y="305" type="line" smooth="yes"/>
      <point x="210" y="384"/>
      <point x="247" y="422"/>
      <point x="309" y="422" type="curve" smooth="yes"/>
      <point x="367" y="422"/>
      <point x="402" y="388"/>
      <point x="391" y="335" type="curve" smooth="yes"/>
      <point x="375" y="255" type="line" smooth="yes"/>
      <point x="367" y="216"/>
      <point x="349" y="178"/>
      <point x="327" y="151" type="curve" smooth="yes"/>
      <point x="306" y="125"/>
      <point x="276" y="103"/>
    </contour>
    <contour>
      <point x="233.0" y="0.0" type="move" name="bottom"/>
    </contour>
  </outline>
</glyph>
<glyph name="eogonek" format="1">
  <advance width="515"/>
  <unicode hex="0119"/>
  <outline>
    <contour>
      <point x="234" y="-212" type="curve" smooth="yes"/>
      <point x="297" y="-212"/>
      <point x="334" y="-192"/>
      <point x="359" y="-162" type="curve"/>
      <point x="307" y="-113" type="line"/>
      <point x="294" y="-134"/>
      <point x="274" y="-140"/>
      <point x="253" y="-140" type="curve" smooth="yes"/>
      <point x="227" y="-140"/>
      <point x="218" y="-127"/>
      <point x="218" y="-111" type="curve" smooth="yes"/>
      <point x="218" y="-94"/>
      <point x="227" y="-62"/>
      <point x="335" y="-4" type="curve" smooth="yes"/>
      <point x="380" y="20"/>
      <point x="423" y="34"/>
      <point x="477" y="106" type="curve"/>
      <point x="391" y="174" type="line"/>
      <point x="344" y="115"/>
      <point x="309" y="101"/>
      <point x="263" y="101" type="curve" smooth="yes"/>
      <point x="194" y="101"/>
      <point x="170" y="135"/>
      <point x="170" y="185" type="curve" smooth="yes" name=""/>
      <point x="170" y="190"/>
      <point x="170" y="196"/>
      <point x="172" y="208" type="curve"/>
      <point x="407" y="215"/>
      <point x="504" y="283"/>
      <point x="504" y="391" type="curve" smooth="yes"/>
      <point x="504" y="505"/>
      <point x="395" y="537"/>
      <point x="316" y="537" type="curve" smooth="yes"/>
      <point x="169" y="537"/>
      <point x="68" y="427"/>
      <point x="39" y="292" type="curve" smooth="yes"/>
      <point x="34" y="267"/>
      <point x="31" y="240"/>
      <point x="31" y="214" type="curve" smooth="yes"/>
      <point x="31" y="36"/>
      <point x="152" y="-11"/>
      <point x="235" y="-11" type="curve" smooth="yes"/>
      <point x="236" y="-11"/>
      <point x="237" y="-11"/>
      <point x="238" y="-11" type="curve"/>
      <point x="234" y="-15" type="line"/>
      <point x="155" y="-38"/>
      <point x="115" y="-83"/>
      <point x="115" y="-129" type="curve" smooth="yes" name=""/>
      <point x="115" y="-183"/>
      <point x="168" y="-212"/>
    </contour>
    <contour>
      <point x="308" y="430" type="curve" smooth="yes"/>
      <point x="333" y="430"/>
      <point x="368" y="422"/>
      <point x="368" y="377" type="curve" smooth="yes"/>
      <point x="368" y="335"/>
      <point x="337" y="306"/>
      <point x="187" y="297" type="curve"/>
      <point x="191" y="320" type="line" smooth="yes"/>
      <point x="203" y="388"/>
      <point x="249" y="430"/>
    </contour>
    <contour>
      <point x="323.0" y="540.0" type="move" name="top"/>
    </contour>
  </outline>
</glyph>
<glyph name="Hbar" format="1">
  <advance width="710"/>
  <unicode hex="0126"/>
  <outline>
    <contour>
      <point x="432" y="0" type="line" name="hr00"/>
      <point x="577" y="0" type="line"/>
      <point x="680" y="513" type="line"/>
      <point x="752" y="513" type="line"/>
      <point x="773" y="620" type="line"/>
      <point x="701" y="620" type="line"/>
      <point x="717" y="698" type="line"/>
      <point x="572" y="698" type="line"/>
      <point x="556" y="620" type="line"/>
      <point x="296" y="620" type="line"/>
      <point x="312" y="698" type="line"/>
      <point x="167" y="698" type="line"/>
      <point x="151" y="620" type="line"/>
      <point x="79" y="620" type="line"/>
      <point x="58" y="513" type="line"/>
      <point x="130" y="513" type="line"/>
      <point x="27" y="0" type="line"/>
      <point x="172" y="0" type="line"/>
      <point x="230" y="289" type="line"/>
      <point x="490" y="289" type="line"/>
    </contour>
    <contour>
      <point x="256" y="417" type="line"/>
      <point x="275" y="513" type="line"/>
      <point x="535" y="513" type="line"/>
      <point x="516" y="417" type="line"/>
    </contour>
  </outline>
</glyph>
<glyph name="iogonek" format="1">
  <advance width="281"/>
  <unicode hex="012F"/>
  <outline>
    <contour>
      <point x="235" y="112" type="line"/>
      <point x="176" y="112" type="line"/>
      <point x="259" y="525" type="line"/>
      <point x="119" y="525" type="line"/>
      <point x="35" y="105" type="line" smooth="yes"/>
      <point x="33" y="95"/>
      <point x="32" y="88"/>
      <point x="32" y="80" type="curve" smooth="yes"/>
      <point x="32" y="32"/>
      <point x="68" y="0"/>
      <point x="122" y="0" type="curve" smooth="yes"/>
      <point x="130" y="0" type="line" name="hr01"/>
      <point x="131" y="-4" type="line"/>
      <point x="34" y="-30"/>
      <point x="-9" y="-79"/>
      <point x="-9" y="-129" type="curve" smooth="yes"/>
      <point x="-9" y="-183"/>
      <point x="44" y="-212"/>
      <point x="110" y="-212" type="curve" smooth="yes"/>
      <point x="173" y="-212"/>
      <point x="210" y="-192"/>
      <point x="235" y="-162" type="curve" name="hr02"/>
      <point x="183" y="-113" type="line"/>
      <point x="170" y="-134"/>
      <point x="150" y="-140"/>
      <point x="129" y="-140" type="curve" smooth="yes"/>
      <point x="103" y="-140"/>
      <point x="94" y="-127"/>
      <point x="94" y="-111" type="curve" smooth="yes"/>
      <point x="94" y="-91"/>
      <point x="103" y="-66"/>
      <point x="213" y="0" type="curve"/>
    </contour>
    <contour>
      <point x="202" y="583" type="curve" smooth="yes"/>
      <point x="269" y="583"/>
      <point x="289" y="620"/>
      <point x="298" y="655" type="curve" smooth="yes"/>
      <point x="301" y="667"/>
      <point x="304" y="683"/>
      <point x="304" y="695" type="curve" smooth="yes" name="hr03"/>
      <point x="304" y="727"/>
      <point x="281" y="747"/>
      <point x="232" y="747" type="curve" smooth="yes"/>
      <point x="165" y="747"/>
      <point x="145" y="710"/>
      <point x="136" y="675" type="curve" smooth="yes"/>
      <point x="133" y="663"/>
      <point x="130" y="647"/>
      <point x="130" y="635" type="curve" smooth="yes"/>
      <point x="130" y="603"/>
      <point x="153" y="583"/>
    </contour>
  </outline>
</glyph>
<glyph name="dotlessi" format="1">
  <advance width="281"/>
  <unicode hex="0131"/>
  <outline>
    <contour>
      <point x="213" y="0" type="line" name="hr00"/>
      <point x="235" y="112" type="line"/>
      <point x="176" y="112" type="line"/>
      <point x="259" y="525" type="line"/>
      <point x="119" y="525" type="line"/>
      <point x="35" y="105" type="line" smooth="yes"/>
      <point x="33" y="95"/>
      <point x="32" y="88"/>
      <point x="32" y="80" type="curve" smooth="yes"/>
      <point x="32" y="32"/>
      <point x="68" y="0"/>
      <point x="122" y="0" type="curve" smooth="yes"/>
    </contour>
    <contour>
      <point x="125" y="0" type="move" name="bottom"/>
    </contour>
    <contour>
      <point x="213" y="0" type="move" name="bottomright"/>
    </contour>
    <contour>
      <point x="189" y="540" type="move" name="top"/>
    </contour>
  </outline>
</glyph>
<glyph name="kgreenlandic" format="1">
  <advance width="555"/>
  <unicode hex="0138"/>
  <outline>
    <contour>
      <point x="14" y="0" type="line" name=""/>
      <point x="154" y="0" type="line"/>
      <point x="182" y="142" type="line"/>
      <point x="263" y="216" type="line"/>
      <point x="306" y="80" type="line" smooth="yes"/>
      <point x="323" y="27"/>
      <point x="355" y="0"/>
      <point x="404" y="0" type="curve" smooth="yes"/>
      <point x="479" y="0" type="line"/>
      <point x="503" y="112" type="line"/>
      <point x="442" y="112" type="line"/>
      <point x="376" y="311" type="line"/>
      <point x="593" y="525" type="line"/>
      <point x="430" y="525" type="line"/>
      <point x="300" y="394" type="line"/>
      <point x="222" y="305" type="line"/>
      <point x="215" y="305" type="line"/>
      <point x="233" y="395" type="line"/>
      <point x="259" y="525" type="line"/>
      <point x="119" y="525" type="line"/>
    </contour>
    <contour>
      <point x="252.0" y="0.0" type="move" name="bottom"/>
    </contour>
    <contour>
      <point x="340.0" y="540.0" type="move" name="top"/>
    </contour>
  </outline>
</glyph>
<glyph name="Eng" format="1">
  <advance width="700"/>
  <unicode hex="014A"/>
  <outline>
    <contour>
      <point x="159" y="0" type="line" name=""/>
      <point x="226" y="336" type="line"/>
      <point x="254" y="475" type="line"/>
      <point x="260" y="475" type="line"/>
      <point x="302" y="336" type="line"/>
      <point x="415" y="0" type="line"/>
      <point x="439" y="0" type="line"/>
      <point x="421" y="-89" type="line"/>
      <point x="340" y="-89" type="line"/>
      <point x="318" y="-200" type="line"/>
      <point x="394" y="-200" type="line" smooth="yes"/>
      <point x="486" y="-200"/>
      <point x="541" y="-154"/>
      <point x="561" y="-55" type="curve" smooth="yes"/>
      <point x="712" y="698" type="line"/>
      <point x="575" y="698" type="line"/>
      <point x="508" y="362" type="line"/>
      <point x="480" y="223" type="line"/>
      <point x="474" y="223" type="line"/>
      <point x="432" y="362" type="line"/>
      <point x="319" y="698" type="line"/>
      <point x="162" y="698" type="line"/>
      <point x="22" y="0" type="line"/>
    </contour>
    <contour>
      <point x="436.0" y="698.0" type="move" name="top"/>
    </contour>
  </outline>
</glyph>
<glyph name="eng" format="1">
  <advance width="586"/>
  <unicode hex="014B"/>
  <outline>
    <contour>
      <point x="234" y="-89" type="line"/>
      <point x="212" y="-200" type="line"/>
      <point x="292" y="-200" type="line" smooth="yes"/>
      <point x="388" y="-200"/>
      <point x="436" y="-152"/>
      <point x="454" y="-61" type="curve" smooth="yes"/>
      <point x="532" y="327" type="line" smooth="yes"/>
      <point x="537" y="353"/>
      <point x="541" y="377"/>
      <point x="541" y="399" type="curve" smooth="yes"/>
      <point x="541" y="486"/>
      <point x="502" y="537"/>
      <point x="414" y="537" type="curve" smooth="yes"/>
      <point x="335" y="537"/>
      <point x="279" y="482"/>
      <point x="241" y="403" type="curve"/>
      <point x="235" y="403" type="line"/>
      <point x="259" y="525" type="line" name="hr01"/>
      <point x="119" y="525" type="line"/>
      <point x="14" y="0" type="line"/>
      <point x="154" y="0" type="line"/>
      <point x="211" y="283" type="line" smooth="yes"/>
      <point x="218" y="318"/>
      <point x="238" y="349"/>
      <point x="256" y="370" type="curve" smooth="yes"/>
      <point x="277" y="397"/>
      <point x="310" y="420"/>
      <point x="344" y="420" type="curve" smooth="yes" name="hr02"/>
      <point x="380" y="420"/>
      <point x="396" y="400"/>
      <point x="396" y="361" type="curve" smooth="yes"/>
      <point x="396" y="348"/>
      <point x="393" y="334"/>
      <point x="390" y="317" type="curve" smooth="yes"/>
      <point x="310" y="-89" type="line"/>
    </contour>
  </outline>
</glyph>
<glyph name="OE" format="1">
  <advance width="957"/>
  <unicode hex="0152"/>
  <outline>
    <contour>
      <point x="860" y="0" type="line"/>
      <point x="886" y="128" type="line"/>
      <point x="572" y="128" type="line"/>
      <point x="604" y="289" type="line"/>
      <point x="872" y="289" type="line"/>
      <point x="898" y="417" type="line"/>
      <point x="630" y="417" type="line"/>
      <point x="661" y="570" type="line"/>
      <point x="964" y="570" type="line"/>
      <point x="990" y="698" type="line"/>
      <point x="547" y="698" type="line"/>
      <point x="507" y="706"/>
      <point x="457" y="710"/>
      <point x="419" y="710" type="curve" smooth="yes" name=""/>
      <point x="246" y="710"/>
      <point x="107" y="581"/>
      <point x="68" y="394" type="curve" smooth="yes"/>
      <point x="61" y="360"/>
      <point x="57" y="323"/>
      <point x="57" y="285" type="curve" smooth="yes"/>
      <point x="57" y="79"/>
      <point x="163" y="-12"/>
      <point x="302" y="-12" type="curve" smooth="yes"/>
      <point x="334" y="-12"/>
      <point x="371" y="-8"/>
      <point x="405" y="0" type="curve" name=""/>
    </contour>
    <contour>
      <point x="334" y="117" type="curve" smooth="yes" name=""/>
      <point x="245" y="117"/>
      <point x="205" y="168"/>
      <point x="205" y="248" type="curve" smooth="yes"/>
      <point x="205" y="266"/>
      <point x="207" y="280"/>
      <point x="210" y="297" type="curve" smooth="yes"/>
      <point x="231" y="402" type="line" smooth="yes"/>
      <point x="253" y="512"/>
      <point x="307" y="581"/>
      <point x="414" y="581" type="curve" smooth="yes"/>
      <point x="445" y="581"/>
      <point x="488" y="575"/>
      <point x="515" y="567" type="curve"/>
      <point x="427" y="130" type="line"/>
      <point x="396" y="121"/>
      <point x="359" y="117"/>
    </contour>
    <contour>
      <point x="484.0" y="0.0" type="move" name="bottom"/>
    </contour>
    <contour>
      <point x="604.0" y="698.0" type="move" name="top"/>
    </contour>
  </outline>
</glyph>
<glyph name="oe" format="1">
  <advance width="840"/>
  <unicode hex="0153"/>
  <outline>
    <contour>
      <point x="245" y="101" type="curve" smooth="yes" name=""/>
      <point x="196" y="101"/>
      <point x="170" y="134"/>
      <point x="170" y="184" type="curve" smooth="yes"/>
      <point x="170" y="197"/>
      <point x="172" y="209"/>
      <point x="173" y="215" type="curve" smooth="yes"/>
      <point x="192" y="309" type="line" smooth="yes"/>
      <point x="207" y="384"/>
      <point x="244" y="424"/>
      <point x="297" y="424" type="curve" smooth="yes"/>
      <point x="346" y="424"/>
      <point x="372" y="391"/>
      <point x="372" y="341" type="curve" smooth="yes"/>
      <point x="372" y="328"/>
      <point x="370" y="316"/>
      <point x="369" y="310" type="curve" smooth="yes"/>
      <point x="350" y="216" type="line" smooth="yes"/>
      <point x="335" y="141"/>
      <point x="298" y="101"/>
    </contour>
    <contour>
      <point x="633" y="430" type="curve" smooth="yes"/>
      <point x="658" y="430"/>
      <point x="693" y="422"/>
      <point x="693" y="377" type="curve" smooth="yes"/>
      <point x="693" y="335"/>
      <point x="662" y="306"/>
      <point x="512" y="297" type="curve"/>
      <point x="516" y="320" type="line" smooth="yes"/>
      <point x="528" y="388"/>
      <point x="574" y="430"/>
    </contour>
    <contour>
      <point x="581" y="-12" type="curve" smooth="yes"/>
      <point x="667" y="-12"/>
      <point x="737" y="20"/>
      <point x="802" y="106" type="curve"/>
      <point x="716" y="174" type="line"/>
      <point x="669" y="115"/>
      <point x="634" y="101"/>
      <point x="589" y="101" type="curve" smooth="yes"/>
      <point x="519" y="101"/>
      <point x="495" y="135"/>
      <point x="495" y="185" type="curve" smooth="yes"/>
      <point x="495" y="190"/>
      <point x="495" y="196"/>
      <point x="497" y="208" type="curve"/>
      <point x="732" y="215"/>
      <point x="829" y="283"/>
      <point x="829" y="391" type="curve" smooth="yes"/>
      <point x="829" y="505"/>
      <point x="719" y="537"/>
      <point x="642" y="537" type="curve" smooth="yes"/>
      <point x="568" y="537"/>
      <point x="508" y="510"/>
      <point x="463" y="451" type="curve"/>
      <point x="457" y="451" type="line"/>
      <point x="424" y="515"/>
      <point x="372" y="537"/>
      <point x="304" y="537" type="curve" smooth="yes"/>
      <point x="170" y="537"/>
      <point x="68" y="437"/>
      <point x="39" y="292" type="curve" smooth="yes"/>
      <point x="34" y="265"/>
      <point x="31" y="237"/>
      <point x="31" y="207" type="curve" smooth="yes"/>
      <point x="31" y="69"/>
      <point x="115" y="-12"/>
      <point x="233" y="-12" type="curve" smooth="yes"/>
      <point x="304" y="-12"/>
      <point x="363" y="14"/>
      <point x="407" y="72" type="curve"/>
      <point x="413" y="72" type="line"/>
      <point x="447" y="12"/>
      <point x="501" y="-12"/>
    </contour>
    <contour>
      <point x="393.0" y="0.0" type="move" name="bottom"/>
    </contour>
    <contour>
      <point x="493.0" y="540.0" type="move" name="top"/>
    </contour>
  </outline>
</glyph>
<glyph name="tcedilla" format="1">
  <advance width="354"/>
  <unicode hex="0163"/>
  <outline>
    <contour>
      <point x="126" y="-212" type="curve" smooth="yes"/>
      <point x="206" y="-212"/>
      <point x="270" y="-177"/>
      <point x="270" y="-108" type="curve" smooth="yes"/>
      <point x="270" y="-73"/>
      <point x="243" y="-52"/>
      <point x="208" y="-52" type="curve" smooth="yes"/>
      <point x="195" y="-52"/>
      <point x="181" y="-54"/>
      <point x="165" y="-59" type="curve"/>
      <point x="163" y="-55" type="line"/>
      <point x="185" y="0" type="line"/>
      <point x="270" y="0" type="line"/>
      <point x="292" y="112" type="line"/>
      <point x="197" y="112" type="line" name=""/>
      <point x="257" y="413" type="line"/>
      <point x="362" y="413" type="line"/>
      <point x="385" y="525" type="line"/>
      <point x="280" y="525" type="line"/>
      <point x="308" y="667" type="line"/>
      <point x="178" y="667" type="line"/>
      <point x="160" y="578" type="line" smooth="yes"/>
      <point x="153" y="542"/>
      <point x="144" y="525"/>
      <point x="101" y="525" type="curve" smooth="yes"/>
      <point x="65" y="525" type="line"/>
      <point x="43" y="413" type="line"/>
      <point x="117" y="413" type="line"/>
      <point x="63" y="142" type="line" smooth="yes"/>
      <point x="60" y="127"/>
      <point x="59" y="109"/>
      <point x="59" y="99" type="curve"/>
      <point x="59" y="33"/>
      <point x="101" y="0"/>
      <point x="182" y="0" type="curve" smooth="yes"/>
      <point x="184" y="0" type="line" name=""/>
      <point x="131" y="32" type="line"/>
      <point x="87" y="-73" type="line"/>
      <point x="109" y="-75" type="line" smooth="yes"/>
      <point x="159" y="-80"/>
      <point x="175" y="-95"/>
      <point x="175" y="-111" type="curve" smooth="yes" name=""/>
      <point x="175" y="-133"/>
      <point x="153" y="-142"/>
      <point x="125" y="-142" type="curve" smooth="yes"/>
      <point x="96" y="-142"/>
      <point x="75" y="-126"/>
      <point x="67" y="-114" type="curve"/>
      <point x="15" y="-166" type="line"/>
      <point x="32" y="-191"/>
      <point x="71" y="-212"/>
    </contour>
  </outline>
</glyph>
<glyph name="Tbar" format="1">
  <advance width="569"/>
  <unicode hex="0166"/>
  <outline>
    <contour>
      <point x="503" y="280" type="line" name=""/>
      <point x="525" y="386" type="line"/>
      <point x="383" y="386" type="line"/>
      <point x="419" y="570" type="line"/>
      <point x="603" y="570" type="line"/>
      <point x="629" y="698" type="line"/>
      <point x="116" y="698" type="line"/>
      <point x="90" y="570" type="line"/>
      <point x="274" y="570" type="line"/>
      <point x="238" y="386" type="line"/>
      <point x="97" y="386" type="line"/>
      <point x="75" y="280" type="line"/>
      <point x="216" y="280" type="line"/>
      <point x="160" y="0" type="line"/>
      <point x="305" y="0" type="line"/>
      <point x="361" y="280" type="line"/>
    </contour>
    <contour>
      <point x="236.0" y="0.0" type="move" name="bottom"/>
    </contour>
    <contour>
      <point x="376.0" y="698.0" type="move" name="top"/>
    </contour>
  </outline>
</glyph>
<glyph name="tbar" format="1">
  <advance width="364"/>
  <unicode hex="0167"/>
  <outline>
    <contour>
      <point x="296" y="112" type="line" name=""/>
      <point x="200" y="112" type="line"/>
      <point x="222" y="224" type="line"/>
      <point x="314" y="224" type="line"/>
      <point x="333" y="320" type="line"/>
      <point x="241" y="320" type="line"/>
      <point x="260" y="413" type="line"/>
      <point x="366" y="413" type="line"/>
      <point x="389" y="525" type="line"/>
      <point x="283" y="525" type="line"/>
      <point x="311" y="667" type="line"/>
      <point x="181" y="667" type="line"/>
      <point x="163" y="578" type="line" smooth="yes"/>
      <point x="156" y="542"/>
      <point x="147" y="525"/>
      <point x="104" y="525" type="curve" smooth="yes"/>
      <point x="69" y="525" type="line"/>
      <point x="47" y="413" type="line"/>
      <point x="121" y="413" type="line"/>
      <point x="102" y="320" type="line"/>
      <point x="35" y="320" type="line"/>
      <point x="16" y="224" type="line"/>
      <point x="83" y="224" type="line"/>
      <point x="67" y="142" type="line" smooth="yes"/>
      <point x="64" y="127"/>
      <point x="63" y="109"/>
      <point x="63" y="99" type="curve" smooth="yes"/>
      <point x="63" y="33"/>
      <point x="105" y="0"/>
      <point x="186" y="0" type="curve" smooth="yes"/>
      <point x="274" y="0" type="line"/>
    </contour>
    <contour>
      <point x="154.0" y="0.0" type="move" name="bottom"/>
    </contour>
  </outline>
</glyph>
<glyph name="Uring" format="1">
  <advance width="678"/>
  <unicode hex="016E"/>
  <outline>
    <component base="U"/>
    <component base="ring.case" xOffset="128"/>
    <contour>
      <point x="284.0" y="0.0" type="move" name="bottom"/>
    </contour>
    <contour>
      <point x="402.0" y="0.0" type="move" name="bottomright"/>
    </contour>
  </outline>
</glyph>
<glyph name="Uogonek" format="1">
  <advance width="678"/>
  <unicode hex="0172"/>
  <outline>
    <contour>
      <point x="160" y="698" type="line"/>
      <point x="81" y="303" type="line" smooth="yes"/>
      <point x="74" y="269"/>
      <point x="72" y="240"/>
      <point x="72" y="214" type="curve" smooth="yes"/>
      <point x="72" y="71"/>
      <point x="149" y="-6"/>
      <point x="289" y="-12" type="curve" smooth="yes"/>
      <point x="290" y="-12"/>
      <point x="291" y="-12"/>
      <point x="292" y="-12" type="curve"/>
      <point x="293" y="-16" type="line"/>
      <point x="214" y="-38"/>
      <point x="180" y="-84"/>
      <point x="180" y="-129" type="curve" smooth="yes" name=""/>
      <point x="180" y="-183"/>
      <point x="233" y="-212"/>
      <point x="299" y="-212" type="curve" smooth="yes"/>
      <point x="362" y="-212"/>
      <point x="399" y="-192"/>
      <point x="424" y="-162" type="curve"/>
      <point x="372" y="-113" type="line"/>
      <point x="359" y="-134"/>
      <point x="339" y="-140"/>
      <point x="318" y="-140" type="curve" smooth="yes"/>
      <point x="292" y="-140"/>
      <point x="283" y="-127"/>
      <point x="283" y="-111" type="curve" smooth="yes"/>
      <point x="283" y="-91"/>
      <point x="303" y="-53"/>
      <point x="393" y="-10" type="curve" smooth="yes"/>
      <point x="505" y="45"/>
      <point x="566" y="79"/>
      <point x="605" y="275" type="curve" smooth="yes"/>
      <point x="690" y="698" type="line"/>
      <point x="547" y="698" type="line"/>
      <point x="460" y="267" type="line" smooth="yes"/>
      <point x="439" y="164"/>
      <point x="394" y="117"/>
      <point x="314" y="117" type="curve" smooth="yes"/>
      <point x="247" y="117"/>
      <point x="212" y="151"/>
      <point x="212" y="217" type="curve" smooth="yes" name=""/>
      <point x="212" y="236"/>
      <point x="215" y="262"/>
      <point x="219" y="280" type="curve" smooth="yes"/>
      <point x="303" y="698" type="line"/>
    </contour>
    <contour>
      <point x="421.0" y="698.0" type="move" name="top"/>
    </contour>
  </outline>
</glyph>
<glyph name="uogonek" format="1">
  <advance width="582"/>
  <unicode hex="0173"/>
  <outline>
    <contour>
      <point x="114" y="525" type="line" name=""/>
      <point x="49" y="200" type="line" smooth="yes"/>
      <point x="44" y="173"/>
      <point x="40" y="150"/>
      <point x="40" y="124" type="curve" smooth="yes"/>
      <point x="40" y="38"/>
      <point x="85" y="-12"/>
      <point x="164" y="-12" type="curve" smooth="yes"/>
      <point x="244" y="-12"/>
      <point x="294" y="40"/>
      <point x="333" y="122" type="curve"/>
      <point x="339" y="122" type="line"/>
      <point x="336" y="107" type="line" smooth="yes"/>
      <point x="335" y="101"/>
      <point x="333" y="85"/>
      <point x="333" y="73" type="curve" smooth="yes"/>
      <point x="333" y="27"/>
      <point x="374" y="0"/>
      <point x="428" y="0" type="curve" smooth="yes"/>
      <point x="430" y="0" type="line" name=""/>
      <point x="430" y="-4" type="line"/>
      <point x="333" y="-30"/>
      <point x="292" y="-79"/>
      <point x="292" y="-129" type="curve" smooth="yes"/>
      <point x="292" y="-183"/>
      <point x="345" y="-212"/>
      <point x="411" y="-212" type="curve" smooth="yes"/>
      <point x="474" y="-212"/>
      <point x="511" y="-192"/>
      <point x="536" y="-162" type="curve"/>
      <point x="484" y="-113" type="line"/>
      <point x="471" y="-134"/>
      <point x="451" y="-140"/>
      <point x="430" y="-140" type="curve" smooth="yes"/>
      <point x="404" y="-140"/>
      <point x="395" y="-127"/>
      <point x="395" y="-111" type="curve" smooth="yes"/>
      <point x="395" y="-91"/>
      <point x="404" y="-66"/>
      <point x="514" y="0" type="curve"/>
      <point x="536" y="112" type="line"/>
      <point x="477" y="112" type="line"/>
      <point x="560" y="525" type="line"/>
      <point x="420" y="525" type="line"/>
      <point x="366" y="255" type="line" smooth="yes"/>
      <point x="358" y="215"/>
      <point x="341" y="181"/>
      <point x="318" y="153" type="curve" smooth="yes"/>
      <point x="295" y="125"/>
      <point x="268" y="105"/>
      <point x="234" y="105" type="curve" smooth="yes" name=""/>
      <point x="200" y="105"/>
      <point x="185" y="126"/>
      <point x="185" y="160" type="curve" smooth="yes"/>
      <point x="185" y="175"/>
      <point x="188" y="194"/>
      <point x="192" y="213" type="curve" smooth="yes"/>
      <point x="254" y="525" type="line"/>
    </contour>
    <contour>
      <point x="336.0" y="540.0" type="move" name="top"/>
    </contour>
  </outline>
</glyph>
<glyph name="zcaron" format="1">
  <advance width="492"/>
  <unicode hex="017E"/>
  <outline>
    <component base="z"/>
    <component base="caron" xOffset="6"/>
    <contour>
      <point x="197.0" y="0.0" type="move" name="bottom"/>
    </contour>
  </outline>
</glyph>
<glyph name="Schwa" format="1">
  <advance width="696"/>
  <unicode hex="018F"/>
  <outline>
    <contour>
      <point x="309" y="-12" type="curve" smooth="yes" name=""/>
      <point x="490" y="-12"/>
      <point x="623" y="128"/>
      <point x="659" y="325" type="curve" smooth="yes"/>
      <point x="666" y="361"/>
      <point x="669" y="398"/>
      <point x="669" y="437" type="curve" smooth="yes"/>
      <point x="669" y="617"/>
      <point x="557" y="710"/>
      <point x="410" y="710" type="curve" smooth="yes"/>
      <point x="268" y="710"/>
      <point x="164" y="630"/>
      <point x="109" y="521" type="curve"/>
      <point x="239" y="466" type="line"/>
      <point x="270" y="537"/>
      <point x="312" y="580"/>
      <point x="388" y="580" type="curve" smooth="yes"/>
      <point x="475" y="580"/>
      <point x="520" y="533"/>
      <point x="520" y="455" type="curve" smooth="yes"/>
      <point x="520" y="438"/>
      <point x="520" y="421"/>
      <point x="513" y="394" type="curve"/>
      <point x="76" y="394" type="line"/>
      <point x="62" y="328"/>
      <point x="57" y="295"/>
      <point x="57" y="267" type="curve" smooth="yes"/>
      <point x="57" y="74"/>
      <point x="168" y="-12"/>
    </contour>
    <contour>
      <point x="323" y="118" type="curve" smooth="yes"/>
      <point x="243" y="118"/>
      <point x="203" y="161"/>
      <point x="203" y="243" type="curve" smooth="yes"/>
      <point x="203" y="255"/>
      <point x="203" y="266"/>
      <point x="205" y="279" type="curve"/>
      <point x="490" y="279" type="line"/>
      <point x="465" y="170"/>
      <point x="407" y="118"/>
    </contour>
    <contour>
      <point x="301.0" y="0.0" type="move" name="bottom"/>
    </contour>
    <contour>
      <point x="417.0" y="698.0" type="move" name="top"/>
    </contour>
  </outline>
</glyph>
<glyph name="Ohorn" format="1">
  <advance width="695"/>
  <unicode hex="01A0"/>
  <outline>
    <contour>
      <point x="308" y="-12" type="curve" smooth="yes" name="hr00"/>
      <point x="484" y="-12"/>
      <point x="619" y="128"/>
      <point x="657" y="316" type="curve" smooth="yes"/>
      <point x="664" y="352"/>
      <point x="668" y="389"/>
      <point x="668" y="427" type="curve" smooth="yes"/>
      <point x="668" y="503"/>
      <point x="649" y="563"/>
      <point x="619" y="607" type="curve"/>
      <point x="619" y="610" type="line"/>
      <point x="628" y="610" type="line" smooth="yes"/>
      <point x="707" y="610"/>
      <point x="735" y="633"/>
      <point x="750" y="709" type="curve" smooth="yes" name="hr03"/>
      <point x="769" y="804" type="line"/>
      <point x="644" y="804" type="line" name="hr04"/>
      <point x="623" y="698" type="line"/>
      <point x="500" y="698" type="line"/>
      <point x="474" y="706"/>
      <point x="446" y="710"/>
      <point x="417" y="710" type="curve" smooth="yes"/>
      <point x="241" y="710"/>
      <point x="106" y="570"/>
      <point x="68" y="382" type="curve" smooth="yes"/>
      <point x="61" y="346"/>
      <point x="57" y="309"/>
      <point x="57" y="271" type="curve" smooth="yes"/>
      <point x="57" y="73"/>
      <point x="174" y="-12"/>
    </contour>
    <contour>
      <point x="318" y="117" type="curve" smooth="yes"/>
      <point x="242" y="117"/>
      <point x="204" y="161"/>
      <point x="204" y="245" type="curve" smooth="yes"/>
      <point x="204" y="259"/>
      <point x="205" y="277"/>
      <point x="209" y="297" type="curve" smooth="yes"/>
      <point x="230" y="402" type="line" smooth="yes"/>
      <point x="253" y="515"/>
      <point x="314" y="581"/>
      <point x="407" y="581" type="curve" smooth="yes"/>
      <point x="483" y="581"/>
      <point x="521" y="537"/>
      <point x="521" y="453" type="curve" smooth="yes"/>
      <point x="521" y="439"/>
      <point x="520" y="421"/>
      <point x="516" y="401" type="curve" smooth="yes"/>
      <point x="495" y="296" type="line" smooth="yes"/>
      <point x="472" y="183"/>
      <point x="411" y="117"/>
    </contour>
    <contour>
      <point x="308" y="0" type="move" name="bottom"/>
    </contour>
    <contour>
      <point x="407" y="698" type="move" name="top"/>
    </contour>
  </outline>
</glyph>
<glyph name="ohorn" format="1">
  <advance width="542"/>
  <unicode hex="01A1"/>
  <outline>
    <contour>
      <point x="240" y="-12" type="curve" name=""/>
      <point x="369" y="-12"/>
      <point x="470" y="83"/>
      <point x="501" y="224" type="curve" smooth="yes"/>
      <point x="508" y="253"/>
      <point x="511" y="285"/>
      <point x="511" y="318" type="curve" smooth="yes"/>
      <point x="511" y="364"/>
      <point x="501" y="405"/>
      <point x="485" y="436" type="curve"/>
      <point x="485" y="438" type="line"/>
      <point x="488" y="438" type="line" smooth="yes"/>
      <point x="551" y="438"/>
      <point x="571" y="472"/>
      <point x="585" y="537" type="curve" smooth="yes" name=""/>
      <point x="604" y="631" type="line"/>
      <point x="479" y="631" type="line"/>
      <point x="458" y="525" type="line" name=""/>
      <point x="381" y="525" type="line"/>
      <point x="358" y="533"/>
      <point x="330" y="537"/>
      <point x="302" y="537" type="curve" smooth="yes" name=""/>
      <point x="173" y="537"/>
      <point x="72" y="442"/>
      <point x="41" y="301" type="curve" smooth="yes"/>
      <point x="34" y="272"/>
      <point x="31" y="240"/>
      <point x="31" y="207" type="curve" smooth="yes"/>
      <point x="31" y="69"/>
      <point x="112" y="-12"/>
    </contour>
    <contour>
      <point x="245" y="101" type="curve" smooth="yes"/>
      <point x="196" y="101"/>
      <point x="170" y="134"/>
      <point x="170" y="184" type="curve" smooth="yes"/>
      <point x="170" y="197"/>
      <point x="172" y="209"/>
      <point x="173" y="215" type="curve" smooth="yes"/>
      <point x="192" y="309" type="line" smooth="yes"/>
      <point x="207" y="384"/>
      <point x="244" y="424"/>
      <point x="297" y="424" type="curve" smooth="yes"/>
      <point x="346" y="424"/>
      <point x="372" y="391"/>
      <point x="372" y="341" type="curve" smooth="yes"/>
      <point x="372" y="328"/>
      <point x="370" y="316"/>
      <point x="369" y="310" type="curve" smooth="yes"/>
      <point x="350" y="216" type="line" smooth="yes"/>
      <point x="335" y="141"/>
      <point x="298" y="101"/>
    </contour>
    <contour>
      <point x="228.0" y="0.0" type="move" name="bottom"/>
    </contour>
    <contour>
      <point x="317.0" y="540.0" type="move" name="top"/>
    </contour>
  </outline>
</glyph>
<glyph name="Uhorn" format="1">
  <advance width="678"/>
  <unicode hex="01AF"/>
  <outline>
    <contour>
      <point x="160" y="698" type="line" name="hr00"/>
      <point x="81" y="303" type="line" smooth="yes"/>
      <point x="74" y="269"/>
      <point x="72" y="240"/>
      <point x="72" y="214" type="curve" smooth="yes"/>
      <point x="72" y="65"/>
      <point x="156" y="-12"/>
      <point x="308" y="-12" type="curve" smooth="yes"/>
      <point x="481" y="-12"/>
      <point x="566" y="79"/>
      <point x="605" y="275" type="curve"/>
      <point x="673" y="613" type="line"/>
      <point x="675" y="613" type="line" smooth="yes"/>
      <point x="714" y="613"/>
      <point x="745" y="646"/>
      <point x="757" y="708" type="curve" smooth="yes"/>
      <point x="776" y="804" type="line"/>
      <point x="651" y="804" type="line"/>
      <point x="630" y="698" type="line"/>
      <point x="547" y="698" type="line"/>
      <point x="461" y="270" type="line" smooth="yes"/>
      <point x="440" y="167"/>
      <point x="395" y="120"/>
      <point x="315" y="120" type="curve" smooth="yes"/>
      <point x="248" y="120"/>
      <point x="213" y="154"/>
      <point x="213" y="220" type="curve" smooth="yes"/>
      <point x="213" y="239"/>
      <point x="216" y="265"/>
      <point x="220" y="283" type="curve" smooth="yes"/>
      <point x="303" y="698" type="line"/>
    </contour>
    <contour>
      <point x="283.0" y="0.0" type="move" name="bottom"/>
    </contour>
    <contour>
      <point x="413.0" y="698.0" type="move" name="top"/>
    </contour>
  </outline>
</glyph>
<glyph name="dotlessj" format="1">
  <advance width="276"/>
  <unicode hex="0237"/>
  <outline>
    <contour>
      <point x="-97" y="-200" type="line" name="hr00"/>
      <point x="-18" y="-200" type="line" smooth="yes"/>
      <point x="79" y="-200"/>
      <point x="126" y="-152"/>
      <point x="144" y="-61" type="curve" smooth="yes"/>
      <point x="263" y="525" type="line"/>
      <point x="123" y="525" type="line"/>
      <point x="0" y="-88" type="line"/>
      <point x="-75" y="-88" type="line"/>
    </contour>
    <contour>
      <point x="196" y="540" type="move" name="top"/>
    </contour>
  </outline>
</glyph>
<glyph name="schwa" format="1">
  <advance width="515"/>
  <unicode hex="0259"/>
  <outline>
    <contour>
      <point x="199" y="-12" type="curve" smooth="yes"/>
      <point x="347" y="-12"/>
      <point x="450" y="101"/>
      <point x="477" y="238" type="curve" smooth="yes"/>
      <point x="482" y="262"/>
      <point x="484" y="286"/>
      <point x="484" y="311" type="curve" smooth="yes"/>
      <point x="484" y="450"/>
      <point x="411" y="537"/>
      <point x="262" y="537" type="curve" smooth="yes" name=""/>
      <point x="172" y="537"/>
      <point x="103" y="505"/>
      <point x="38" y="419" type="curve"/>
      <point x="124" y="351" type="line"/>
      <point x="171" y="410"/>
      <point x="206" y="424"/>
      <point x="252" y="424" type="curve" smooth="yes"/>
      <point x="321" y="424"/>
      <point x="345" y="390"/>
      <point x="345" y="340" type="curve" smooth="yes"/>
      <point x="345" y="335"/>
      <point x="345" y="329"/>
      <point x="343" y="317" type="curve"/>
      <point x="108" y="310"/>
      <point x="11" y="242"/>
      <point x="11" y="134" type="curve" smooth="yes"/>
      <point x="11" y="20"/>
      <point x="120" y="-12"/>
    </contour>
    <contour>
      <point x="207" y="95" type="curve" smooth="yes"/>
      <point x="182" y="95"/>
      <point x="147" y="103"/>
      <point x="147" y="148" type="curve" smooth="yes"/>
      <point x="147" y="190"/>
      <point x="178" y="219"/>
      <point x="328" y="228" type="curve"/>
      <point x="324" y="205" type="line" smooth="yes"/>
      <point x="312" y="137"/>
      <point x="266" y="95"/>
    </contour>
    <contour>
      <point x="196.0" y="0.0" type="move" name="bottom"/>
    </contour>
    <contour>
      <point x="266.0" y="540.0" type="move" name="top"/>
    </contour>
  </outline>
</glyph>
<glyph name="commaturnedtop" format="1">
  <advance width="600"/>
  <unicode hex="02BB"/>
  <outline>
    <contour>
      <point x="308" y="576" type="curve" smooth="yes" name="hr00"/>
      <point x="347" y="576"/>
      <point x="374" y="598"/>
      <point x="382" y="638" type="curve" smooth="yes"/>
      <point x="385" y="653"/>
      <point x="386" y="660"/>
      <point x="386" y="665" type="curve" smooth="yes"/>
      <point x="386" y="689"/>
      <point x="377" y="708"/>
      <point x="347" y="710" type="curve"/>
      <point x="365" y="750"/>
      <point x="388" y="780"/>
      <point x="427" y="809" type="curve"/>
      <point x="344" y="809" type="line"/>
      <point x="301" y="777"/>
      <point x="260" y="714"/>
      <point x="248" y="654" type="curve" smooth="yes"/>
      <point x="245" y="639"/>
      <point x="245" y="635"/>
      <point x="245" y="627" type="curve" smooth="yes"/>
      <point x="245" y="594"/>
      <point x="266" y="576"/>
    </contour>
    <contour>
      <point x="300" y="540" type="move" name="_top"/>
    </contour>
  </outline>
</glyph>
<glyph name="caronslovak" format="1">
  <advance width="585"/>
  <unicode hex="02BC"/>
  <outline>
    <contour>
      <point x="457" y="740" type="line" name="hr00"/>
      <point x="301" y="740" type="line"/>
      <point x="251" y="525" type="line"/>
      <point x="348" y="525" type="line"/>
    </contour>
    <contour>
      <point x="293" y="740" type="move" name="_topright"/>
    </contour>
  </outline>
</glyph>
<glyph name="caron" format="1">
  <advance width="585"/>
  <unicode hex="02C7"/>
  <outline>
    <contour>
      <point x="364" y="588" type="line" name="hr00"/>
      <point x="519" y="746" type="line"/>
      <point x="447" y="803" type="line"/>
      <point x="310" y="688" type="line"/>
      <point x="214" y="803" type="line"/>
      <point x="140" y="746" type="line"/>
      <point x="241" y="588" type="line"/>
    </contour>
    <contour>
      <point x="293" y="540" type="move" name="_top"/>
    </contour>
  </outline>
</glyph>
<glyph name="hungarumlaut" format="1">
  <advance width="585"/>
  <unicode hex="02DD"/>
  <outline>
    <contour>
      <point x="361" y="755" type="line" name="hr00"/>
      <point x="256" y="811" type="line"/>
      <point x="143" y="618" type="line"/>
      <point x="220" y="580" type="line"/>
    </contour>
    <contour>
      <point x="557" y="755" type="line"/>
      <point x="452" y="811" type="line"/>
      <point x="339" y="618" type="line"/>
      <point x="415" y="580" type="line"/>
    </contour>
    <contour>
      <point x="293" y="540" type="move" name="_top"/>
    </contour>
  </outline>
</glyph>
<glyph name="hookcomb" format="1">
  <advance width="0"/>
  <unicode hex="0309"/>
  <outline>
    <contour>
      <point x="-84" y="698" type="line" name="hr00"/>
      <point x="33" y="698" type="line"/>
      <point x="-16" y="605" type="line"/>
      <point x="53" y="571" type="line"/>
      <point x="109" y="637" type="line" smooth="yes"/>
      <point x="137" y="673"/>
      <point x="160" y="703"/>
      <point x="160" y="745" type="curve" smooth="yes"/>
      <point x="160" y="777"/>
      <point x="134" y="802"/>
      <point x="82" y="802" type="curve" smooth="yes"/>
      <point x="-64" y="802" type="line"/>
    </contour>
    <contour>
      <point x="0" y="540" type="move" name="_top"/>
    </contour>
  </outline>
</glyph>
<glyph name="commabelowcomb" format="1">
  <advance width="0"/>
  <unicode hex="0326"/>
  <outline>
    <contour>
      <point x="-11" y="-42" type="curve" smooth="yes" name="hr00"/>
      <point x="-50" y="-42"/>
      <point x="-77" y="-64"/>
      <point x="-85" y="-104" type="curve" smooth="yes"/>
      <point x="-88" y="-119"/>
      <point x="-89" y="-126"/>
      <point x="-89" y="-131" type="curve" smooth="yes"/>
      <point x="-89" y="-155"/>
      <point x="-80" y="-174"/>
      <point x="-50" y="-176" type="curve"/>
      <point x="-68" y="-216"/>
      <point x="-91" y="-246"/>
      <point x="-130" y="-275" type="curve"/>
      <point x="-47" y="-275" type="line"/>
      <point x="-4" y="-243"/>
      <point x="37" y="-180"/>
      <point x="49" y="-120" type="curve" smooth="yes"/>
      <point x="52" y="-105"/>
      <point x="52" y="-101"/>
      <point x="52" y="-93" type="curve" smooth="yes"/>
      <point x="52" y="-60"/>
      <point x="31" y="-42"/>
    </contour>
    <contour>
      <point x="0" y="0" type="move" name="_bottom"/>
    </contour>
  </outline>
</glyph>
<glyph name="pi" format="1">
  <advance width="645"/>
  <unicode hex="03C0"/>
  <outline>
    <contour>
      <point x="528" y="0" type="line" name=""/>
      <point x="550" y="112" type="line"/>
      <point x="482" y="112" type="line"/>
      <point x="543" y="413" type="line"/>
      <point x="639" y="413" type="line"/>
      <point x="661" y="525" type="line"/>
      <point x="75" y="525" type="line"/>
      <point x="53" y="413" type="line"/>
      <point x="133" y="413" type="line"/>
      <point x="50" y="0" type="line"/>
      <point x="190" y="0" type="line"/>
      <point x="273" y="413" type="line"/>
      <point x="402" y="413" type="line"/>
      <point x="348" y="142" type="line" smooth="yes"/>
      <point x="345" y="127"/>
      <point x="344" y="109"/>
      <point x="344" y="99" type="curve" smooth="yes"/>
      <point x="344" y="33"/>
      <point x="386" y="0"/>
      <point x="467" y="0" type="curve" smooth="yes"/>
    </contour>
  </outline>
</glyph>
<glyph name="baht" format="1">
  <advance width="644"/>
  <unicode hex="0E3F"/>
  <outline>
    <contour>
      <point x="329" y="20" type="line"/>
      <point x="353" y="20" type="line" smooth="yes"/>
      <point x="500" y="20"/>
      <point x="597" y="119"/>
      <point x="597" y="231" type="curve" smooth="yes"/>
      <point x="597" y="297"/>
      <point x="556" y="352"/>
      <point x="491" y="365" type="curve"/>
      <point x="492" y="370" type="line"/>
      <point x="574" y="389"/>
      <point x="633" y="445"/>
      <point x="633" y="533" type="curve" smooth="yes" name=""/>
      <point x="633" y="620"/>
      <point x="564" y="678"/>
      <point x="462" y="678" type="curve" smooth="yes"/>
      <point x="460" y="678" type="line"/>
      <point x="481" y="780" type="line"/>
      <point x="372" y="780" type="line"/>
      <point x="351" y="678" type="line"/>
      <point x="158" y="678" type="line"/>
      <point x="26" y="20" type="line"/>
      <point x="219" y="20" type="line"/>
      <point x="198" y="-90" type="line"/>
      <point x="307" y="-90" type="line"/>
    </contour>
    <contour>
      <point x="241" y="407" type="line"/>
      <point x="271" y="560" type="line"/>
      <point x="336" y="560" type="line"/>
      <point x="306" y="407" type="line"/>
    </contour>
    <contour>
      <point x="434" y="560" type="line" smooth="yes"/>
      <point x="467" y="560"/>
      <point x="488" y="545"/>
      <point x="488" y="514" type="curve" smooth="yes"/>
      <point x="488" y="507"/>
      <point x="487" y="500"/>
      <point x="481" y="470" type="curve" smooth="yes"/>
      <point x="473" y="430"/>
      <point x="446" y="407"/>
      <point x="406" y="407" type="curve" smooth="yes"/>
      <point x="396" y="407" type="line"/>
      <point x="427" y="560" type="line"/>
    </contour>
    <contour>
      <point x="187" y="138" type="line"/>
      <point x="218" y="294" type="line"/>
      <point x="283" y="294" type="line"/>
      <point x="252" y="138" type="line"/>
    </contour>
    <contour>
      <point x="404" y="294" type="line" smooth="yes"/>
      <point x="438" y="294"/>
      <point x="458" y="277"/>
      <point x="458" y="247" type="curve" smooth="yes" name=""/>
      <point x="458" y="242"/>
      <point x="458" y="235"/>
      <point x="451" y="200" type="curve" smooth="yes"/>
      <point x="443" y="160"/>
      <point x="415" y="138"/>
      <point x="376" y="138" type="curve" smooth="yes"/>
      <point x="343" y="138" type="line"/>
      <point x="374" y="294" type="line"/>
    </contour>
  </outline>
</glyph>
<glyph name="Germandbls" format="1">
  <advance width="724"/>
  <unicode hex="1E9E"/>
  <outline>
    <contour>
      <point x="429" y="110" type="curve" smooth="yes" name=""/>
      <point x="385" y="110"/>
      <point x="361" y="131"/>
      <point x="340" y="164" type="curve"/>
      <point x="232" y="80" type="line"/>
      <point x="263" y="26"/>
      <point x="317" y="-12"/>
      <point x="423" y="-12" type="curve" smooth="yes"/>
      <point x="568" y="-12"/>
      <point x="654" y="88"/>
      <point x="675" y="193" type="curve" smooth="yes"/>
      <point x="678" y="210"/>
      <point x="680" y="227"/>
      <point x="680" y="244" type="curve" smooth="yes"/>
      <point x="680" y="348"/>
      <point x="609" y="404"/>
      <point x="533" y="410" type="curve"/>
      <point x="534" y="415" type="line"/>
      <point x="687" y="559" type="line"/>
      <point x="715" y="698" type="line"/>
      <point x="162" y="698" type="line"/>
      <point x="22" y="0" type="line"/>
      <point x="167" y="0" type="line"/>
      <point x="281" y="570" type="line"/>
      <point x="539" y="570" type="line"/>
      <point x="378" y="419" type="line"/>
      <point x="355" y="302" type="line"/>
      <point x="461" y="302" type="line" smooth="yes"/>
      <point x="517" y="302"/>
      <point x="534" y="276"/>
      <point x="534" y="241" type="curve" smooth="yes"/>
      <point x="534" y="232"/>
      <point x="532" y="217"/>
      <point x="525" y="189" type="curve" smooth="yes"/>
      <point x="514" y="144"/>
      <point x="482" y="110"/>
    </contour>
  </outline>
</glyph>
<glyph name="emdash" format="1">
  <advance width="773"/>
  <unicode hex="2014"/>
  <outline>
    <contour>
      <point x="733" y="246" type="line" name="hr00"/>
      <point x="756" y="361" type="line"/>
      <point x="55" y="361" type="line"/>
      <point x="32" y="246" type="line"/>
    </contour>
  </outline>
</glyph>
<glyph name="horizontalbar" format="1">
  <advance width="1000"/>
  <unicode hex="2015"/>
  <outline>
    <contour>
      <point x="996" y="246" type="line" name=""/>
      <point x="1019" y="361" type="line"/>
      <point x="19" y="361" type="line"/>
      <point x="-4" y="246" type="line"/>
    </contour>
  </outline>
</glyph>
<glyph name="dagger" format="1">
  <advance width="509"/>
  <unicode hex="2020"/>
  <outline>
    <contour>
      <point x="223" y="-200" type="line" name="hr00"/>
      <point x="345" y="409" type="line"/>
      <point x="514" y="409" type="line"/>
      <point x="535" y="515" type="line"/>
      <point x="366" y="515" type="line"/>
      <point x="411" y="740" type="line"/>
      <point x="288" y="740" type="line"/>
      <point x="243" y="515" type="line"/>
      <point x="70" y="515" type="line"/>
      <point x="49" y="409" type="line"/>
      <point x="222" y="409" type="line"/>
      <point x="100" y="-200" type="line"/>
    </contour>
  </outline>
</glyph>
<glyph name="daggerdbl" format="1">
  <advance width="531"/>
  <unicode hex="2021"/>
  <outline>
    <contour>
      <point x="234" y="-200" type="line" name="hr00"/>
      <point x="279" y="25" type="line"/>
      <point x="450" y="25" type="line"/>
      <point x="471" y="131" type="line"/>
      <point x="300" y="131" type="line"/>
      <point x="356" y="409" type="line"/>
      <point x="525" y="409" type="line"/>
      <point x="546" y="515" type="line"/>
      <point x="377" y="515" type="line"/>
      <point x="422" y="740" type="line"/>
      <point x="299" y="740" type="line"/>
      <point x="254" y="515" type="line"/>
      <point x="81" y="515" type="line"/>
      <point x="60" y="409" type="line"/>
      <point x="233" y="409" type="line"/>
      <point x="177" y="131" type="line"/>
      <point x="7" y="131" type="line"/>
      <point x="-14" y="25" type="line"/>
      <point x="156" y="25" type="line"/>
      <point x="111" y="-200" type="line"/>
    </contour>
  </outline>
</glyph>
<glyph name="perthousand" format="1">
  <advance width="1333"/>
  <unicode hex="2030"/>
  <outline>
    <contour>
      <point x="253" y="398" type="curve" smooth="yes"/>
      <point x="227" y="398"/>
      <point x="211" y="416"/>
      <point x="211" y="448" type="curve" smooth="yes"/>
      <point x="211" y="459"/>
      <point x="213" y="473"/>
      <point x="216" y="488" type="curve" smooth="yes"/>
      <point x="226" y="538" type="line" smooth="yes"/>
      <point x="238" y="598"/>
      <point x="255" y="626"/>
      <point x="289" y="626" type="curve" smooth="yes"/>
      <point x="315" y="626"/>
      <point x="331" y="608"/>
      <point x="331" y="576" type="curve" smooth="yes"/>
      <point x="331" y="565"/>
      <point x="329" y="551"/>
      <point x="326" y="536" type="curve" smooth="yes"/>
      <point x="316" y="486" type="line" smooth="yes"/>
      <point x="304" y="426"/>
      <point x="287" y="398"/>
    </contour>
    <contour>
      <point x="687" y="72" type="curve" smooth="yes"/>
      <point x="661" y="72"/>
      <point x="645" y="90"/>
      <point x="645" y="122" type="curve" smooth="yes"/>
      <point x="645" y="133"/>
      <point x="647" y="147"/>
      <point x="650" y="162" type="curve" smooth="yes"/>
      <point x="660" y="212" type="line" smooth="yes"/>
      <point x="672" y="272"/>
      <point x="689" y="300"/>
      <point x="723" y="300" type="curve" smooth="yes"/>
      <point x="749" y="300"/>
      <point x="765" y="282"/>
      <point x="765" y="250" type="curve" smooth="yes"/>
      <point x="765" y="239"/>
      <point x="763" y="225"/>
      <point x="760" y="210" type="curve" smooth="yes"/>
      <point x="750" y="160" type="line" smooth="yes"/>
      <point x="738" y="100"/>
      <point x="721" y="72"/>
    </contour>
    <contour>
      <point x="1081" y="72" type="curve" smooth="yes"/>
      <point x="1055" y="72"/>
      <point x="1039" y="90"/>
      <point x="1039" y="122" type="curve" smooth="yes"/>
      <point x="1039" y="133"/>
      <point x="1041" y="147"/>
      <point x="1044" y="162" type="curve" smooth="yes"/>
      <point x="1054" y="212" type="line" smooth="yes"/>
      <point x="1066" y="272"/>
      <point x="1083" y="300"/>
      <point x="1117" y="300" type="curve" smooth="yes"/>
      <point x="1143" y="300"/>
      <point x="1159" y="282"/>
      <point x="1159" y="250" type="curve" smooth="yes"/>
      <point x="1159" y="239"/>
      <point x="1157" y="225"/>
      <point x="1154" y="210" type="curve" smooth="yes"/>
      <point x="1144" y="160" type="line" smooth="yes"/>
      <point x="1132" y="100"/>
      <point x="1115" y="72"/>
    </contour>
    <contour>
      <point x="295" y="710" type="curve" smooth="yes" name="hr01"/>
      <point x="205" y="710"/>
      <point x="118" y="642"/>
      <point x="97" y="529" type="curve" smooth="yes"/>
      <point x="94" y="512"/>
      <point x="92" y="494"/>
      <point x="92" y="475" type="curve" smooth="yes"/>
      <point x="92" y="367"/>
      <point x="153" y="314"/>
      <point x="247" y="314" type="curve" smooth="yes"/>
      <point x="337" y="314"/>
      <point x="424" y="382"/>
      <point x="445" y="495" type="curve" smooth="yes"/>
      <point x="448" y="512"/>
      <point x="450" y="530"/>
      <point x="450" y="549" type="curve" smooth="yes"/>
      <point x="450" y="657"/>
      <point x="389" y="710"/>
    </contour>
    <contour>
      <point x="681" y="-12" type="curve" smooth="yes"/>
      <point x="771" y="-12"/>
      <point x="858" y="56"/>
      <point x="879" y="169" type="curve" smooth="yes"/>
      <point x="882" y="186"/>
      <point x="884" y="204"/>
      <point x="884" y="223" type="curve" smooth="yes"/>
      <point x="884" y="331"/>
      <point x="823" y="384"/>
      <point x="729" y="384" type="curve" smooth="yes" name="hr01"/>
      <point x="639" y="384"/>
      <point x="552" y="316"/>
      <point x="531" y="203" type="curve" smooth="yes"/>
      <point x="528" y="186"/>
      <point x="526" y="168"/>
      <point x="526" y="149" type="curve" smooth="yes"/>
      <point x="526" y="41"/>
      <point x="587" y="-12"/>
    </contour>
    <contour>
      <point x="1075" y="-12" type="curve" smooth="yes"/>
      <point x="1165" y="-12"/>
      <point x="1252" y="56"/>
      <point x="1273" y="169" type="curve" smooth="yes"/>
      <point x="1276" y="186"/>
      <point x="1278" y="204"/>
      <point x="1278" y="223" type="curve" smooth="yes"/>
      <point x="1278" y="331"/>
      <point x="1217" y="384"/>
      <point x="1123" y="384" type="curve" smooth="yes" name="hr01"/>
      <point x="1033" y="384"/>
      <point x="946" y="316"/>
      <point x="925" y="203" type="curve" smooth="yes"/>
      <point x="922" y="186"/>
      <point x="920" y="168"/>
      <point x="920" y="149" type="curve" smooth="yes"/>
      <point x="920" y="41"/>
      <point x="981" y="-12"/>
    </contour>
    <contour>
      <point x="268" y="0" type="line"/>
      <point x="832" y="698" type="line"/>
      <point x="708" y="698" type="line"/>
      <point x="144" y="0" type="line"/>
    </contour>
  </outline>
</glyph>
<glyph name="guilsinglleft" format="1">
  <advance width="312"/>
  <unicode hex="2039"/>
  <outline>
    <contour>
      <point x="247" y="132" type="line" name=""/>
      <point x="154" y="262" type="line"/>
      <point x="154" y="264" type="line"/>
      <point x="304" y="401" type="line"/>
      <point x="263" y="494" type="line"/>
      <point x="60" y="337" type="line"/>
      <point x="34" y="209" type="line"/>
      <point x="190" y="49" type="line"/>
    </contour>
  </outline>
</glyph>
<glyph name="guilsinglright" format="1">
  <advance width="312"/>
  <unicode hex="203A"/>
  <outline>
    <contour>
      <point x="52" y="50" type="line" name=""/>
      <point x="255" y="207" type="line"/>
      <point x="281" y="335" type="line"/>
      <point x="125" y="495" type="line"/>
      <point x="68" y="412" type="line"/>
      <point x="161" y="282" type="line"/>
      <point x="161" y="280" type="line"/>
      <point x="11" y="143" type="line"/>
    </contour>
  </outline>
</glyph>
<glyph name="zerosuperior" format="1">
  <advance width="360"/>
  <unicode hex="2070"/>
  <outline>
    <contour>
      <point x="205" y="323" type="curve" smooth="yes" name=""/>
      <point x="297" y="323"/>
      <point x="357" y="394"/>
      <point x="377" y="491" type="curve" smooth="yes"/>
      <point x="382" y="514"/>
      <point x="384" y="539"/>
      <point x="384" y="564" type="curve" smooth="yes"/>
      <point x="384" y="617"/>
      <point x="365" y="704"/>
      <point x="253" y="704" type="curve" smooth="yes"/>
      <point x="161" y="704"/>
      <point x="101" y="633"/>
      <point x="81" y="536" type="curve" smooth="yes"/>
      <point x="76" y="513"/>
      <point x="74" y="488"/>
      <point x="74" y="463" type="curve" smooth="yes"/>
      <point x="74" y="410"/>
      <point x="93" y="323"/>
    </contour>
    <contour>
      <point x="210" y="399" type="curve" smooth="yes"/>
      <point x="179" y="399"/>
      <point x="169" y="415"/>
      <point x="169" y="443" type="curve" smooth="yes"/>
      <point x="169" y="451"/>
      <point x="170" y="461"/>
      <point x="173" y="476" type="curve" smooth="yes"/>
      <point x="187" y="546" type="line" smooth="yes"/>
      <point x="197" y="596"/>
      <point x="209" y="628"/>
      <point x="248" y="628" type="curve" smooth="yes"/>
      <point x="279" y="628"/>
      <point x="289" y="612"/>
      <point x="289" y="584" type="curve" smooth="yes"/>
      <point x="289" y="576"/>
      <point x="288" y="566"/>
      <point x="285" y="551" type="curve" smooth="yes"/>
      <point x="271" y="481" type="line" smooth="yes"/>
      <point x="261" y="431"/>
      <point x="249" y="399"/>
    </contour>
  </outline>
</glyph>
<glyph name="foursuperior" format="1">
  <advance width="343"/>
  <unicode hex="2074"/>
  <outline>
    <contour>
      <point x="291" y="329" type="line" name="hr00"/>
      <point x="305" y="399" type="line"/>
      <point x="349" y="399" type="line"/>
      <point x="365" y="470" type="line"/>
      <point x="320" y="470" type="line"/>
      <point x="366" y="698" type="line"/>
      <point x="254" y="698" type="line"/>
      <point x="60" y="480" type="line"/>
      <point x="42" y="399" type="line"/>
      <point x="212" y="399" type="line"/>
      <point x="198" y="329" type="line"/>
    </contour>
    <contour>
      <point x="227" y="470" type="line"/>
      <point x="138" y="470" type="line"/>
      <point x="244" y="587" type="line"/>
      <point x="251" y="587" type="line"/>
    </contour>
  </outline>
</glyph>
<glyph name="sixsuperior" format="1">
  <advance width="350"/>
  <unicode hex="2076"/>
  <outline>
    <contour>
      <point x="201" y="323" type="curve" smooth="yes" name=""/>
      <point x="308" y="323"/>
      <point x="369" y="396"/>
      <point x="369" y="474" type="curve" smooth="yes"/>
      <point x="369" y="529"/>
      <point x="337" y="571"/>
      <point x="280" y="571" type="curve" smooth="yes"/>
      <point x="225" y="571"/>
      <point x="204" y="536"/>
      <point x="187" y="513" type="curve"/>
      <point x="182" y="515" type="line"/>
      <point x="214" y="597"/>
      <point x="285" y="633"/>
      <point x="393" y="698" type="curve"/>
      <point x="251" y="698" type="line"/>
      <point x="172" y="654"/>
      <point x="91" y="586"/>
      <point x="72" y="494" type="curve" smooth="yes"/>
      <point x="69" y="481"/>
      <point x="68" y="468"/>
      <point x="68" y="454" type="curve" smooth="yes"/>
      <point x="68" y="375"/>
      <point x="115" y="323"/>
    </contour>
    <contour>
      <point x="208" y="395" type="curve" smooth="yes"/>
      <point x="178" y="395"/>
      <point x="166" y="410"/>
      <point x="166" y="431" type="curve" smooth="yes"/>
      <point x="166" y="439"/>
      <point x="167" y="444"/>
      <point x="169" y="454" type="curve" smooth="yes"/>
      <point x="175" y="484"/>
      <point x="194" y="500"/>
      <point x="225" y="500" type="curve" smooth="yes"/>
      <point x="255" y="500"/>
      <point x="267" y="485"/>
      <point x="267" y="464" type="curve" smooth="yes"/>
      <point x="267" y="456"/>
      <point x="266" y="451"/>
      <point x="264" y="441" type="curve" smooth="yes"/>
      <point x="258" y="411"/>
      <point x="239" y="395"/>
    </contour>
  </outline>
</glyph>
<glyph name="sevensuperior" format="1">
  <advance width="325"/>
  <unicode hex="2077"/>
  <outline>
    <contour>
      <point x="194" y="329" type="line" name="hr00"/>
      <point x="374" y="617" type="line"/>
      <point x="390" y="698" type="line"/>
      <point x="102" y="698" type="line"/>
      <point x="73" y="555" type="line"/>
      <point x="155" y="555" type="line"/>
      <point x="168" y="621" type="line"/>
      <point x="277" y="621" type="line"/>
      <point x="88" y="329" type="line"/>
    </contour>
  </outline>
</glyph>
<glyph name="eightsuperior" format="1">
  <advance width="354"/>
  <unicode hex="2078"/>
  <outline>
    <contour>
      <point x="186" y="323" type="curve" smooth="yes"/>
      <point x="296" y="323"/>
      <point x="356" y="386"/>
      <point x="356" y="446" type="curve" smooth="yes"/>
      <point x="356" y="486"/>
      <point x="336" y="507"/>
      <point x="300" y="519" type="curve"/>
      <point x="301" y="523" type="line"/>
      <point x="348" y="539"/>
      <point x="381" y="571"/>
      <point x="381" y="617" type="curve" smooth="yes" name="hr01"/>
      <point x="381" y="667"/>
      <point x="344" y="704"/>
      <point x="260" y="704" type="curve" smooth="yes"/>
      <point x="150" y="704"/>
      <point x="105" y="645"/>
      <point x="105" y="596" type="curve" smooth="yes"/>
      <point x="105" y="560"/>
      <point x="122" y="534"/>
      <point x="151" y="521" type="curve"/>
      <point x="150" y="518" type="line"/>
      <point x="96" y="503"/>
      <point x="58" y="469"/>
      <point x="58" y="414" type="curve" smooth="yes" name="hr02"/>
      <point x="58" y="359"/>
      <point x="98" y="323"/>
    </contour>
    <contour>
      <point x="231" y="549" type="curve" smooth="yes"/>
      <point x="205" y="549"/>
      <point x="191" y="560"/>
      <point x="191" y="577" type="curve" smooth="yes" name="hr03"/>
      <point x="191" y="581"/>
      <point x="192" y="588"/>
      <point x="194" y="595" type="curve" smooth="yes"/>
      <point x="199" y="615"/>
      <point x="214" y="633"/>
      <point x="248" y="633" type="curve" smooth="yes"/>
      <point x="274" y="633"/>
      <point x="288" y="622"/>
      <point x="288" y="605" type="curve" smooth="yes"/>
      <point x="288" y="601"/>
      <point x="287" y="594"/>
      <point x="285" y="587" type="curve" smooth="yes"/>
      <point x="280" y="567"/>
      <point x="265" y="549"/>
    </contour>
    <contour>
      <point x="197" y="394" type="curve" smooth="yes"/>
      <point x="172" y="394"/>
      <point x="157" y="405"/>
      <point x="157" y="423" type="curve" smooth="yes" name="hr04"/>
      <point x="157" y="429"/>
      <point x="159" y="438"/>
      <point x="160" y="442" type="curve" smooth="yes"/>
      <point x="165" y="462"/>
      <point x="180" y="481"/>
      <point x="214" y="481" type="curve" smooth="yes"/>
      <point x="239" y="481"/>
      <point x="254" y="470"/>
      <point x="254" y="452" type="curve" smooth="yes"/>
      <point x="254" y="446"/>
      <point x="252" y="437"/>
      <point x="251" y="433" type="curve" smooth="yes"/>
      <point x="246" y="413"/>
      <point x="231" y="394"/>
    </contour>
  </outline>
</glyph>
<glyph name="ninesuperior" format="1">
  <advance width="350"/>
  <unicode hex="2079"/>
  <outline>
    <contour>
      <point x="244" y="704" type="curve" smooth="yes" name=""/>
      <point x="137" y="704"/>
      <point x="76" y="631"/>
      <point x="76" y="553" type="curve" smooth="yes"/>
      <point x="76" y="498"/>
      <point x="108" y="456"/>
      <point x="165" y="456" type="curve" smooth="yes"/>
      <point x="220" y="456"/>
      <point x="241" y="491"/>
      <point x="258" y="514" type="curve"/>
      <point x="263" y="512" type="line"/>
      <point x="231" y="430"/>
      <point x="160" y="394"/>
      <point x="52" y="329" type="curve"/>
      <point x="194" y="329" type="line"/>
      <point x="273" y="373"/>
      <point x="354" y="441"/>
      <point x="373" y="533" type="curve" smooth="yes"/>
      <point x="376" y="546"/>
      <point x="377" y="559"/>
      <point x="377" y="573" type="curve" smooth="yes"/>
      <point x="377" y="652"/>
      <point x="330" y="704"/>
    </contour>
    <contour>
      <point x="220" y="527" type="curve" smooth="yes"/>
      <point x="190" y="527"/>
      <point x="178" y="542"/>
      <point x="178" y="563" type="curve" smooth="yes"/>
      <point x="178" y="571"/>
      <point x="179" y="576"/>
      <point x="181" y="586" type="curve" smooth="yes"/>
      <point x="187" y="616"/>
      <point x="206" y="632"/>
      <point x="237" y="632" type="curve" smooth="yes"/>
      <point x="267" y="632"/>
      <point x="279" y="617"/>
      <point x="279" y="596" type="curve" smooth="yes"/>
      <point x="279" y="588"/>
      <point x="278" y="583"/>
      <point x="276" y="573" type="curve" smooth="yes"/>
      <point x="270" y="543"/>
      <point x="251" y="527"/>
    </contour>
  </outline>
</glyph>
<glyph name="zeroinferior" format="1">
  <advance width="360"/>
  <unicode hex="2080"/>
  <outline>
    <contour>
      <point x="140" y="-6" type="curve" smooth="yes" name=""/>
      <point x="232" y="-6"/>
      <point x="292" y="65"/>
      <point x="312" y="162" type="curve" smooth="yes"/>
      <point x="317" y="185"/>
      <point x="319" y="210"/>
      <point x="319" y="235" type="curve" smooth="yes"/>
      <point x="319" y="288"/>
      <point x="300" y="375"/>
      <point x="188" y="375" type="curve" smooth="yes"/>
      <point x="96" y="375"/>
      <point x="36" y="304"/>
      <point x="16" y="207" type="curve" smooth="yes"/>
      <point x="11" y="184"/>
      <point x="9" y="159"/>
      <point x="9" y="134" type="curve" smooth="yes"/>
      <point x="9" y="81"/>
      <point x="28" y="-6"/>
    </contour>
    <contour>
      <point x="145" y="70" type="curve" smooth="yes"/>
      <point x="114" y="70"/>
      <point x="104" y="86"/>
      <point x="104" y="114" type="curve" smooth="yes"/>
      <point x="104" y="122"/>
      <point x="105" y="132"/>
      <point x="108" y="147" type="curve" smooth="yes"/>
      <point x="122" y="217" type="line" smooth="yes"/>
      <point x="132" y="267"/>
      <point x="144" y="299"/>
      <point x="183" y="299" type="curve" smooth="yes"/>
      <point x="214" y="299"/>
      <point x="224" y="283"/>
      <point x="224" y="255" type="curve" smooth="yes"/>
      <point x="224" y="247"/>
      <point x="223" y="237"/>
      <point x="220" y="222" type="curve" smooth="yes"/>
      <point x="206" y="152" type="line" smooth="yes"/>
      <point x="196" y="102"/>
      <point x="184" y="70"/>
    </contour>
  </outline>
</glyph>
<glyph name="oneinferior" format="1">
  <advance width="344"/>
  <unicode hex="2081"/>
  <outline>
    <contour>
      <point x="256" y="0" type="line" name="hr00"/>
      <point x="271" y="76" type="line"/>
      <point x="198" y="76" type="line"/>
      <point x="257" y="369" type="line"/>
      <point x="101" y="369" type="line"/>
      <point x="9" y="262" type="line"/>
      <point x="68" y="213" type="line"/>
      <point x="140" y="296" type="line"/>
      <point x="146" y="296" type="line"/>
      <point x="102" y="76" type="line"/>
      <point x="21" y="76" type="line"/>
      <point x="6" y="0" type="line"/>
    </contour>
  </outline>
</glyph>
<glyph name="fourinferior" format="1">
  <advance width="343"/>
  <unicode hex="2084"/>
  <outline>
    <contour>
      <point x="225" y="0" type="line" name="hr00"/>
      <point x="239" y="70" type="line"/>
      <point x="283" y="70" type="line"/>
      <point x="299" y="141" type="line"/>
      <point x="254" y="141" type="line"/>
      <point x="300" y="369" type="line"/>
      <point x="188" y="369" type="line"/>
      <point x="-6" y="151" type="line"/>
      <point x="-24" y="70" type="line"/>
      <point x="146" y="70" type="line"/>
      <point x="132" y="0" type="line"/>
    </contour>
    <contour>
      <point x="161" y="141" type="line"/>
      <point x="72" y="141" type="line"/>
      <point x="178" y="258" type="line"/>
      <point x="185" y="258" type="line"/>
    </contour>
  </outline>
</glyph>
<glyph name="sixinferior" format="1">
  <advance width="350"/>
  <unicode hex="2086"/>
  <outline>
    <contour>
      <point x="135" y="-6" type="curve" smooth="yes" name=""/>
      <point x="242" y="-6"/>
      <point x="303" y="67"/>
      <point x="303" y="145" type="curve" smooth="yes"/>
      <point x="303" y="200"/>
      <point x="271" y="242"/>
      <point x="214" y="242" type="curve" smooth="yes"/>
      <point x="159" y="242"/>
      <point x="138" y="207"/>
      <point x="121" y="184" type="curve"/>
      <point x="116" y="186" type="line"/>
      <point x="148" y="268"/>
      <point x="219" y="304"/>
      <point x="327" y="369" type="curve"/>
      <point x="185" y="369" type="line"/>
      <point x="106" y="325"/>
      <point x="25" y="257"/>
      <point x="6" y="165" type="curve" smooth="yes"/>
      <point x="3" y="152"/>
      <point x="2" y="139"/>
      <point x="2" y="125" type="curve" smooth="yes"/>
      <point x="2" y="46"/>
      <point x="49" y="-6"/>
    </contour>
    <contour>
      <point x="142" y="66" type="curve" smooth="yes"/>
      <point x="112" y="66"/>
      <point x="100" y="81"/>
      <point x="100" y="102" type="curve" smooth="yes"/>
      <point x="100" y="110"/>
      <point x="101" y="115"/>
      <point x="103" y="125" type="curve" smooth="yes"/>
      <point x="109" y="155"/>
      <point x="128" y="171"/>
      <point x="159" y="171" type="curve" smooth="yes"/>
      <point x="189" y="171"/>
      <point x="201" y="156"/>
      <point x="201" y="135" type="curve" smooth="yes"/>
      <point x="201" y="127"/>
      <point x="200" y="122"/>
      <point x="198" y="112" type="curve" smooth="yes"/>
      <point x="192" y="82"/>
      <point x="173" y="66"/>
    </contour>
  </outline>
</glyph>
<glyph name="seveninferior" format="1">
  <advance width="325"/>
  <unicode hex="2087"/>
  <outline>
    <contour>
      <point x="128" y="0" type="line" name="hr00"/>
      <point x="308" y="288" type="line"/>
      <point x="324" y="369" type="line"/>
      <point x="36" y="369" type="line"/>
      <point x="7" y="226" type="line"/>
      <point x="89" y="226" type="line"/>
      <point x="102" y="292" type="line"/>
      <point x="211" y="292" type="line"/>
      <point x="22" y="0" type="line"/>
    </contour>
  </outline>
</glyph>
<glyph name="nineinferior" format="1">
  <advance width="350"/>
  <unicode hex="2089"/>
  <outline>
    <contour>
      <point x="-14" y="0" type="curve"/>
      <point x="128" y="0" type="line"/>
      <point x="207" y="44"/>
      <point x="288" y="112"/>
      <point x="307" y="204" type="curve" smooth="yes"/>
      <point x="310" y="217"/>
      <point x="311" y="230"/>
      <point x="311" y="244" type="curve" smooth="yes"/>
      <point x="311" y="323"/>
      <point x="264" y="375"/>
      <point x="178" y="375" type="curve" smooth="yes" name=""/>
      <point x="71" y="375"/>
      <point x="10" y="302"/>
      <point x="10" y="224" type="curve" smooth="yes"/>
      <point x="10" y="169"/>
      <point x="42" y="127"/>
      <point x="99" y="127" type="curve" smooth="yes"/>
      <point x="154" y="127"/>
      <point x="175" y="162"/>
      <point x="192" y="185" type="curve"/>
      <point x="197" y="183" type="line"/>
      <point x="165" y="101"/>
      <point x="94" y="65"/>
    </contour>
    <contour>
      <point x="154" y="198" type="curve" smooth="yes"/>
      <point x="124" y="198"/>
      <point x="112" y="213"/>
      <point x="112" y="234" type="curve" smooth="yes"/>
      <point x="112" y="242"/>
      <point x="113" y="247"/>
      <point x="115" y="257" type="curve" smooth="yes"/>
      <point x="121" y="287"/>
      <point x="140" y="303"/>
      <point x="171" y="303" type="curve" smooth="yes"/>
      <point x="201" y="303"/>
      <point x="213" y="288"/>
      <point x="213" y="267" type="curve" smooth="yes"/>
      <point x="213" y="259"/>
      <point x="212" y="254"/>
      <point x="210" y="244" type="curve" smooth="yes"/>
      <point x="204" y="214"/>
      <point x="185" y="198"/>
    </contour>
  </outline>
</glyph>
<glyph name="coloncurrency" format="1">
  <advance width="613"/>
  <unicode hex="20A1"/>
  <outline>
    <contour>
      <point x="56" y="290" type="curve" smooth="yes"/>
      <point x="56" y="128"/>
      <point x="130" y="7"/>
      <point x="278" y="7" type="curve" smooth="yes"/>
      <point x="400" y="7"/>
      <point x="479" y="50"/>
      <point x="539" y="129" type="curve"/>
      <point x="454" y="202" type="line"/>
      <point x="417" y="146"/>
      <point x="355" y="120"/>
      <point x="301" y="120" type="curve" smooth="yes"/>
      <point x="224" y="120"/>
      <point x="193" y="185"/>
      <point x="193" y="244" type="curve" smooth="yes"/>
      <point x="193" y="263"/>
      <point x="196" y="279"/>
      <point x="199" y="294" type="curve" smooth="yes"/>
      <point x="222" y="409" type="line" smooth="yes"/>
      <point x="244" y="520"/>
      <point x="302" y="581"/>
      <point x="394" y="578" type="curve" smooth="yes"/>
      <point x="470" y="576"/>
      <point x="511" y="544"/>
      <point x="522" y="508" type="curve"/>
      <point x="629" y="574" type="line"/>
      <point x="601" y="630"/>
      <point x="531" y="691"/>
      <point x="418" y="691" type="curve" smooth="yes"/>
      <point x="232" y="691"/>
      <point x="104" y="561"/>
      <point x="67" y="393" type="curve" smooth="yes"/>
      <point x="60" y="360"/>
      <point x="56" y="325"/>
    </contour>
    <contour>
      <point x="196" y="-82" type="line"/>
      <point x="238" y="63" type="line"/>
      <point x="245" y="83" type="line"/>
      <point x="401" y="615" type="line"/>
      <point x="410" y="635" type="line"/>
      <point x="453" y="780" type="line"/>
      <point x="386" y="780" type="line"/>
      <point x="343" y="635" type="line"/>
      <point x="338" y="615" type="line"/>
      <point x="178" y="83" type="line"/>
      <point x="171" y="63" type="line"/>
      <point x="129" y="-82" type="line"/>
    </contour>
    <contour>
      <point x="306" y="-82" type="line"/>
      <point x="348" y="63" type="line"/>
      <point x="355" y="83" type="line"/>
      <point x="511" y="615" type="line"/>
      <point x="520" y="635" type="line"/>
      <point x="563" y="780" type="line"/>
      <point x="496" y="780" type="line"/>
      <point x="453" y="635" type="line"/>
      <point x="448" y="615" type="line"/>
      <point x="288" y="83" type="line"/>
      <point x="281" y="63" type="line"/>
      <point x="239" y="-82" type="line"/>
    </contour>
  </outline>
</glyph>
<glyph name="lira" format="1">
  <advance width="591"/>
  <unicode hex="20A4"/>
  <outline>
    <contour>
      <point x="528.0" y="121.0" type="line"/>
      <point x="203.0" y="121.0" type="line"/>
      <point x="205.0" y="133.0" type="line"/>
      <point x="240" y="150"/>
      <point x="304" y="202"/>
      <point x="304" y="306" type="curve" smooth="yes"/>
      <point x="304" y="350"/>
      <point x="286" y="398"/>
      <point x="286" y="453" type="curve" smooth="yes" name=""/>
      <point x="286" y="540"/>
      <point x="335.0" y="584.0"/>
      <point x="399.0" y="584.0" type="curve" smooth="yes"/>
      <point x="453.0" y="584.0"/>
      <point x="486.0" y="563.0"/>
      <point x="512.0" y="514.0" type="curve"/>
      <point x="627.0" y="590.0" type="line"/>
      <point x="580.0" y="670.0"/>
      <point x="515.0" y="710.0"/>
      <point x="410.0" y="710.0" type="curve" smooth="yes"/>
      <point x="255.0" y="710.0"/>
      <point x="142" y="606"/>
      <point x="142" y="456" type="curve" smooth="yes"/>
      <point x="142.0" y="398"/>
      <point x="161" y="312"/>
      <point x="161" y="295" type="curve" smooth="yes" name=""/>
      <point x="161" y="209"/>
      <point x="100" y="149"/>
      <point x="57.0" y="134.0" type="curve"/>
      <point x="30.0" y="0.0" type="line"/>
      <point x="503.0" y="0.0" type="line"/>
    </contour>
    <contour>
      <point x="74" y="385" type="line"/>
      <point x="454" y="385" type="line"/>
      <point x="471" y="473" type="line"/>
      <point x="91" y="473" type="line"/>
    </contour>
    <contour>
      <point x="42" y="227" type="line"/>
      <point x="422" y="227" type="line"/>
      <point x="440" y="315" type="line"/>
      <point x="60" y="315" type="line"/>
    </contour>
  </outline>
</glyph>
<glyph name="naira" format="1">
  <advance width="765"/>
  <unicode hex="20A6"/>
  <outline>
    <contour>
      <point x="440" y="0" type="line" name=""/>
      <point x="608" y="0" type="line"/>
      <point x="653" y="228" type="line"/>
      <point x="738" y="228" type="line"/>
      <point x="755" y="316" type="line"/>
      <point x="670" y="316" type="line"/>
      <point x="684" y="387" type="line"/>
      <point x="770" y="387" type="line"/>
      <point x="788" y="475" type="line"/>
      <point x="702" y="475" type="line"/>
      <point x="746" y="698" type="line"/>
      <point x="620" y="698" type="line"/>
      <point x="576" y="475" type="line"/>
      <point x="432" y="475" type="line"/>
      <point x="368" y="698" type="line"/>
      <point x="202" y="698" type="line"/>
      <point x="158" y="475" type="line"/>
      <point x="71" y="475" type="line"/>
      <point x="54" y="387" type="line"/>
      <point x="140" y="387" type="line"/>
      <point x="126" y="316" type="line"/>
      <point x="39" y="316" type="line"/>
      <point x="22" y="228" type="line"/>
      <point x="108" y="228" type="line"/>
      <point x="63" y="0" type="line"/>
      <point x="191" y="0" type="line"/>
      <point x="236" y="229" type="line"/>
      <point x="376" y="229" type="line"/>
    </contour>
    <contour>
      <point x="252" y="313" type="line"/>
      <point x="271" y="409" type="line"/>
      <point x="292" y="521" type="line"/>
      <point x="297" y="521" type="line"/>
      <point x="325" y="409" type="line"/>
      <point x="352" y="313" type="line"/>
    </contour>
    <contour>
      <point x="456" y="391" type="line"/>
      <point x="559" y="391" type="line"/>
      <point x="542" y="301" type="line"/>
      <point x="518" y="178" type="line"/>
      <point x="514" y="178" type="line"/>
      <point x="482" y="301" type="line"/>
    </contour>
  </outline>
</glyph>
<glyph name="rupee" format="1">
  <advance width="868"/>
  <unicode hex="20A8"/>
  <outline>
    <contour>
      <point x="22" y="0" type="line"/>
      <point x="168" y="0" type="line"/>
      <point x="223" y="276" type="line"/>
      <point x="302" y="276" type="line"/>
      <point x="353" y="130" type="line" smooth="yes"/>
      <point x="388" y="29"/>
      <point x="459" y="-12"/>
      <point x="551" y="-12" type="curve" smooth="yes" name="hr01"/>
      <point x="734" y="-12"/>
      <point x="798" y="75"/>
      <point x="798" y="171" type="curve" smooth="yes"/>
      <point x="798" y="217"/>
      <point x="777" y="250"/>
      <point x="741" y="294" type="curve" smooth="yes"/>
      <point x="727" y="312" type="line" smooth="yes"/>
      <point x="708" y="336"/>
      <point x="692" y="353"/>
      <point x="692" y="375" type="curve" smooth="yes" name="hr02"/>
      <point x="692" y="407"/>
      <point x="715" y="428"/>
      <point x="746" y="428" type="curve" smooth="yes"/>
      <point x="768" y="428"/>
      <point x="785" y="422"/>
      <point x="804" y="409" type="curve"/>
      <point x="868" y="505" type="line"/>
      <point x="835" y="527"/>
      <point x="784" y="535"/>
      <point x="741" y="535" type="curve" smooth="yes"/>
      <point x="634" y="535"/>
      <point x="558" y="459"/>
      <point x="558" y="366" type="curve" smooth="yes"/>
      <point x="558" y="312"/>
      <point x="580" y="275"/>
      <point x="612" y="233" type="curve" smooth="yes"/>
      <point x="627" y="213" type="line" smooth="yes"/>
      <point x="645" y="189"/>
      <point x="655" y="173"/>
      <point x="655" y="155" type="curve" smooth="yes" name="hr03"/>
      <point x="655" y="125"/>
      <point x="631" y="98"/>
      <point x="581" y="98" type="curve" smooth="yes"/>
      <point x="529" y="98"/>
      <point x="501" y="124"/>
      <point x="477" y="189" type="curve" smooth="yes"/>
      <point x="432" y="312" type="line"/>
      <point x="504" y="350"/>
      <point x="555" y="429"/>
      <point x="555" y="534" type="curve" smooth="yes"/>
      <point x="555" y="638"/>
      <point x="486" y="698"/>
      <point x="358" y="698" type="curve" smooth="yes" name="hr04"/>
      <point x="162" y="698" type="line"/>
    </contour>
    <contour>
      <point x="247" y="396" type="line"/>
      <point x="284" y="578" type="line"/>
      <point x="344" y="578" type="line" smooth="yes"/>
      <point x="382" y="578"/>
      <point x="405" y="561"/>
      <point x="405" y="531" type="curve" smooth="yes"/>
      <point x="405" y="524"/>
      <point x="404" y="517"/>
      <point x="403" y="512" type="curve" smooth="yes"/>
      <point x="394" y="468" type="line" smooth="yes"/>
      <point x="385" y="423"/>
      <point x="355" y="396"/>
      <point x="309" y="396" type="curve" smooth="yes"/>
    </contour>
  </outline>
</glyph>
<glyph name="won" format="1">
  <advance width="984"/>
  <unicode hex="20A9"/>
  <outline>
    <contour>
      <point x="562" y="0" type="line" name=""/>
      <point x="728" y="0" type="line"/>
      <point x="825" y="228" type="line"/>
      <point x="943" y="228" type="line"/>
      <point x="959" y="316" type="line"/>
      <point x="863" y="316" type="line"/>
      <point x="893" y="387" type="line"/>
      <point x="975" y="387" type="line"/>
      <point x="993" y="475" type="line"/>
      <point x="930" y="475" type="line"/>
      <point x="1025" y="698" type="line"/>
      <point x="882" y="698" type="line"/>
      <point x="794" y="475" type="line"/>
      <point x="663" y="475" type="line"/>
      <point x="657" y="698" type="line"/>
      <point x="501" y="698" type="line"/>
      <point x="406" y="475" type="line"/>
      <point x="277" y="475" type="line"/>
      <point x="278" y="698" type="line"/>
      <point x="136" y="698" type="line"/>
      <point x="141" y="475" type="line"/>
      <point x="79" y="475" type="line"/>
      <point x="62" y="387" type="line"/>
      <point x="143" y="387" type="line"/>
      <point x="144" y="316" type="line"/>
      <point x="47" y="316" type="line"/>
      <point x="30" y="228" type="line"/>
      <point x="146" y="228" type="line"/>
      <point x="151" y="0" type="line"/>
      <point x="318" y="0" type="line"/>
      <point x="416" y="229" type="line"/>
      <point x="556" y="229" type="line"/>
    </contour>
    <contour>
      <point x="277" y="391" type="line"/>
      <point x="371" y="391" type="line"/>
      <point x="335" y="305" type="line"/>
      <point x="279" y="169" type="line"/>
      <point x="275" y="169" type="line"/>
      <point x="276" y="305" type="line"/>
    </contour>
    <contour>
      <point x="665" y="391" type="line"/>
      <point x="761" y="391" type="line"/>
      <point x="728" y="305" type="line"/>
      <point x="675" y="167" type="line"/>
      <point x="671" y="167" type="line"/>
      <point x="667" y="305" type="line"/>
    </contour>
    <contour>
      <point x="452" y="312" type="line"/>
      <point x="486" y="393" type="line"/>
      <point x="544" y="534" type="line"/>
      <point x="548" y="534" type="line"/>
      <point x="551" y="393" type="line"/>
      <point x="553" y="312" type="line"/>
    </contour>
  </outline>
</glyph>
